<svg xmlns="http://www.w3.org/2000/svg" width="187.557" height="117.916" viewBox="0 0 187.557 117.916">
  <g id="Grupo_142" data-name="Grupo 142" transform="translate(-593.591 -1371.235)">
    <circle id="Elipse_21" data-name="Elipse 21" cx="58.5" cy="58.5" r="58.5" transform="translate(630 1372)" fill="#f8d22f"/>
    <path id="Trazado_1297" data-name="Trazado 1297" d="M12.992,83.9a6,6,0,0,1,1.6-3.967C15.073,81.928,12.992,83.9,12.992,83.9Z" transform="translate(589.113 1387.913)" fill="#ebebeb"/>
    <path id="Trazado_1298" data-name="Trazado 1298" d="M14.723,82.173A6.011,6.011,0,0,1,19,82.063C17.365,83.294,14.723,82.173,14.723,82.173Z" transform="translate(589.701 1388.519)" fill="#ebebeb"/>
    <path id="Trazado_1299" data-name="Trazado 1299" d="M14.94,81.938a4.739,4.739,0,0,1,.584-3.32C16.224,80.074,14.94,81.938,14.94,81.938Z" transform="translate(589.746 1387.465)" fill="#ebebeb"/>
    <path id="Trazado_1300" data-name="Trazado 1300" d="M8.227,77.622a9.623,9.623,0,0,1,5.206,3.851C10.536,81.475,8.227,77.622,8.227,77.622Z" transform="translate(587.494 1387.126)" fill="#ebebeb"/>
    <path id="Trazado_1301" data-name="Trazado 1301" d="M12.269,80.635c-.177-3.654,3.394-7.79,3.394-7.79a16.016,16.016,0,0,1-3.394,7.79" transform="translate(588.865 1385.504)" fill="#ebebeb"/>
    <path id="Trazado_1302" data-name="Trazado 1302" d="M12.6,70.892a9.8,9.8,0,0,1-1.286,5.234C10.814,73.775,12.6,70.892,12.6,70.892Z" transform="translate(588.514 1384.841)" fill="#ebebeb"/>
    <path id="Trazado_1303" data-name="Trazado 1303" d="M12.273,77.178C9.6,76.9,8.148,74.235,8.148,74.235,11.379,75.14,12.273,77.178,12.273,77.178Z" transform="translate(587.468 1385.976)" fill="#ebebeb"/>
    <path id="Trazado_1304" data-name="Trazado 1304" d="M6.926,85a6,6,0,0,1,4.2-.811C9.714,85.681,6.926,85,6.926,85Z" transform="translate(587.052 1389.327)" fill="#ebebeb"/>
    <path id="Trazado_1305" data-name="Trazado 1305" d="M12.547,85.666a3.926,3.926,0,0,1-1.8,2.022C10.868,86.458,12.547,85.666,12.547,85.666Z" transform="translate(588.352 1389.859)" fill="#ebebeb"/>
    <path id="Trazado_1306" data-name="Trazado 1306" d="M12.646,85.4a4.744,4.744,0,0,1-3.2.57C10.48,84.9,12.646,85.4,12.646,85.4Z" transform="translate(587.91 1389.73)" fill="#ebebeb"/>
    <path id="Trazado_1307" data-name="Trazado 1307" d="M13.6,94.3a.221.221,0,0,1,0-.055q0-.062,0-.158V92.5c0-.379,0-.8-.025-1.281-.025-.949-.091-2.08-.188-3.333s-.26-2.622-.47-4.058c-.423-2.869-1-5.433-1.463-7.275-.232-.921-.429-1.66-.573-2.177-.069-.249-.122-.448-.16-.592l-.039-.155v-.053a.42.42,0,0,1,.019.05l.05.152.183.584c.158.509.368,1.25.611,2.169a68.013,68.013,0,0,1,1.5,7.281c.21,1.436.357,2.813.462,4.066s.149,2.387.16,3.339c.017.476,0,.907,0,1.284s0,.705-.017.971-.017.462-.022.611v.16C13.624,94.29,13.6,94.3,13.6,94.3Z" transform="translate(588.327 1385.753)" fill="#e0e0e0"/>
    <path id="Trazado_1308" data-name="Trazado 1308" d="M9.2,83.271c.019-.028,1.107.681,2.412,1.58s2.362,1.66,2.346,1.682-1.107-.681-2.412-1.582S9.178,83.3,9.2,83.271Z" transform="translate(587.823 1389.045)" fill="#e0e0e0"/>
    <path id="Trazado_1309" data-name="Trazado 1309" d="M12.747,84.645a1.764,1.764,0,0,1,.163-.183L13.391,84,15,82.493l1.6-1.5.487-.456a1.137,1.137,0,0,1,.188-.158.97.97,0,0,1-.155.191c-.105.119-.277.277-.459.484-.4.4-.954.946-1.585,1.533s-1.206,1.107-1.629,1.483l-.506.434A1.175,1.175,0,0,1,12.747,84.645Z" transform="translate(589.03 1388.061)" fill="#e0e0e0"/>
    <path id="Trazado_1310" data-name="Trazado 1310" d="M6.637,81.976S9.4,81.924,10.565,84.1A4.979,4.979,0,0,1,6.637,81.976Z" transform="translate(586.954 1388.605)" fill="#ebebeb"/>
    <path id="Trazado_1311" data-name="Trazado 1311" d="M9.452,81.15s2.246,1.6,1.889,4.044A4.979,4.979,0,0,1,9.452,81.15Z" transform="translate(587.91 1388.325)" fill="#ebebeb"/>
    <path id="Trazado_1312" data-name="Trazado 1312" d="M19.229,78.2s-.888,3.093-3.707,3.646A5.809,5.809,0,0,1,19.229,78.2Z" transform="translate(589.973 1387.323)" fill="#ebebeb"/>
    <path id="Trazado_1313" data-name="Trazado 1313" d="M8.534,69.626s3.524,2.3,3.134,6.033A7.574,7.574,0,0,1,8.534,69.626Z" transform="translate(587.599 1384.41)" fill="#ebebeb"/>
    <path id="Trazado_1314" data-name="Trazado 1314" d="M18.532,84.882a1.382,1.382,0,0,1-.23.183c-.152.111-.368.277-.631.484a15.55,15.55,0,0,0-3.486,3.873c-.18.277-.318.515-.412.678a1.385,1.385,0,0,1-.158.249,1.211,1.211,0,0,1,.116-.277c.08-.169.21-.409.382-.7a13.433,13.433,0,0,1,3.5-3.9c.277-.2.5-.357.658-.456A1.242,1.242,0,0,1,18.532,84.882Z" transform="translate(589.325 1389.593)" fill="#e0e0e0"/>
    <path id="Trazado_1315" data-name="Trazado 1315" d="M15.02,87.658a6.017,6.017,0,0,1,.808-4.2A5.915,5.915,0,0,1,15.02,87.658Z" transform="translate(589.771 1389.109)" fill="#ebebeb"/>
    <path id="Trazado_1316" data-name="Trazado 1316" d="M16.767,85.773a4.366,4.366,0,0,1,3.073-.467A4.319,4.319,0,0,1,16.767,85.773Z" transform="translate(590.395 1389.703)" fill="#ebebeb"/>
    <path id="Trazado_1317" data-name="Trazado 1317" d="M9.022,89.259l1.322,8.683H18.02L19.8,89.384Z" transform="translate(587.764 1391.079)" fill="#ebebeb"/>
    <path id="Trazado_1318" data-name="Trazado 1318" d="M18.5,93.425c0,.025-1.97.044-4.4.044s-4.4-.019-4.4-.044,1.967-.044,4.393-.044S18.5,93.4,18.5,93.425Z" transform="translate(587.996 1392.479)" fill="#fafafa"/>
    <path id="Trazado_1319" data-name="Trazado 1319" d="M18.535,93.108c0,.025-1.981.044-4.426.044s-4.426-.019-4.426-.044,1.981-.047,4.426-.047S18.535,93.083,18.535,93.108Z" transform="translate(587.989 1392.371)" fill="#fafafa"/>
    <path id="Trazado_1320" data-name="Trazado 1320" d="M18.524,92.746c0,.025-1.981.047-4.426.047s-4.426-.022-4.426-.047S11.653,92.7,14.1,92.7,18.524,92.718,18.524,92.746Z" transform="translate(587.985 1392.249)" fill="#fafafa"/>
    <path id="Trazado_1321" data-name="Trazado 1321" d="M10.764,95.929a6.809,6.809,0,0,1-.235-1.093,6.959,6.959,0,0,1-.147-1.107,7,7,0,0,1,.235,1.093A7,7,0,0,1,10.764,95.929Z" transform="translate(588.227 1392.598)" fill="#fafafa"/>
    <path id="Trazado_1322" data-name="Trazado 1322" d="M11.095,95.845a8.083,8.083,0,0,1-.1-1.068,8.748,8.748,0,0,1-.05-1.071,5.193,5.193,0,0,1,.141,1.065A5.532,5.532,0,0,1,11.095,95.845Z" transform="translate(588.419 1392.59)" fill="#fafafa"/>
    <path id="Trazado_1323" data-name="Trazado 1323" d="M11.837,95.864a5.189,5.189,0,0,1-.2-1.107,5.646,5.646,0,0,1-.061-1.107,8.912,8.912,0,0,1,.149,1.107A10.128,10.128,0,0,1,11.837,95.864Z" transform="translate(588.631 1392.572)" fill="#fafafa"/>
    <path id="Trazado_1324" data-name="Trazado 1324" d="M12.3,95.9a5.613,5.613,0,0,1-.105-1.107,5.532,5.532,0,0,1,.033-1.107,9.6,9.6,0,0,1,.055,1.107A8.416,8.416,0,0,1,12.3,95.9Z" transform="translate(588.836 1392.583)" fill="#fafafa"/>
    <path id="Trazado_1325" data-name="Trazado 1325" d="M13.175,95.839a6.216,6.216,0,0,1-.08-1.054,6.364,6.364,0,0,1,0-1.06,6.268,6.268,0,0,1,.08,1.057A6.344,6.344,0,0,1,13.175,95.839Z" transform="translate(589.141 1392.597)" fill="#fafafa"/>
    <path id="Trazado_1326" data-name="Trazado 1326" d="M13.8,95.892a13.068,13.068,0,0,1,.019-2.183,6.546,6.546,0,0,1,.036,1.09,6.659,6.659,0,0,1-.055,1.093Z" transform="translate(589.376 1392.591)" fill="#fafafa"/>
    <path id="Trazado_1327" data-name="Trazado 1327" d="M14.4,95.828a7.355,7.355,0,0,1,.066-1.142,7.231,7.231,0,0,1,.155-1.131,14.745,14.745,0,0,1-.221,2.274Z" transform="translate(589.59 1392.539)" fill="#fafafa"/>
    <path id="Trazado_1328" data-name="Trazado 1328" d="M15.179,95.647a6.066,6.066,0,0,1,.412-1.9,8.835,8.835,0,0,1-.2.957A8.5,8.5,0,0,1,15.179,95.647Z" transform="translate(589.856 1392.604)" fill="#fafafa"/>
    <path id="Trazado_1329" data-name="Trazado 1329" d="M8.365,87.975V89.6A.636.636,0,0,0,9,90.241H20.119a.636.636,0,0,0,.639-.639V87.975Z" transform="translate(587.541 1390.643)" fill="#ebebeb"/>
    <path id="Trazado_1330" data-name="Trazado 1330" d="M9.083,89.666l.094.517,10.258.73.26-1.248Z" transform="translate(587.785 1391.218)" fill="#e0e0e0"/>
    <rect id="Rectángulo_69" data-name="Rectángulo 69" width="8.689" height="17.223" transform="translate(740.651 1387.15)" fill="#f5f5f5"/>
    <rect id="Rectángulo_70" data-name="Rectángulo 70" width="9.389" height="17.223" transform="translate(749.675 1387.15)" fill="#f5f5f5"/>
    <rect id="Rectángulo_71" data-name="Rectángulo 71" width="9.389" height="16.642" transform="translate(749.675 1405.576)" fill="#f5f5f5"/>
    <path id="Trazado_1331" data-name="Trazado 1331" d="M131.051,23.438h9.887V8.157h.335V23.438h8.044V7.82H131.051Z" transform="translate(629.216 1363.415)" fill="#f5f5f5"/>
    <rect id="Rectángulo_72" data-name="Rectángulo 72" width="8.047" height="17.223" transform="translate(770.489 1387.15)" fill="#f5f5f5"/>
    <rect id="Rectángulo_73" data-name="Rectángulo 73" width="8.047" height="16.642" transform="translate(770.489 1405.576)" fill="#f5f5f5"/>
    <rect id="Rectángulo_74" data-name="Rectángulo 74" width="8.689" height="16.642" transform="translate(740.651 1405.576)" fill="#f5f5f5"/>
    <rect id="Rectángulo_75" data-name="Rectángulo 75" width="9.887" height="16.642" transform="translate(760.267 1405.576)" fill="#f5f5f5"/>
    <rect id="Rectángulo_76" data-name="Rectángulo 76" width="8.689" height="14.996" transform="translate(740.651 1422.517)" fill="#f5f5f5"/>
    <rect id="Rectángulo_77" data-name="Rectángulo 77" width="8.047" height="14.996" transform="translate(770.489 1422.517)" fill="#f5f5f5"/>
    <path id="Trazado_1332" data-name="Trazado 1332" d="M125.1,23.438V8.157h.335V23.438h9.389V7.82H116.409V23.438Z" transform="translate(624.243 1363.415)" fill="#f5f5f5"/>
    <rect id="Rectángulo_78" data-name="Rectángulo 78" width="9.887" height="14.996" transform="translate(760.267 1422.517)" fill="#f5f5f5"/>
    <rect id="Rectángulo_79" data-name="Rectángulo 79" width="9.389" height="14.996" transform="translate(749.675 1422.517)" fill="#f5f5f5"/>
    <rect id="Rectángulo_80" data-name="Rectángulo 80" width="9.887" height="17.223" transform="translate(760.267 1387.15)" fill="#f5f5f5"/>
    <rect id="Rectángulo_81" data-name="Rectángulo 81" width="21.436" height="35.484" transform="translate(711.395 1375.302)" fill="#e0e0e0"/>
    <rect id="Rectángulo_82" data-name="Rectángulo 82" width="21.436" height="35.484" transform="translate(710.683 1375.302)" fill="#ebebeb"/>
    <rect id="Rectángulo_83" data-name="Rectángulo 83" width="19.61" height="34.042" transform="translate(711.596 1376.021)" fill="#fff"/>
    <rect id="Rectángulo_84" data-name="Rectángulo 84" width="12.058" height="25.196" transform="translate(715.328 1380.444)" fill="#ebebeb"/>
    <path id="Trazado_1333" data-name="Trazado 1333" d="M97.508,29.2a5.338,5.338,0,0,1,4.426-4.979c1.107-.155,2.29.064,3.32-.362,1.853-.758,2.443-3.223,4.307-3.953l.086,18.211H97.5Z" transform="translate(617.82 1367.521)" fill="#e0e0e0"/>
    <path id="Trazado_1334" data-name="Trazado 1334" d="M193.652,95.467c0,.039-41.511.072-92.7.072s-92.716-.033-92.716-.072,41.5-.069,92.71-.069S193.652,95.429,193.652,95.467Z" transform="translate(587.496 1393.165)" fill="#263238"/>
    <rect id="Rectángulo_85" data-name="Rectángulo 85" width="98.381" height="19.929" transform="translate(658.682 1468.703)" fill="#ae7461"/>
    <rect id="Rectángulo_86" data-name="Rectángulo 86" width="112.039" height="2.291" transform="translate(651.852 1467.578)" fill="#ae7461"/>
    <path id="Trazado_1335" data-name="Trazado 1335" d="M162.055,81.456c0,.039-24.98.072-55.786.072s-55.791-.033-55.791-.072,24.974-.072,55.791-.072S162.055,81.417,162.055,81.456Z" transform="translate(601.847 1388.405)"/>
    <path id="Trazado_1336" data-name="Trazado 1336" d="M153.624,90.667c0,.039-21.989.072-49.1.072s-49.108-.033-49.108-.072,21.981-.072,49.108-.072S153.624,90.62,153.624,90.667Z" transform="translate(603.523 1391.533)"/>
    <path id="Trazado_1337" data-name="Trazado 1337" d="M153.481,85.8c0,.041-21.987.075-49.1.075s-49.108-.033-49.108-.075,21.981-.072,49.108-.072S153.481,85.766,153.481,85.8Z" transform="translate(603.475 1389.881)"/>
    <path id="Trazado_1338" data-name="Trazado 1338" d="M68.44,79.691a84.376,84.376,0,0,1-.88-10.451c.08-3.845,0-8.169,0-8.169H68s-.3,7.629.028,12.233,1.184,6.387,1.184,6.387h-.769" transform="translate(607.648 1381.505)" fill="#263238"/>
    <path id="Trazado_1339" data-name="Trazado 1339" d="M71.477,55.7a1.17,1.17,0,0,0-.4-.589,1.107,1.107,0,0,0-.963,0c-1.339.473-2.523,2.968-3.065,4.279l1.776,5.986A8.865,8.865,0,0,0,71.477,55.7Z" transform="translate(607.474 1379.442)" fill="#455a64"/>
    <path id="Trazado_1340" data-name="Trazado 1340" d="M70.521,55.261a.351.351,0,0,1-.028.077c-.022.058-.05.13-.086.219-.077.188-.188.462-.318.8-.263.681-.595,1.632-.894,2.7s-.5,2.055-.625,2.766c-.064.357-.113.65-.144.849-.014.094-.028.171-.036.232a.41.41,0,0,1-.019.08.465.465,0,0,1,0-.083,1.386,1.386,0,0,1,.025-.232c.022-.2.064-.5.119-.855a25.449,25.449,0,0,1,1.524-5.488c.136-.337.252-.609.337-.794.041-.086.075-.158.1-.213A.417.417,0,0,1,70.521,55.261Z" transform="translate(607.924 1379.531)" fill="#263238"/>
    <path id="Trazado_1341" data-name="Trazado 1341" d="M68.478,66.033a5.417,5.417,0,0,1-2.739-4.551,9.846,9.846,0,0,1,.808-3.873.49.49,0,0,1,.188-.277.473.473,0,0,1,.454.072,5.515,5.515,0,0,1,2.332,3.339,6.692,6.692,0,0,1,.277,2.744,4.553,4.553,0,0,1-1.317,2.556" transform="translate(607.029 1380.225)" fill="#455a64"/>
    <path id="Trazado_1342" data-name="Trazado 1342" d="M68.081,65.789a.31.31,0,0,1,0-.08v-.23c0-.2,0-.487-.025-.844a23.081,23.081,0,0,0-.31-2.766c-.185-1.071-.409-2.03-.573-2.725l-.2-.83-.05-.224a.356.356,0,0,1-.022-.066.369.369,0,0,1,.028.077c.017.058.039.13.064.219.055.194.13.47.221.816.177.692.409,1.66.595,2.728a20.2,20.2,0,0,1,.29,2.766v1.076A.306.306,0,0,1,68.081,65.789Z" transform="translate(607.426 1380.469)" fill="#263238"/>
    <path id="Trazado_1343" data-name="Trazado 1343" d="M68.478,66.033a5.417,5.417,0,0,1-2.739-4.551,9.846,9.846,0,0,1,.808-3.873.49.49,0,0,1,.188-.277.473.473,0,0,1,.454.072,5.515,5.515,0,0,1,2.332,3.339,6.692,6.692,0,0,1,.277,2.744,4.553,4.553,0,0,1-1.317,2.556" transform="translate(607.028 1380.225)"/>
    <path id="Trazado_1344" data-name="Trazado 1344" d="M69.184,71.4c1.638.36,2.988,1.516,4.57,2.077a8.875,8.875,0,0,1,3.062,1.237,2.584,2.584,0,0,0-1.137-1.131,20.329,20.329,0,0,0-4.149-1.978,3.92,3.92,0,0,0-2.307-.26" transform="translate(608.201 1384.966)" fill="#455a64"/>
    <path id="Trazado_1345" data-name="Trazado 1345" d="M69,73.007c-2.053-.033-4.213-1.781-6.255-1.887,2.138-.689,5.2-.124,6.255,1.887" transform="translate(606.014 1384.823)" fill="#455a64"/>
    <path id="Trazado_1346" data-name="Trazado 1346" d="M68.014,69.415a6.692,6.692,0,0,1,3.281-.224,20.172,20.172,0,0,1,3.2.871,3.088,3.088,0,0,0-1.223-1.721,8.557,8.557,0,0,0-1.286-.99,2.866,2.866,0,0,0-1.544-.434,2.443,2.443,0,0,0-1.7.858,2.835,2.835,0,0,0-.73,1.64" transform="translate(607.803 1383.49)" fill="#455a64"/>
    <path id="Trazado_1347" data-name="Trazado 1347" d="M66.126,67.339c-1.295-1.107-3.25-1-4.949-.957a40.331,40.331,0,0,1,7.671,4.78C68.92,69.961,67.755,68.73,66.126,67.339Z" transform="translate(605.481 1383.3)" fill="#455a64"/>
    <path id="Trazado_1348" data-name="Trazado 1348" d="M66.126,67.339c-1.295-1.107-3.25-1-4.949-.957a40.331,40.331,0,0,1,7.671,4.78C68.92,69.961,67.755,68.73,66.126,67.339Z" transform="translate(605.481 1383.3)"/>
    <path id="Trazado_1349" data-name="Trazado 1349" d="M68.447,67.3a14.353,14.353,0,0,1,1.989-1.154c.678-.31,1.314-.8,1.97-1.156a21.7,21.7,0,0,0,2.371-1.676,6.139,6.139,0,0,1,2.6-1.237,5.068,5.068,0,0,0-2.362.136,15.293,15.293,0,0,0-2.213.866,10.713,10.713,0,0,0-2.858,1.66c-.824.741-1.569,1.463-1.483,2.564" transform="translate(607.951 1381.818)" fill="#455a64"/>
    <path id="Trazado_1350" data-name="Trazado 1350" d="M74.141,72.85a.317.317,0,0,1-.064-.028l-.18-.094c-.155-.083-.376-.2-.656-.346-.138-.072-.293-.147-.459-.227s-.343-.16-.531-.243a7.518,7.518,0,0,0-1.264-.44,2.7,2.7,0,0,0-1.317-.033,3.7,3.7,0,0,0-.553.166,2.983,2.983,0,0,0-.451.232,2.767,2.767,0,0,0-.553.467c-.119.127-.177.2-.183.2a.259.259,0,0,1,.036-.058c.028-.039.069-.094.124-.16a2.613,2.613,0,0,1,.553-.492,2.718,2.718,0,0,1,.456-.243,3.642,3.642,0,0,1,.553-.177A2.733,2.733,0,0,1,71,71.4a7.445,7.445,0,0,1,1.272.451c.191.083.371.166.534.252s.318.158.456.235c.277.147.5.277.645.365l.172.105C74.122,72.833,74.144,72.847,74.141,72.85Z" transform="translate(607.775 1384.979)" fill="#263238"/>
    <path id="Trazado_1351" data-name="Trazado 1351" d="M66.284,71.7a.387.387,0,0,1,.127.039,2.668,2.668,0,0,1,.335.144,4.064,4.064,0,0,1,1.715,1.66,3.371,3.371,0,0,1,.16.326.489.489,0,0,1,.041.127s-.089-.169-.246-.429a4.592,4.592,0,0,0-1.693-1.627A3.9,3.9,0,0,1,66.284,71.7Z" transform="translate(607.215 1385.114)" fill="#263238"/>
    <path id="Trazado_1352" data-name="Trazado 1352" d="M62.882,67.012l.089.028.246.086.387.144c.152.058.318.141.5.221a12,12,0,0,1,2.672,1.7,13.111,13.111,0,0,1,1.245,1.225,13.752,13.752,0,0,1,.885,1.107c.235.332.412.609.534.8l.141.221a.345.345,0,0,1,.044.08.6.6,0,0,1-.058-.072c-.036-.047-.089-.119-.152-.213-.127-.185-.313-.459-.553-.786s-.539-.705-.894-1.107a13.69,13.69,0,0,0-1.242-1.214,12.6,12.6,0,0,0-2.647-1.712c-.185-.083-.346-.172-.5-.23l-.382-.152-.241-.1A.447.447,0,0,1,62.882,67.012Z" transform="translate(606.06 1383.522)" fill="#263238"/>
    <path id="Trazado_1353" data-name="Trazado 1353" d="M71.163,67.958A.654.654,0,0,1,71,67.936l-.188-.033c-.072-.014-.158-.017-.252-.025a2.559,2.559,0,0,0-1.411.277,2.49,2.49,0,0,0-.642.476,2.893,2.893,0,0,0-.412.509,4.518,4.518,0,0,0-.277.553.68.68,0,0,1,.041-.16,2.466,2.466,0,0,1,.2-.407,2.6,2.6,0,0,1,.409-.528,2.431,2.431,0,0,1,.656-.5,2.531,2.531,0,0,1,1.45-.277c.094.014.18.017.255.036l.188.047a.73.73,0,0,1,.152.05Z" transform="translate(607.736 1383.794)" fill="#263238"/>
    <path id="Trazado_1354" data-name="Trazado 1354" d="M73.258,63.145l-.077.047-.23.124c-.2.108-.484.277-.83.47a13.011,13.011,0,0,0-1.19.775A9.863,9.863,0,0,0,69.6,65.667a3.39,3.39,0,0,0-.553.7q-.2.385-.382.747a13.708,13.708,0,0,0-.57,1.3,7.656,7.656,0,0,0-.277.916c-.053.219-.072.343-.08.34a.356.356,0,0,1,0-.089,1.441,1.441,0,0,1,.044-.26,6.62,6.62,0,0,1,.254-.924,12.581,12.581,0,0,1,.553-1.311c.119-.241.246-.492.379-.75a3.435,3.435,0,0,1,.553-.722,9.578,9.578,0,0,1,1.342-1.107c.44-.31.852-.553,1.2-.764s.642-.351.846-.451l.235-.113A.327.327,0,0,1,73.258,63.145Z" transform="translate(607.71 1382.208)" fill="#263238"/>
    <path id="Trazado_1355" data-name="Trazado 1355" d="M67.905,68.865a.826.826,0,0,1-.042-.174c-.025-.124-.053-.277-.089-.473a13.969,13.969,0,0,0-.39-1.541A13.245,13.245,0,0,0,66.8,65.2c-.077-.177-.147-.324-.2-.44a1,1,0,0,1-.066-.166.665.665,0,0,1,.091.152c.055.1.133.246.221.432a10.155,10.155,0,0,1,.979,3.029c.033.2.055.365.066.479a.772.772,0,0,1,.014.177Z" transform="translate(607.3 1382.702)" fill="#263238"/>
    <path id="Trazado_1356" data-name="Trazado 1356" d="M68.872,65.8a5.6,5.6,0,0,0-.667-2.213,7.317,7.317,0,0,0-4.957-3.7l4.589,6.844.592,1.22A3.508,3.508,0,0,0,68.872,65.8Z" transform="translate(606.184 1381.1)" fill="#455a64"/>
    <rect id="Rectángulo_87" data-name="Rectángulo 87" width="10.672" height="1.892" transform="translate(670.968 1460.38)" fill="#407bff"/>
    <path id="Trazado_1357" data-name="Trazado 1357" d="M64.989,75.493l.91,5.87h7.085l1.084-5.87Z" transform="translate(606.776 1386.403)" fill="#407bff"/>
    <path id="Trazado_1358" data-name="Trazado 1358" d="M75.082,75.791c0,.022-2.407.039-5.378.039s-5.375-.017-5.375-.039,2.407-.036,5.375-.036S75.082,75.76,75.082,75.791Z" transform="translate(606.552 1386.492)" fill="#263238"/>
    <rect id="Rectángulo_88" data-name="Rectángulo 88" width="67.645" height="55.996" transform="translate(607.821 1374.181)" fill="#fff"/>
    <path id="Trazado_1359" data-name="Trazado 1359" d="M84.911,66.028c0-.39-.017-22.25-.047-55.993l.047.047H17.274l.058-.055V66.02l-.05-.05,67.645.05-67.645.05h-.047V9.971H84.983v.047C84.93,43.779,84.911,65.638,84.911,66.028Z" transform="translate(590.555 1364.146)" fill="#263238"/>
    <rect id="Rectángulo_89" data-name="Rectángulo 89" width="23.096" height="1.53" rx="0.506" transform="translate(645.617 1408.154)" fill="#e0e0e0"/>
    <rect id="Rectángulo_90" data-name="Rectángulo 90" width="23.096" height="1.53" rx="0.506" transform="translate(645.617 1411.316)" fill="#e0e0e0"/>
    <rect id="Rectángulo_91" data-name="Rectángulo 91" width="12.775" height="1.53" rx="0.506" transform="translate(645.617 1414.243)" fill="#e0e0e0"/>
    <rect id="Rectángulo_92" data-name="Rectángulo 92" width="71.808" height="4.127" rx="1.367" transform="translate(605.752 1373.158)" fill="#263238"/>
    <path id="Trazado_1360" data-name="Trazado 1360" d="M50.545,35.872c0,.017-6.274.028-14.011.028s-14.011,0-14.011-.028,6.271-.028,14.011-.028S50.545,35.856,50.545,35.872Z" transform="translate(592.35 1372.935)" fill="#e0e0e0"/>
    <path id="Trazado_1361" data-name="Trazado 1361" d="M50.545,38.184c0,.014-6.274.028-14.011.028s-14.011,0-14.011-.028,6.271-.03,14.011-.03S50.545,38.167,50.545,38.184Z" transform="translate(592.35 1373.719)" fill="#e0e0e0"/>
    <path id="Trazado_1362" data-name="Trazado 1362" d="M50.545,40.491c0,.017-6.274.03-14.011.03s-14.011,0-14.011-.03,6.271-.028,14.011-.028S50.545,40.475,50.545,40.491Z" transform="translate(592.35 1374.504)" fill="#e0e0e0"/>
    <path id="Trazado_1363" data-name="Trazado 1363" d="M50.545,42.8c0,.017-6.274.028-14.011.028s-14.011,0-14.011-.028,6.271-.03,14.011-.03S50.545,42.786,50.545,42.8Z" transform="translate(592.35 1375.288)" fill="#e0e0e0"/>
    <path id="Trazado_1364" data-name="Trazado 1364" d="M50.545,45.111c0,.017-6.274.03-14.011.03s-14.011,0-14.011-.03,6.271-.028,14.011-.028S50.545,45.1,50.545,45.111Z" transform="translate(592.35 1376.073)" fill="#e0e0e0"/>
    <rect id="Rectángulo_93" data-name="Rectángulo 93" width="2.791" height="8.991" transform="translate(632.079 1415.261)" fill="#407bff"/>
    <rect id="Rectángulo_94" data-name="Rectángulo 94" width="2.791" height="11.959" transform="translate(637.351 1412.29)" fill="#407bff"/>
    <rect id="Rectángulo_95" data-name="Rectángulo 95" width="2.791" height="4.208" transform="translate(617.384 1420.041)" fill="#407bff"/>
    <rect id="Rectángulo_96" data-name="Rectángulo 96" width="2.791" height="5.463" transform="translate(622.001 1418.788)" fill="#407bff"/>
    <rect id="Rectángulo_97" data-name="Rectángulo 97" width="2.791" height="7.051" transform="translate(626.79 1417.197)" fill="#407bff"/>
    <path id="Trazado_1365" data-name="Trazado 1365" d="M50.829,52.068H22.461v-.025l-.028-.025h28.4Z" transform="translate(592.32 1372.186)" fill="#263238"/>
    <path id="Trazado_1366" data-name="Trazado 1366" d="M23.86,37.04a4.172,4.172,0,0,1-.692.028,4.192,4.192,0,0,1-.694-.028,4.19,4.19,0,0,1,.694-.028A4.168,4.168,0,0,1,23.86,37.04Z" transform="translate(592.334 1373.33)" fill="#263238"/>
    <path id="Trazado_1367" data-name="Trazado 1367" d="M23.86,39.241a3.984,3.984,0,0,1-.692.03,4,4,0,0,1-.694-.03,4.188,4.188,0,0,1,.694-.028A4.167,4.167,0,0,1,23.86,39.241Z" transform="translate(592.334 1374.078)" fill="#263238"/>
    <path id="Trazado_1368" data-name="Trazado 1368" d="M23.86,41.434a3.984,3.984,0,0,1-.692.03,4,4,0,0,1-.694-.03,4.585,4.585,0,0,1,.694-.028A4.563,4.563,0,0,1,23.86,41.434Z" transform="translate(592.334 1374.823)" fill="#263238"/>
    <path id="Trazado_1369" data-name="Trazado 1369" d="M23.86,43.631a3.984,3.984,0,0,1-.692.03,4,4,0,0,1-.694-.03,4.587,4.587,0,0,1,.694-.028A4.563,4.563,0,0,1,23.86,43.631Z" transform="translate(592.334 1375.569)" fill="#263238"/>
    <rect id="Rectángulo_98" data-name="Rectángulo 98" width="22.8" height="2.274" rx="0.754" transform="translate(631.821 1383.351)" fill="#407bff"/>
    <rect id="Rectángulo_99" data-name="Rectángulo 99" width="52.491" height="1.53" rx="0.506" transform="translate(614.781 1389.88)" fill="#e0e0e0"/>
    <rect id="Rectángulo_100" data-name="Rectángulo 100" width="52.491" height="1.53" rx="0.506" transform="translate(614.781 1393.529)" fill="#e0e0e0"/>
    <rect id="Rectángulo_101" data-name="Rectángulo 101" width="52.491" height="1.53" rx="0.506" transform="translate(614.781 1397.177)" fill="#e0e0e0"/>
    <rect id="Rectángulo_102" data-name="Rectángulo 102" width="12.775" height="1.53" rx="0.506" transform="translate(614.584 1400.826)" fill="#e0e0e0"/>
    <path id="Trazado_1370" data-name="Trazado 1370" d="M136.723,49.9l-.553-1.97a6.506,6.506,0,1,1,2.263.586h0Z" transform="translate(629.674 1372.825)" fill="#fff"/>
    <path id="Trazado_1371" data-name="Trazado 1371" d="M136.74,49.906l.111-.1.324-.277,1.25-1.032v.044h0a.025.025,0,0,1-.017-.033.022.022,0,0,1,.025-.017,6.539,6.539,0,0,0,3.137-.553,6.313,6.313,0,0,0,1.718-1.145,6.44,6.44,0,0,0-2.658-10.952,6.341,6.341,0,0,0-3.093-.08,6.557,6.557,0,0,0-2.664,1.278,6.47,6.47,0,0,0,1.308,10.872.041.041,0,0,1,0,.017l.4,1.461c.044.163.08.277.1.382a.685.685,0,0,0,.036.133s-.014-.039-.039-.122-.064-.21-.111-.371c-.1-.337-.246-.83-.434-1.469v.017a6.5,6.5,0,0,1-3.773-6.244,6.586,6.586,0,0,1,.65-2.542,6.518,6.518,0,0,1,1.759-2.213,6.614,6.614,0,0,1,2.711-1.3,6.465,6.465,0,0,1,3.148.077,6.523,6.523,0,0,1-2.177,12.8v-.05h0a.025.025,0,0,1,.017.033v.014l-1.284,1.018-.326.255C136.79,49.867,136.74,49.906,136.74,49.906Z" transform="translate(629.657 1372.819)" fill="#263238"/>
    <path id="Trazado_1372" data-name="Trazado 1372" d="M135.909,39.783h.971a.83.83,0,0,1,.83-.83.786.786,0,0,1,.761.5.863.863,0,0,1-.069.783,1.045,1.045,0,0,1-1.178.4v2.185h.957V41.545a1.87,1.87,0,0,0,1.344-1.829,1.741,1.741,0,0,0-1.815-1.746A1.663,1.663,0,0,0,135.909,39.783Z" transform="translate(630.867 1373.658)" fill="#263238"/>
    <rect id="Rectángulo_103" data-name="Rectángulo 103" width="0.974" height="0.907" transform="translate(768.101 1416.938)" fill="#263238"/>
    <path id="Trazado_1373" data-name="Trazado 1373" d="M89.792,24.49l.9-1.569a5.765,5.765,0,1,1,1.018,1.8h0Z" transform="translate(615.201 1365.941)" fill="#fff"/>
    <path id="Trazado_1374" data-name="Trazado 1374" d="M89.794,24.5h.127l.373.039,1.425.158-.025.033h0a.021.021,0,0,1,.028-.03,5.709,5.709,0,0,0,9.383-6.412,5.649,5.649,0,0,0-1.856-2.011,5.809,5.809,0,0,0-2.457-.9,5.723,5.723,0,0,0-6.086,7.538.022.022,0,0,1,0,.019l-.681,1.154c-.075.13-.136.23-.177.3l-.064.105a.958.958,0,0,1,.053-.1l.166-.3.664-1.181v.019a5.732,5.732,0,0,1-.257-2.827A5.792,5.792,0,0,1,92.3,16.68a5.853,5.853,0,0,1,2.014-1.156,5.762,5.762,0,0,1,2.49-.255,5.879,5.879,0,0,1,2.49.916,5.787,5.787,0,0,1-3.513,10.62,5.668,5.668,0,0,1-1.806-.4,5.746,5.746,0,0,1-2.3-1.679l.039-.025h0a.022.022,0,0,1,0,.03h0l-1.439-.188-.362-.05Z" transform="translate(615.199 1365.932)" fill="#263238"/>
    <path id="Trazado_1375" data-name="Trazado 1375" d="M93.659,19.718a.553.553,0,1,1-.553-.553A.553.553,0,0,1,93.659,19.718Z" transform="translate(616.139 1367.269)" fill="#263238"/>
    <path id="Trazado_1376" data-name="Trazado 1376" d="M95.293,19.705a.553.553,0,1,1-.553-.553A.553.553,0,0,1,95.293,19.705Z" transform="translate(616.694 1367.265)" fill="#263238"/>
    <path id="Trazado_1377" data-name="Trazado 1377" d="M96.9,19.416a.553.553,0,1,1-.747-.194A.553.553,0,0,1,96.9,19.416Z" transform="translate(617.266 1367.264)" fill="#263238"/>
    <path id="Trazado_1378" data-name="Trazado 1378" d="M129,93.611v-4.78l3.953-.249-.246,5.148-1.878.733Z" transform="translate(628.521 1390.849)" fill="#ae7461"/>
    <path id="Trazado_1379" data-name="Trazado 1379" d="M131.259,92.422l-1.574-.086s-2.423,1.961-2.656,3.043a2.415,2.415,0,0,0,0,.83l3.679.108h2.683V92.452Z" transform="translate(627.838 1392.124)" fill="#455a64"/>
    <path id="Trazado_1380" data-name="Trazado 1380" d="M127.136,79.982c0,.221,1.895,13.973,1.895,13.973H133.8l-.122-14.249Z" transform="translate(627.887 1387.834)" fill="#263238"/>
    <rect id="Rectángulo_104" data-name="Rectángulo 104" width="6.396" height="0.667" transform="translate(754.826 1487.907)" fill="#e0e0e0"/>
    <path id="Trazado_1381" data-name="Trazado 1381" d="M129.363,92.559c.041,0-.13.667-.26,1.491s-.185,1.5-.227,1.5a4.914,4.914,0,0,1,.083-1.521A5.022,5.022,0,0,1,129.363,92.559Z" transform="translate(628.469 1392.2)" fill="#263238"/>
    <path id="Trazado_1382" data-name="Trazado 1382" d="M132.429,95a3.534,3.534,0,0,0-.335-.606,1.767,1.767,0,0,0-.553-.473,1.7,1.7,0,0,0-1.71.08,1.766,1.766,0,0,0-.514.523,3.192,3.192,0,0,0-.277.636.4.4,0,0,1,0-.194,1.585,1.585,0,0,1,.177-.5,1.8,1.8,0,0,1,.528-.581,1.779,1.779,0,0,1,.913-.3,1.735,1.735,0,0,1,1.516.747,1.6,1.6,0,0,1,.224.476A.453.453,0,0,1,132.429,95Z" transform="translate(628.53 1392.55)" fill="#263238"/>
    <path id="Trazado_1383" data-name="Trazado 1383" d="M137.69,93.919l.282-4.772-3.934-.484-.055,5.154,1.831.844Z" transform="translate(630.212 1390.877)" fill="#ae7461"/>
    <path id="Trazado_1384" data-name="Trazado 1384" d="M136.17,92.6h1.577s2.3,2.1,2.473,3.187a2.377,2.377,0,0,1-.05.83l-3.679-.111-2.678-.155.227-3.845Z" transform="translate(630.155 1392.183)" fill="#455a64"/>
    <path id="Trazado_1385" data-name="Trazado 1385" d="M140.278,80.838c0,.224-2.105,13.942-2.105,13.942l-4.78-.075.34-14.266Z" transform="translate(630.012 1388.084)" fill="#263238"/>
    <rect id="Rectángulo_105" data-name="Rectángulo 105" width="6.396" height="0.667" transform="translate(770.362 1489.053) rotate(-176.62)" fill="#e0e0e0"/>
    <path id="Trazado_1386" data-name="Trazado 1386" d="M136.508,92.794a5.049,5.049,0,0,1,.315,1.488,4.963,4.963,0,0,1,0,1.524c-.041,0-.05-.68-.138-1.508S136.467,92.8,136.508,92.794Z" transform="translate(631.068 1392.28)" fill="#263238"/>
    <path id="Trazado_1387" data-name="Trazado 1387" d="M134.055,95.073a.733.733,0,0,1,.036-.191,1.622,1.622,0,0,1,.252-.459,1.758,1.758,0,0,1,2.451-.3,1.784,1.784,0,0,1,.492.611,1.577,1.577,0,0,1,.149.5.414.414,0,0,1,0,.194,3.465,3.465,0,0,0-.238-.65,1.762,1.762,0,0,0-.481-.553,1.7,1.7,0,0,0-1.7-.18,1.738,1.738,0,0,0-.586.437,3.255,3.255,0,0,0-.371.586Z" transform="translate(630.237 1392.607)" fill="#263238"/>
    <path id="Trazado_1388" data-name="Trazado 1388" d="M126.217,53.306a5.128,5.128,0,0,0,1.142-1.66c.268-.816.8-2,.849-2.255s-.213-.371-.526-.127a2.509,2.509,0,0,0-.611,1.123c-.155.415-.393.368-.393.368s.418-1.936.515-2.567c.105-.664.243-1.181-.058-1.286s-.437.2-.553.672-.423,1.577-.423,1.577l.207-1.776s.2-.954-.213-.96-.418.971-.418.971l-.34,1.784a11.424,11.424,0,0,0,.122-2.329c-.155-.083-.418-.136-.523.567s-.423,2.144-.423,2.144h-.061l.141-1.516a.573.573,0,0,0-.014-.29c-.08-.138-.263-.23-.379.216-.136.509-.4,2.252-.468,2.874a18.913,18.913,0,0,0,.033,2.2l-.963,1.441,2.412,1.317Z" transform="translate(626.434 1376.526)" fill="#ae7461"/>
    <rect id="Rectángulo_106" data-name="Rectángulo 106" width="5.375" height="4.664" transform="translate(759.042 1437.087)" fill="#ae7461"/>
    <path id="Trazado_1389" data-name="Trazado 1389" d="M130.5,62.448l-2.365-.337-3.721-1.8,2.766-7.049-3.455-1.712s-2.935,6.448-3.447,8.3-.636,2.766.553,3.743,9.9,5.148,9.9,5.148Z" transform="translate(625.432 1378.271)" fill="#263238"/>
    <path id="Trazado_1390" data-name="Trazado 1390" d="M139.467,59.747l-1.8-.523-5.057-.2a8.894,8.894,0,0,0-2.415.335c-1.292.3-2.993.592-2.993.592s-.365,4.268-.365,5.14l1.516,7.295H140.8l.758-5.256c0,.017.752-5.826.747-5.84A9.626,9.626,0,0,0,139.467,59.747Z" transform="translate(627.785 1380.807)" fill="#263238"/>
    <path id="Trazado_1391" data-name="Trazado 1391" d="M123.766,58.115a3.665,3.665,0,0,0-1.035.52,3.8,3.8,0,0,0-.758.877.943.943,0,0,1,.138-.321,2.343,2.343,0,0,1,1.308-1.021A.847.847,0,0,1,123.766,58.115Z" transform="translate(626.133 1380.5)" fill="#263238"/>
    <path id="Trazado_1392" data-name="Trazado 1392" d="M138.736,60.708a4.639,4.639,0,0,1,1.66,3.043c.277,2.075.877,8.053.877,8.053h-3.314l-.631-2.49Z" transform="translate(631.349 1381.381)" fill="#263238"/>
    <path id="Trazado_1393" data-name="Trazado 1393" d="M138.586,62.509a.307.307,0,0,1,0,.089.974.974,0,0,1-.025.252c-.022.219-.061.534-.113.924-.108.78-.277,1.853-.47,3.043l-.5,3.043c-.061.376-.111.686-.147.918l-.042.252a.356.356,0,0,1-.022.086.3.3,0,0,1,0-.089c0-.069.014-.152.025-.252.022-.221.061-.537.116-.927.105-.777.277-1.851.468-3.043l.5-3.029c.061-.379.111-.689.147-.921l.042-.249A.349.349,0,0,1,138.586,62.509Z" transform="translate(631.328 1381.993)" fill="#455a64"/>
    <path id="Trazado_1394" data-name="Trazado 1394" d="M126.424,60.848a8.9,8.9,0,0,1,.2,1c.113.617.277,1.466.473,2.407s.346,1.8.434,2.421c.044.31.077.553.091.739a1.087,1.087,0,0,1,0,.277,8.053,8.053,0,0,1-.2-1c-.113-.617-.277-1.469-.476-2.409s-.346-1.8-.434-2.418c-.044-.313-.075-.553-.091-.741A.992.992,0,0,1,126.424,60.848Z" transform="translate(627.641 1381.429)" fill="#455a64"/>
    <path id="Trazado_1395" data-name="Trazado 1395" d="M128.409,84.539a3.69,3.69,0,0,1-3.7-3.574c-.1-3.743-.105-9.538-.1-12.05a1.234,1.234,0,0,1,1.234-1.234h19.229a1.234,1.234,0,0,1,1.234,1.264c-.061,2.609-.21,8.661-.3,12.41a3.261,3.261,0,0,1-3.267,3.184Z" transform="translate(627.028 1383.749)" fill="#455a64"/>
    <path id="Trazado_1396" data-name="Trazado 1396" d="M124.461,100.774l-1.107-.133,2.266-18.521a2.147,2.147,0,0,1,2.116-1.906H143.95a2.152,2.152,0,0,1,2.116,1.9c.553,4.376,2.053,18.393,2.066,18.534l-1.107.119c0-.141-1.524-14.15-2.064-18.518a1.043,1.043,0,0,0-1.018-.929h-16.2a1.04,1.04,0,0,0-1.018.932Z" transform="translate(626.602 1388.007)" fill="#e0e0e0"/>
    <path id="Trazado_1397" data-name="Trazado 1397" d="M124.448,100.782a2.071,2.071,0,0,1,.03-.29c.03-.191.055-.479.1-.846.089-.747.219-1.84.385-3.25.337-2.819.83-6.9,1.433-11.953q.116-.946.235-1.936a2.085,2.085,0,0,1,.094-.506,1.106,1.106,0,0,1,.277-.44,1.068,1.068,0,0,1,.473-.255,2.465,2.465,0,0,1,.528-.03H143.89a1.107,1.107,0,0,1,.653.185,1.134,1.134,0,0,1,.421.537,3,3,0,0,1,.111.661c.05.437.1.877.147,1.317q.3,2.647.606,5.405c.409,3.676.83,7.488,1.272,11.4l-.077-.064,1.107-.119-.064.08c-.055-.506-.116-1.051-.177-1.6-.4-3.6-.794-7.121-1.176-10.54q-.277-2.564-.553-5.049c-.044-.412-.091-.83-.138-1.234a2.164,2.164,0,0,0-.407-1.107,2.086,2.086,0,0,0-.927-.708,2.113,2.113,0,0,0-.553-.13c-.194-.014-.4,0-.6,0H127.568a2.077,2.077,0,0,0-.467.1,2.005,2.005,0,0,0-.794.5,2.086,2.086,0,0,0-.5.777,3.983,3.983,0,0,0-.169.907q-.111.921-.221,1.806Q125.2,86.17,125,87.786c-.277,2.152-.509,4.091-.719,5.793-.426,3.394-.73,5.829-.891,7.1v-.017l.83.108.277.039-.263-.025-.83-.094h0v-.014c.149-1.267.44-3.7.83-7.1.2-1.7.437-3.64.7-5.8q.194-1.613.409-3.386.108-.882.219-1.806a4.123,4.123,0,0,1,.172-.929,2.214,2.214,0,0,1,.517-.83,2.188,2.188,0,0,1,.83-.526,2.3,2.3,0,0,1,.492-.108H144.1a2.287,2.287,0,0,1,.609.138,2.213,2.213,0,0,1,.985.755,2.255,2.255,0,0,1,.437,1.173c.047.409.091.83.138,1.234q.277,2.49.553,5.049c.382,3.419.775,6.944,1.176,10.54.064.553.124,1.107.18,1.6v.072h-.072l-1.107.116h-.072V100.8c-.437-3.912-.86-7.721-1.27-11.4q-.307-2.766-.6-5.405c-.047-.44-.1-.88-.144-1.317a3.194,3.194,0,0,0-.1-.631.993.993,0,0,0-.371-.473.943.943,0,0,0-.578-.163H128.017a2.142,2.142,0,0,0-.5.025.965.965,0,0,0-.426.227,1.051,1.051,0,0,0-.277.4,2.085,2.085,0,0,0-.086.481q-.124,1-.241,1.936l-1.491,11.967c-.177,1.4-.315,2.49-.407,3.234l-.108.83C124.465,100.691,124.448,100.782,124.448,100.782Z" transform="translate(626.615 1387.999)" fill="#263238"/>
    <path id="Trazado_1398" data-name="Trazado 1398" d="M143.841,80.953a.276.276,0,0,1,0,.08.66.66,0,0,1,0,.246,1.2,1.2,0,0,1-.553.752,7.772,7.772,0,0,1-3.295.968,56.167,56.167,0,0,1-11.342-.105,4.031,4.031,0,0,1-1.6-.434,2.15,2.15,0,0,1-.965-1.286,7.283,7.283,0,0,1-.257-1.53c-.047-.5-.091-.99-.136-1.469-.166-1.917-.26-3.646-.315-5.1s-.064-2.631-.066-3.444V68.452a.278.278,0,0,1,0-.083.317.317,0,0,1,0,.083V68.7c0,.224,0,.537.019.935.017.813.044,1.989.111,3.441s.174,3.178.343,5.09l.141,1.469a7.551,7.551,0,0,0,.254,1.5,2.014,2.014,0,0,0,.9,1.2,3.914,3.914,0,0,0,1.546.415,58.342,58.342,0,0,0,11.325.147,7.937,7.937,0,0,0,3.272-.91,1.192,1.192,0,0,0,.553-.714.859.859,0,0,0,.028-.238A.277.277,0,0,1,143.841,80.953Z" transform="translate(627.265 1383.983)" fill="#263238"/>
    <path id="Trazado_1399" data-name="Trazado 1399" d="M136.6,50.306a1.986,1.986,0,0,1,2.349.169,1.09,1.09,0,0,1,1.358.65l1.472.52a1.585,1.585,0,0,1,.689.385.553.553,0,0,1,.039.722.83.83,0,0,1,.183,1.355.581.581,0,0,1-.188.83,5.721,5.721,0,0,1,.761,1.806,1.165,1.165,0,0,1-.022.805.47.47,0,0,1-.686.191.675.675,0,0,1-.061.728c.257.039.277.443.083.606a.929.929,0,0,1-.741.111,1.239,1.239,0,0,0-.758.033.232.232,0,0,0,.064.174,1.06,1.06,0,0,1,.055,1.461l-.1.108a2.337,2.337,0,0,1-.808.429,3.979,3.979,0,0,1-1.61.141c.125.437-1.04,1.228-2.127.174-4.374,1.936-5.167-.277-5.167-.277a1.762,1.762,0,0,1-2.432-.147.877.877,0,0,1-.775-.365,2.631,2.631,0,0,1-.382-.805,1.555,1.555,0,0,1-.935-1.53,1.914,1.914,0,0,1-.553-1.444,1.126,1.126,0,0,1-.454-1.588,6.815,6.815,0,0,1,1-2.008.75.75,0,0,1-.277-1.062,2.125,2.125,0,0,1,.99-.736c-.313.042-.528-.373-.418-.669a1.212,1.212,0,0,1,.7-.6,5.859,5.859,0,0,1,1.325-.4,2.755,2.755,0,0,1,1.5-1.214c2.136-.7,3.577-.766,5.912,1.438" transform="translate(627.394 1377.207)" fill="#263238"/>
    <path id="Trazado_1400" data-name="Trazado 1400" d="M139.941,57.443a.444.444,0,0,0,.113,0,.739.739,0,0,0,.313-.086.77.77,0,0,0,.351-.376.808.808,0,0,0-.025-.681,2.044,2.044,0,0,0-.235-.318.951.951,0,0,1-.219-.368.614.614,0,0,1,.083-.445c.072-.144.174-.277.249-.44a1.383,1.383,0,0,0-.8-1.895v.033a.69.69,0,0,0,.163-.29.87.87,0,0,0,.025-.338.987.987,0,0,0-.1-.329,1.2,1.2,0,0,0-.208-.277,2.185,2.185,0,0,0-.874-.5,3.319,3.319,0,0,0-.941-.166l.019.022a1,1,0,0,0-.451-.941,1.032,1.032,0,0,0-.481-.163,1.676,1.676,0,0,0-.476.061,1.061,1.061,0,0,1-.224.022.553.553,0,0,1-.21-.053,1.768,1.768,0,0,1-.349-.23,1.426,1.426,0,0,0-.332-.21,1.192,1.192,0,0,0-.351-.1,1.178,1.178,0,0,0-.606.083,1.268,1.268,0,0,0-.382.249,1.334,1.334,0,0,0-.18.224.959.959,0,0,0-.047.086.777.777,0,0,0,.053-.083,1.273,1.273,0,0,1,.553-.459,1.231,1.231,0,0,1,.935.022,1.383,1.383,0,0,1,.326.21,1.789,1.789,0,0,0,.354.235.606.606,0,0,0,.221.055.944.944,0,0,0,.232-.019,1.56,1.56,0,0,1,.467-.058.988.988,0,0,1,.465.155.971.971,0,0,1,.429.9V51h.022a3.257,3.257,0,0,1,.929.166,2.127,2.127,0,0,1,.858.487,1.166,1.166,0,0,1,.2.277.991.991,0,0,1,.094.315.831.831,0,0,1-.022.321.653.653,0,0,1-.152.277l-.022.022h.03a1.355,1.355,0,0,1,.786,1.84c-.072.158-.174.293-.249.44a.658.658,0,0,0-.08.47.953.953,0,0,0,.227.379,2.069,2.069,0,0,1,.241.321.769.769,0,0,1,.03.658.739.739,0,0,1-.34.371.831.831,0,0,1-.3.094C139.98,57.446,139.941,57.441,139.941,57.443Z" transform="translate(630.138 1377.53)" fill="#263238"/>
    <path id="Trazado_1401" data-name="Trazado 1401" d="M127.479,51.644v-.025a.151.151,0,0,1,.017-.077c.017-.03.039-.174.069-.3s.072-.277.133-.467a2.816,2.816,0,0,1,.277-.584,1.868,1.868,0,0,1,.531-.553,1.422,1.422,0,0,1,.39-.174,3.851,3.851,0,0,1,.456-.066,1.316,1.316,0,0,0,.467-.138,1.908,1.908,0,0,0,.407-.31c.127-.116.249-.241.387-.351a1.461,1.461,0,0,1,.465-.255,2.539,2.539,0,0,1,1.046-.083,7,7,0,0,1,.974.172,5.072,5.072,0,0,1,1.533.656,3.674,3.674,0,0,1,.83.752c.041.055.08.1.108.141l.072.108.047.066.017.022-.014-.025-.042-.066-.069-.111c-.028-.044-.066-.091-.105-.144a3.533,3.533,0,0,0-.83-.769,5.1,5.1,0,0,0-1.541-.669,6.552,6.552,0,0,0-.979-.174,2.587,2.587,0,0,0-1.062.083,1.427,1.427,0,0,0-.476.263,4.081,4.081,0,0,0-.39.354,2.084,2.084,0,0,1-.4.3,1.206,1.206,0,0,1-.454.133,3.975,3.975,0,0,0-.459.072,1.383,1.383,0,0,0-.4.18,1.834,1.834,0,0,0-.537.573,2.766,2.766,0,0,0-.277.589c-.058.183-.094.34-.124.473s-.047.232-.061.3a.115.115,0,0,0,0,.077A.231.231,0,0,0,127.479,51.644Z" transform="translate(628.003 1377.131)" fill="#263238"/>
    <path id="Trazado_1402" data-name="Trazado 1402" d="M128.743,58.956a.531.531,0,0,1-.136-.058,1.044,1.044,0,0,1-.307-.277,1.275,1.275,0,0,1-.23-.625,1.136,1.136,0,0,1,.252-.852v.077a1.206,1.206,0,0,1,.055-2.213l-.028.1a1.66,1.66,0,0,1-.277-1.325,1.607,1.607,0,0,1,.918-1.107,1.626,1.626,0,0,1,.711-.149l-.075.089a1.7,1.7,0,0,1,2.465-1.859l-.08.03a1.682,1.682,0,0,1,.916-.916,1.626,1.626,0,0,1,1.563.194,1.35,1.35,0,0,1,.127.108c.025.028.039.042.036.044a1.936,1.936,0,0,0-.752-.351,1.538,1.538,0,0,0-.938.091,1.61,1.61,0,0,0-.844.871l-.025.061-.055-.03a1.632,1.632,0,0,0-1.591.08,1.6,1.6,0,0,0-.68,1.646l.019.089H129.7a1.513,1.513,0,0,0-.647.136,1.466,1.466,0,0,0-.83,1.01,1.53,1.53,0,0,0,.241,1.214l.05.069-.08.033a1.107,1.107,0,0,0-.686,1.073,1.132,1.132,0,0,0,.625.929l.058.028-.041.05a1.062,1.062,0,0,0-.249.777,1.242,1.242,0,0,0,.2.6A1.294,1.294,0,0,0,128.743,58.956Z" transform="translate(628.052 1377.661)" fill="#455a64"/>
    <path id="Trazado_1403" data-name="Trazado 1403" d="M131.8,59.033a.782.782,0,0,1-.177-.172,1.854,1.854,0,0,1-.337-.606,1.92,1.92,0,0,1-.047-1.062,2,2,0,0,1,.753-1.129l-.017.091a2.31,2.31,0,0,1-.3-1.87,2.285,2.285,0,0,1,1.69-1.607l-.044.086a1.937,1.937,0,0,1-.091-1.17,1.868,1.868,0,0,1,.426-.8,1.768,1.768,0,0,1,.459-.368.536.536,0,0,1,.191-.077,2.566,2.566,0,0,0-.592.5,1.8,1.8,0,0,0-.379.777,1.82,1.82,0,0,0,.105,1.107l.03.072-.075.017a2.149,2.149,0,0,0-1.3,3.278l.036.053-.053.039a1.9,1.9,0,0,0-.722,1.048,1.873,1.873,0,0,0,.014,1.01A2.526,2.526,0,0,0,131.8,59.033Z" transform="translate(629.261 1377.861)" fill="#455a64"/>
    <path id="Trazado_1404" data-name="Trazado 1404" d="M136.785,58.656a1.259,1.259,0,0,0,.354-.473.932.932,0,0,0,.017-.658.965.965,0,0,0-.592-.592l-.08-.028.055-.066a2.315,2.315,0,0,0,.484-1.2,2.152,2.152,0,0,0-.34-1.416,2.291,2.291,0,0,0-1.267-.949l-.072-.019.025-.069a2.05,2.05,0,0,0,.022-1.317,2.02,2.02,0,0,0-.57-.88,2.686,2.686,0,0,0-.83-.479.72.72,0,0,1,.252.058,2.034,2.034,0,0,1,.625.357,2.1,2.1,0,0,1,.625.907,2.147,2.147,0,0,1,0,1.4l-.044-.089a2.385,2.385,0,0,1,1.353,1,2.271,2.271,0,0,1,.354,1.508,2.368,2.368,0,0,1-.528,1.259l-.028-.094a1.068,1.068,0,0,1,.645.675,1,1,0,0,1-.044.714.966.966,0,0,1-.277.365A.374.374,0,0,1,136.785,58.656Z" transform="translate(630.215 1377.917)" fill="#455a64"/>
    <path id="Trazado_1405" data-name="Trazado 1405" d="M111.116,61.534l-5.829.573-.022-4.979s-.418-.039-.681-2.169-.766-5.743-.766-5.743h0a7.95,7.95,0,0,1,7.82.083l.354.2Z" transform="translate(619.966 1377.142)" fill="#ffbf9d"/>
    <path id="Trazado_1406" data-name="Trazado 1406" d="M109.621,51.243c.036-.022,1.469-.6,1.582.86s-1.43,1.284-1.436,1.242S109.621,51.243,109.621,51.243Z" transform="translate(621.937 1378.121)" fill="#ffbf9d"/>
    <path id="Trazado_1407" data-name="Trazado 1407" d="M104.614,51.567a1,1,0,0,0-1.217,1.242,1.144,1.144,0,0,0,1.676.9C105.07,53.664,104.614,51.567,104.614,51.567Z" transform="translate(619.815 1378.272)" fill="#ffbf9d"/>
    <path id="Trazado_1408" data-name="Trazado 1408" d="M112.138,52.079c-.089,1.248.028,1.884-.091,2.725a4.34,4.34,0,0,1-1.878,3.17,3.586,3.586,0,0,1-3.9.185,3.38,3.38,0,0,1-1.58-2.069c-.2-.9-.5-2.52-.6-3.441-.2-1.66-.49-3.245-.49-3.245L108.431,48l2.982,1.3Z" transform="translate(619.891 1377.064)" fill="#263238"/>
    <path id="Trazado_1409" data-name="Trazado 1409" d="M106.7,56.294a1.621,1.621,0,0,0,.871-.022,1.643,1.643,0,0,0,.8-.343c-.017-.036-.371.113-.83.213A6.671,6.671,0,0,0,106.7,56.294Z" transform="translate(620.946 1379.756)" fill="#263238"/>
    <path id="Trazado_1410" data-name="Trazado 1410" d="M112.3,54.689c0-1.27-.061-2.711,0-4.055a8.243,8.243,0,0,0,.022-1.732,3.99,3.99,0,0,0-.487-1.43,2.163,2.163,0,0,0-1.618-.952,2.238,2.238,0,0,0-1.776.672,1.688,1.688,0,0,0-1.765-.459,1.624,1.624,0,0,0-1.082,1.436,1.181,1.181,0,0,0-1.358,0,1.09,1.09,0,0,0-.354,1.27,1.106,1.106,0,0,0-.75.7,1.048,1.048,0,0,0,.194.985c.277.313.7.456.985.75a1.187,1.187,0,0,1,.221,1.308" transform="translate(619.718 1376.559)" fill="#263238"/>
    <path id="Trazado_1411" data-name="Trazado 1411" d="M104.484,50.1a.231.231,0,0,0,.069.13,1.015,1.015,0,0,0,.321.277,1.046,1.046,0,0,0,.661.124,1.107,1.107,0,0,0,.752-.445h-.108a1,1,0,0,0,.739.656,1.228,1.228,0,0,0,1.106-.257,1.624,1.624,0,0,0,.537-.86l-.119.025a1.414,1.414,0,0,0,1.181.467,1.317,1.317,0,0,0,.9-.473,1.25,1.25,0,0,0,.277-.595.531.531,0,0,0,0-.235,2.178,2.178,0,0,0-.05.224,1.326,1.326,0,0,1-.3.553,1.25,1.25,0,0,1-.83.415,1.311,1.311,0,0,1-1.068-.437l-.083-.1-.033.127a1.516,1.516,0,0,1-.5.788,1.107,1.107,0,0,1-.971.235.891.891,0,0,1-.658-.553l-.036-.119-.072.1a1.029,1.029,0,0,1-.667.415,1.007,1.007,0,0,1-.614-.091,1.384,1.384,0,0,1-.437-.371Z" transform="translate(620.192 1377.376)" fill="#455a64"/>
    <path id="Trazado_1412" data-name="Trazado 1412" d="M104.454,49.979a1.256,1.256,0,0,1,.152-.553.919.919,0,0,1,.479-.4.979.979,0,0,1,.769.058l.127.069-.028-.141a1.107,1.107,0,0,1,0-.426,1.17,1.17,0,0,1,.531-.747,1.209,1.209,0,0,1,.761-.152,1.6,1.6,0,0,1,.681.277.561.561,0,0,0-.141-.149,1.189,1.189,0,0,0-.523-.221,1.231,1.231,0,0,0-1.444.965,1.162,1.162,0,0,0,0,.479l.1-.072a1.087,1.087,0,0,0-.877-.05.99.99,0,0,0-.517.462.921.921,0,0,0-.105.437C104.426,49.927,104.445,49.982,104.454,49.979Z" transform="translate(620.169 1376.919)" fill="#455a64"/>
    <path id="Trazado_1413" data-name="Trazado 1413" d="M106.825,49.444c.019,0,0-.083-.017-.2a.946.946,0,0,1,.105-.448,4.505,4.505,0,0,1,.243-.418c.066-.083.144-.039.155-.047s0-.033-.042-.055a.172.172,0,0,0-.183.036,1.136,1.136,0,0,0-.152.185,1.658,1.658,0,0,0-.147.243.769.769,0,0,0-.077.517C106.745,49.389,106.811,49.444,106.825,49.444Z" transform="translate(620.944 1377.153)" fill="#455a64"/>
    <path id="Trazado_1414" data-name="Trazado 1414" d="M109.19,47.664c.014,0,0-.113-.122-.257a.713.713,0,0,0-.252-.2.6.6,0,0,0-.409-.042.979.979,0,0,0-.553.429c-.094.147-.133.246-.119.255s.089-.072.2-.2a1.065,1.065,0,0,1,.512-.354.6.6,0,0,1,.553.177C109.118,47.583,109.19,47.675,109.19,47.664Z" transform="translate(621.295 1376.774)" fill="#455a64"/>
    <path id="Trazado_1415" data-name="Trazado 1415" d="M108.764,52.733a2.373,2.373,0,0,0,.418-.988,2.316,2.316,0,0,0,.066-1.065c-.042,0-.066.473-.2,1.035S108.725,52.717,108.764,52.733Z" transform="translate(621.644 1377.975)" fill="#455a64"/>
    <path id="Trazado_1416" data-name="Trazado 1416" d="M108.3,52.9a1.774,1.774,0,0,0,.277-.705,1.683,1.683,0,0,0,.1-.75,2.7,2.7,0,0,0-.232.719A2.641,2.641,0,0,0,108.3,52.9Z" transform="translate(621.487 1378.233)" fill="#455a64"/>
    <path id="Trazado_1417" data-name="Trazado 1417" d="M105.207,52.946a2.238,2.238,0,0,0,.313,1.261,2.326,2.326,0,0,0,.869.988,7.865,7.865,0,0,1-.744-1.048A8.08,8.08,0,0,1,105.207,52.946Z" transform="translate(620.437 1378.744)" fill="#455a64"/>
    <path id="Trazado_1418" data-name="Trazado 1418" d="M104.644,52.207a1.818,1.818,0,0,0,.033,1.165,1.856,1.856,0,0,0,.625.99,6.644,6.644,0,0,1-.492-1.029A6.283,6.283,0,0,1,104.644,52.207Z" transform="translate(620.219 1378.493)" fill="#455a64"/>
    <path id="Trazado_1419" data-name="Trazado 1419" d="M103.885,93.607l-2.3-5.112,3.842-1.588,1.934,5.394L105.9,93.7Z" transform="translate(619.206 1390.28)" fill="#ffbf9d"/>
    <path id="Trazado_1420" data-name="Trazado 1420" d="M105.122,91.717l-1.488.523s-1.491,2.736-1.295,3.82a2.431,2.431,0,0,0,.313.761l3.441-1.306,2.49-1.024-1.472-3.557Z" transform="translate(619.457 1391.648)" fill="#455a64"/>
    <rect id="Rectángulo_107" data-name="Rectángulo 107" width="6.396" height="0.667" transform="translate(721.864 1487.975) rotate(-22.45)" fill="#fff"/>
    <path id="Trazado_1421" data-name="Trazado 1421" d="M103.6,92.026c.041,0,.136.667.326,1.477s.4,1.455.362,1.472a5.184,5.184,0,0,1-.5-1.438A4.918,4.918,0,0,1,103.6,92.026Z" transform="translate(619.891 1392.019)" fill="#263238"/>
    <path id="Trazado_1422" data-name="Trazado 1422" d="M107.355,93.266a3.156,3.156,0,0,0-.553-.432,1.754,1.754,0,0,0-.7-.224,1.707,1.707,0,0,0-1.552.728,1.813,1.813,0,0,0-.277.68,3.153,3.153,0,0,0,0,.692.628.628,0,0,1-.066-.18,1.594,1.594,0,0,1-.025-.526,1.728,1.728,0,0,1,2.678-1.25,1.579,1.579,0,0,1,.39.354A.354.354,0,0,1,107.355,93.266Z" transform="translate(620.087 1392.169)" fill="#263238"/>
    <path id="Trazado_1423" data-name="Trazado 1423" d="M99.6,74.817s-2.462,1.87-2.692,3.552a9.887,9.887,0,0,0,.393,3.845c.277.716,4.979,12.219,4.979,12.219l5.408-2.371-3.663-10.83Z" transform="translate(617.604 1386.174)" fill="#263238"/>
    <path id="Trazado_1424" data-name="Trazado 1424" d="M113.52,93.575l1.867-5.289-3.967-1.259-1.469,5.538,1.569,1.267Z" transform="translate(622.049 1390.321)" fill="#ffbf9d"/>
    <path id="Trazado_1425" data-name="Trazado 1425" d="M112.289,91.775l1.527.4s1.715,2.6,1.613,3.7a2.445,2.445,0,0,1-.252.786l-3.538-1.012-2.559-.808,1.167-3.671Z" transform="translate(621.753 1391.725)" fill="#455a64"/>
    <rect id="Rectángulo_108" data-name="Rectángulo 108" width="6.396" height="0.667" transform="translate(736.936 1488.488) rotate(-162.37)" fill="#fff"/>
    <path id="Trazado_1426" data-name="Trazado 1426" d="M112.443,92.057a4.91,4.91,0,0,1-.058,1.521A4.993,4.993,0,0,1,112,95.053c-.039,0,.119-.672.238-1.5S112.4,92.054,112.443,92.057Z" transform="translate(622.744 1392.03)" fill="#263238"/>
    <path id="Trazado_1427" data-name="Trazado 1427" d="M109.473,93.567a.653.653,0,0,1,.083-.174,1.659,1.659,0,0,1,.357-.384,1.82,1.82,0,0,1,.714-.329,1.77,1.77,0,0,1,1.735.645,1.721,1.721,0,0,1,.326.714,1.6,1.6,0,0,1,.022.526.416.416,0,0,1-.05.185,3.43,3.43,0,0,0-.072-.689,1.793,1.793,0,0,0-.329-.653,1.679,1.679,0,0,0-.725-.515,1.66,1.66,0,0,0-.882-.08,1.726,1.726,0,0,0-.678.277,3.316,3.316,0,0,0-.5.479Z" transform="translate(621.886 1392.23)" fill="#263238"/>
    <path id="Trazado_1428" data-name="Trazado 1428" d="M110.173,92.1l3.264-12.144,3.015-5.649s3.109,1.853,3.618,3.9c.3,1.2-2.4,9.851-2.4,9.851L115.8,93.91Z" transform="translate(622.124 1386)" fill="#263238"/>
    <path id="Trazado_1429" data-name="Trazado 1429" d="M119.5,60.573a17.126,17.126,0,0,0-6.719-3.743h-6.2l-4.9,2.49s-2.8,1.322-2.8,5.416.2,9.914.669,10.919a4.9,4.9,0,0,0,.979,1.45c-.16,2.47-.277,4.343-.321,4.849l18.958.426,1.474-18.637A4.454,4.454,0,0,0,119.5,60.573Z" transform="translate(618.284 1380.064)" fill="#407bff"/>
    <path id="Trazado_1430" data-name="Trazado 1430" d="M101.361,69.333c-.041,0-.232-1.64-.429-3.674s-.326-3.682-.277-3.688.232,1.64.429,3.674S101.4,69.33,101.361,69.333Z" transform="translate(618.888 1381.81)"/>
    <path id="Trazado_1431" data-name="Trazado 1431" d="M112.9,69.618c-.039,0,.044-1.74.191-3.873s.293-3.873.332-3.873-.044,1.74-.188,3.873S112.943,69.621,112.9,69.618Z" transform="translate(623.049 1381.776)"/>
    <path id="Trazado_1432" data-name="Trazado 1432" d="M102.753,84.44a3.718,3.718,0,0,1-3.729-3.6c-.105-3.776-.108-9.621-.1-12.158a1.245,1.245,0,0,1,1.245-1.242h19.4a1.245,1.245,0,0,1,1.245,1.275c-.064,2.631-.21,8.733-.3,12.518a3.289,3.289,0,0,1-3.292,3.212Z" transform="translate(618.302 1383.669)" fill="#455a64"/>
    <path id="Trazado_1433" data-name="Trazado 1433" d="M98.776,100.82l-1.107-.133L99.955,82a2.163,2.163,0,0,1,2.133-1.923h16.357A2.166,2.166,0,0,1,120.577,82c.553,4.426,2.072,18.556,2.086,18.7l-1.107.122c0-.144-1.538-14.274-2.083-18.681a1.051,1.051,0,0,0-1.026-.938H102.076a1.051,1.051,0,0,0-1.026.943Z" transform="translate(617.877 1387.962)" fill="#e0e0e0"/>
    <path id="Trazado_1434" data-name="Trazado 1434" d="M98.78,100.821a2.12,2.12,0,0,1,.03-.293c.03-.194.055-.481.1-.855.089-.752.219-1.856.387-3.278.34-2.844.83-6.957,1.447-12.056.077-.639.155-1.289.235-1.956a2.472,2.472,0,0,1,.094-.512,1.137,1.137,0,0,1,.3-.443,1.062,1.062,0,0,1,.476-.254,2.334,2.334,0,0,1,.534-.03h16a1.107,1.107,0,0,1,.658.188,1.123,1.123,0,0,1,.423.553,3,3,0,0,1,.111.667q.075.658.149,1.328.3,2.672.611,5.452c.412,3.707.844,7.552,1.284,11.5l-.08-.064,1.107-.119-.064.077c-.058-.509-.119-1.059-.183-1.613-.4-3.629-.8-7.192-1.184-10.631q-.277-2.587-.553-5.093c-.044-.415-.091-.83-.138-1.245a2.166,2.166,0,0,0-.412-1.107,2.1,2.1,0,0,0-.932-.716,2.065,2.065,0,0,0-.575-.13h-16.72a2.069,2.069,0,0,0-.47.1,2.034,2.034,0,0,0-.8.5,2.1,2.1,0,0,0-.5.786,4.052,4.052,0,0,0-.169.916q-.116.929-.224,1.823-.219,1.784-.423,3.414c-.277,2.172-.512,4.127-.722,5.842-.432,3.422-.739,5.881-.9,7.156v-.014l.83.108.277.039-.277-.025-.844-.1h0v-.014c.152-1.278.445-3.737.852-7.162.207-1.715.443-3.674.705-5.845q.194-1.629.412-3.416.108-.894.221-1.82a4.19,4.19,0,0,1,.172-.941,2.213,2.213,0,0,1,.523-.83,2.241,2.241,0,0,1,1.342-.639h16.731a2.379,2.379,0,0,1,.614.138,2.243,2.243,0,0,1,.993.761,2.329,2.329,0,0,1,.44,1.184c.047.412.091.83.138,1.245q.277,2.506.57,5.093c.385,3.45.783,7,1.187,10.634.064.553.124,1.107.18,1.613v.069h-.072l-1.107.119h-.072v-.072c-.437-3.945-.866-7.79-1.278-11.5q-.31-2.78-.609-5.452c-.05-.445-.1-.888-.147-1.328a3.041,3.041,0,0,0-.1-.636.991.991,0,0,0-.376-.479.952.952,0,0,0-.581-.166h-16a2.188,2.188,0,0,0-.509.028.976.976,0,0,0-.429.227,1.015,1.015,0,0,0-.277.4,2.083,2.083,0,0,0-.089.484l-.243,1.964c-.636,5.1-1.148,9.226-1.5,12.072-.18,1.416-.318,2.515-.412,3.264l-.108.83A.979.979,0,0,0,98.78,100.821Z" transform="translate(617.873 1387.96)" fill="#263238"/>
    <path id="Trazado_1435" data-name="Trazado 1435" d="M118.325,80.824a.324.324,0,0,1,0,.083.723.723,0,0,1-.014.246,1.209,1.209,0,0,1-.553.761,7.854,7.854,0,0,1-3.32.974,56.441,56.441,0,0,1-11.453-.105,4.086,4.086,0,0,1-1.616-.437,2.191,2.191,0,0,1-.977-1.3,7.6,7.6,0,0,1-.257-1.544c-.047-.5-.094-1-.138-1.483-.166-1.936-.277-3.679-.315-5.145s-.066-2.653-.069-3.472v-1.19a.536.536,0,0,1,0-.086.356.356,0,0,1,0,.086v.243c0,.227,0,.553.019.946.017.83.044,2.006.113,3.469s.172,3.206.346,5.137c.047.481.094.977.141,1.48a7.489,7.489,0,0,0,.257,1.516,2.028,2.028,0,0,0,.913,1.214,3.923,3.923,0,0,0,1.557.418,58.988,58.988,0,0,0,11.428.149,8,8,0,0,0,3.3-.921,1.2,1.2,0,0,0,.553-.719.754.754,0,0,0,.025-.241.321.321,0,0,1,.058-.083Z" transform="translate(618.537 1383.902)" fill="#263238"/>
    <path id="Trazado_1436" data-name="Trazado 1436" d="M80.663,74.281l.083,4.639s-4.686,1.64-4.755,2.49l9,.163.169-7.228Z" transform="translate(610.513 1385.991)" fill="#263238"/>
    <path id="Trazado_1437" data-name="Trazado 1437" d="M81.732,77.492a.365.365,0,0,1,.246.423.354.354,0,0,1-.418.249.387.387,0,0,1-.257-.451.368.368,0,0,1,.462-.21" transform="translate(612.315 1387.079)" fill="#e0e0e0"/>
    <path id="Trazado_1438" data-name="Trazado 1438" d="M84.99,79.917l-.014-.73-8.623.116s-.4.166-.362.448Z" transform="translate(610.512 1387.658)" fill="#455a64"/>
    <path id="Trazado_1439" data-name="Trazado 1439" d="M79.43,77.715c0,.044.221.069.434.213s.326.332.365.315-.019-.277-.277-.443S79.422,77.676,79.43,77.715Z" transform="translate(611.682 1387.146)" fill="#fff"/>
    <path id="Trazado_1440" data-name="Trazado 1440" d="M78.722,77.989c0,.041.177.122.324.31s.185.385.23.385.075-.249-.111-.481S78.722,77.948,78.722,77.989Z" transform="translate(611.441 1387.246)" fill="#fff"/>
    <path id="Trazado_1441" data-name="Trazado 1441" d="M78.39,79.015c.042,0,.105-.207,0-.451s-.313-.343-.332-.307.105.169.194.368S78.348,79.01,78.39,79.015Z" transform="translate(611.214 1387.34)" fill="#fff"/>
    <path id="Trazado_1442" data-name="Trazado 1442" d="M79.5,76.955c.017.041.221-.017.467,0s.44.105.465.066-.16-.2-.454-.219A.538.538,0,0,0,79.5,76.955Z" transform="translate(611.705 1386.847)" fill="#fff"/>
    <path id="Trazado_1443" data-name="Trazado 1443" d="M87.776,74.07l.49,5.591-.891,4.531a.573.573,0,0,0,.492.68h0a.553.553,0,0,0,.5-.18c.8-.874,3.735-4.105,3.676-4.512-.066-.473-.122-5.931-.122-5.931Z" transform="translate(614.377 1385.92)" fill="#263238"/>
    <path id="Trazado_1444" data-name="Trazado 1444" d="M87.74,83.419l4.149-5.071.017.238a.866.866,0,0,1-.169.573c-.329.44-1.264,1.638-3.483,4.08a.575.575,0,0,1-.512.18Z" transform="translate(614.504 1387.373)" fill="#455a64"/>
    <path id="Trazado_1445" data-name="Trazado 1445" d="M89.923,77.072a.349.349,0,0,0-.066.459.338.338,0,0,0,.456.069.365.365,0,0,0,.066-.487.346.346,0,0,0-.481-.019" transform="translate(615.203 1386.917)" fill="#fff"/>
    <path id="Trazado_1446" data-name="Trazado 1446" d="M88.882,80.395a1.735,1.735,0,0,0-.52-.4,1.809,1.809,0,0,0-.653-.083.4.4,0,0,1,.194-.086.89.89,0,0,1,.506.055.874.874,0,0,1,.4.318A.377.377,0,0,1,88.882,80.395Z" transform="translate(614.494 1387.869)" fill="#fff"/>
    <path id="Trazado_1447" data-name="Trazado 1447" d="M88.586,80.916a5.008,5.008,0,0,0-.512-.207,4.953,4.953,0,0,0-.553-.036.631.631,0,0,1,.578-.083C88.439,80.664,88.613,80.9,88.586,80.916Z" transform="translate(614.43 1388.122)" fill="#fff"/>
    <path id="Trazado_1448" data-name="Trazado 1448" d="M89.491,79.646a5.966,5.966,0,0,0-.769-.373,5.278,5.278,0,0,0-.83-.141,1.273,1.273,0,0,1,.88.022A1.292,1.292,0,0,1,89.491,79.646Z" transform="translate(614.556 1387.616)" fill="#fff"/>
    <path id="Trazado_1449" data-name="Trazado 1449" d="M89.453,78.264c-.014.033-.332-.075-.736-.064s-.716.127-.73.094A1.425,1.425,0,0,1,89.453,78.264Z" transform="translate(614.588 1387.281)" fill="#fff"/>
    <path id="Trazado_1450" data-name="Trazado 1450" d="M89.376,77.042a2.808,2.808,0,0,0-.763-.086,2.677,2.677,0,0,0-.73.235.55.55,0,0,1,.172-.169,1.256,1.256,0,0,1,1.12-.111C89.323,76.967,89.4,77.031,89.376,77.042Z" transform="translate(614.552 1386.857)" fill="#fff"/>
    <path id="Trazado_1451" data-name="Trazado 1451" d="M88.661,76.976a.473.473,0,0,1-.022-.213,1.457,1.457,0,0,1,.133-.553.655.655,0,0,1,.26-.329.227.227,0,0,1,.277.033.373.373,0,0,1,.105.249.811.811,0,0,1-.661.794.946.946,0,0,1-.957-.432.34.34,0,0,1-.033-.277.23.23,0,0,1,.23-.136.811.811,0,0,1,.382.169,1.706,1.706,0,0,1,.409.409.553.553,0,0,1,.1.188,2.692,2.692,0,0,0-.553-.526.758.758,0,0,0-.335-.138.119.119,0,0,0-.124.072.224.224,0,0,0,.03.177.83.83,0,0,0,.83.365.7.7,0,0,0,.573-.667.254.254,0,0,0-.066-.174.122.122,0,0,0-.144-.022.591.591,0,0,0-.224.277A2.162,2.162,0,0,0,88.661,76.976Z" transform="translate(614.506 1386.524)" fill="#fff"/>
    <path id="Trazado_1452" data-name="Trazado 1452" d="M76.337,45.692a19.981,19.981,0,0,0-.434,5.859c.1,1.245,4.3,35.7,4.3,35.7h5.674l-1.6-32.383.465.1s3.1,13.809,3.35,16.045c.23,2.011,2.841,16.6,2.841,16.6l5.187.058-1.66-19.312L92.526,49.825,91.8,44.447Z" transform="translate(610.465 1375.857)" fill="#455a64"/>
    <path id="Trazado_1453" data-name="Trazado 1453" d="M83.552,50.925a1.075,1.075,0,0,1-.238.133,2.68,2.68,0,0,1-.7.246,1.433,1.433,0,0,1-.523,0,1.076,1.076,0,0,1-.553-.277,1.3,1.3,0,0,1-.332-.581c-.066-.219-.105-.448-.152-.681-.18-.935-.3-1.79-.376-2.409-.036-.31-.058-.553-.072-.733a1.2,1.2,0,0,1,0-.277,1.264,1.264,0,0,1,.053.277c.03.2.066.44.111.728.091.617.227,1.466.409,2.4a2.253,2.253,0,0,0,.44,1.206,1.178,1.178,0,0,0,.979.255,3.117,3.117,0,0,0,.7-.2A1.355,1.355,0,0,1,83.552,50.925Z" transform="translate(612.077 1376.503)" fill="#263238"/>
    <path id="Trazado_1454" data-name="Trazado 1454" d="M81.639,46.492a.211.211,0,0,1,.116-.036.512.512,0,0,1,.315.1.553.553,0,0,1,.241.437.534.534,0,0,1-.36.49.528.528,0,0,1-.592-.13.553.553,0,0,1-.108-.487.5.5,0,0,1,.172-.277c.064-.05.108-.055.111-.05a.609.609,0,0,0-.2.351.489.489,0,0,0,.108.4.459.459,0,0,0,.764-.277.5.5,0,0,0-.183-.371A.639.639,0,0,0,81.639,46.492Z" transform="translate(612.295 1376.539)" fill="#263238"/>
    <path id="Trazado_1455" data-name="Trazado 1455" d="M89.361,48.7a.606.606,0,0,1-.194.03,3.56,3.56,0,0,1-.531,0,5.151,5.151,0,0,1-3.187-1.342A3.354,3.354,0,0,1,85.082,47a.674.674,0,0,1-.113-.16c.017-.014.2.2.537.481a5.715,5.715,0,0,0,3.137,1.32C89.082,48.691,89.359,48.674,89.361,48.7Z" transform="translate(613.563 1376.67)" fill="#263238"/>
    <path id="Trazado_1456" data-name="Trazado 1456" d="M79.034,46.421a2.338,2.338,0,0,1-.293.578,6.522,6.522,0,0,1-.985,1.22,6.61,6.61,0,0,1-1.248.952,2.387,2.387,0,0,1-.586.277,6.09,6.09,0,0,1,.553-.349,8.431,8.431,0,0,0,1.2-.965,8.058,8.058,0,0,0,1-1.181C78.9,46.626,79.018,46.413,79.034,46.421Z" transform="translate(610.49 1376.528)" fill="#263238"/>
    <path id="Trazado_1457" data-name="Trazado 1457" d="M81.921,16.975l.224-.014a4.387,4.387,0,0,1,4.595,3.773c.29,2.105.586,4.426.639,5.566a2.821,2.821,0,0,1-2.213,2.852l.083.954a2.858,2.858,0,0,1-2.611,3.1h0a2.855,2.855,0,0,1-3.079-2.573l-.83-8.719C78.366,19.484,79.484,17.257,81.921,16.975Z" transform="translate(611.42 1366.518)" fill="#ffbf9d"/>
    <path id="Trazado_1458" data-name="Trazado 1458" d="M84.318,26.238a5.7,5.7,0,0,1-3.129-.722,2.888,2.888,0,0,0,3.151,1.3Z" transform="translate(612.279 1369.426)" fill="#ff9a6c"/>
    <path id="Trazado_1459" data-name="Trazado 1459" d="M84.37,21.476a.335.335,0,0,1-.3.357.321.321,0,0,1-.362-.277.335.335,0,0,1,.3-.357.321.321,0,0,1,.362.277Z" transform="translate(613.132 1367.959)" fill="#263238"/>
    <path id="Trazado_1460" data-name="Trazado 1460" d="M84.7,20.729c-.039.044-.3-.127-.664-.105s-.614.216-.656.174.017-.1.127-.191a.918.918,0,0,1,.523-.194.893.893,0,0,1,.531.138C84.679,20.638,84.721,20.729,84.7,20.729Z" transform="translate(613.019 1367.693)" fill="#263238"/>
    <path id="Trazado_1461" data-name="Trazado 1461" d="M82.04,21.641a.335.335,0,0,1-.3.357.321.321,0,0,1-.362-.277.335.335,0,0,1,.3-.357.321.321,0,0,1,.362.277Z" transform="translate(612.341 1368.015)" fill="#263238"/>
    <path id="Trazado_1462" data-name="Trazado 1462" d="M82.056,20.936c-.039.044-.3-.127-.664-.105s-.614.216-.656.174.017-.1.127-.191a.927.927,0,0,1,.523-.194.894.894,0,0,1,.531.138C82.034,20.842,82.076,20.916,82.056,20.936Z" transform="translate(612.121 1367.763)" fill="#263238"/>
    <path id="Trazado_1463" data-name="Trazado 1463" d="M82.888,23.56a2.49,2.49,0,0,1,.581-.138c.091-.017.177-.039.191-.1a.493.493,0,0,0-.077-.277c-.1-.219-.2-.445-.313-.686a12.171,12.171,0,0,1-.719-1.8,11.582,11.582,0,0,1,.86,1.737c.105.241.207.47.3.692a.526.526,0,0,1,.069.357.227.227,0,0,1-.144.144.586.586,0,0,1-.155.03A2.413,2.413,0,0,1,82.888,23.56Z" transform="translate(612.741 1367.742)" fill="#263238"/>
    <path id="Trazado_1464" data-name="Trazado 1464" d="M82.147,19.858c-.03.1-.393.075-.813.149s-.758.21-.83.124c-.028-.039.028-.136.16-.238a1.383,1.383,0,0,1,.6-.249,1.364,1.364,0,0,1,.645.039C82.075,19.736,82.158,19.811,82.147,19.858Z" transform="translate(612.044 1367.425)" fill="#263238"/>
    <path id="Trazado_1465" data-name="Trazado 1465" d="M84.535,19.968c-.058.086-.31,0-.611.028s-.553.089-.611,0,0-.124.113-.21a.9.9,0,0,1,.988-.025C84.521,19.843,84.573,19.926,84.535,19.968Z" transform="translate(612.992 1367.425)" fill="#263238"/>
    <path id="Trazado_1466" data-name="Trazado 1466" d="M86.6,19.746s-.705-1.433-1.433-1.737c-.882-.365-1.2.6-2.03.418s-1.66-.534-2.473.147c-.874.744-.418,1.206-.415,2.252.014,4.235-.689,5.475-1.024,3.5-.036-.219-.65-.357-.794-1.272a10.419,10.419,0,0,1-.094-3.5A3.3,3.3,0,0,1,79.6,17.724a5.582,5.582,0,0,1,3.768-.988C84.449,16.783,86.593,17.9,86.6,19.746Z" transform="translate(611.272 1366.441)" fill="#263238"/>
    <path id="Trazado_1467" data-name="Trazado 1467" d="M79.481,22.489a.636.636,0,0,0-.722-.573c-.437.066-.91.343-.83,1.245a1.207,1.207,0,0,0,1.721,1.082C79.65,24.2,79.542,23.161,79.481,22.489Z" transform="translate(611.169 1368.202)" fill="#ffbf9d"/>
    <path id="Trazado_1468" data-name="Trazado 1468" d="M79.109,23.541a.4.4,0,0,1-.072.047.277.277,0,0,1-.207.022.689.689,0,0,1-.373-.589.891.891,0,0,1,.042-.407.329.329,0,0,1,.191-.235.141.141,0,0,1,.172.064c.025.041.017.075.028.077s.03-.03,0-.1a.169.169,0,0,0-.072-.094.216.216,0,0,0-.158-.028.4.4,0,0,0-.277.277.94.94,0,0,0-.058.454.722.722,0,0,0,.47.656.3.3,0,0,0,.252-.064C79.109,23.58,79.114,23.541,79.109,23.541Z" transform="translate(611.303 1368.333)" fill="#ff9a6c"/>
    <path id="Trazado_1469" data-name="Trazado 1469" d="M86.994,18.239c-.246-.185-.586-.21-.83-.4-.445-.343-.465-1.107-.988-1.322-.31-.122-.658.028-.99,0-.537-.058-.744-.462-1.557-.465a1.48,1.48,0,0,0-1.4.786,1.214,1.214,0,0,0-1.217.116,1.347,1.347,0,0,0-.509.971s-.166-.086-.675.315a2.639,2.639,0,0,0-.705,1.2,2.639,2.639,0,0,0,.329,1.768,1.233,1.233,0,0,0,.617.741.831.831,0,0,0,.957-.553c.149-.382.385-.752.553-1.107.315-.625.639-1.212.373-1.613a1.829,1.829,0,0,1,1.129,0c.368.122.689.357,1.057.487a.977.977,0,0,0,1.076-.177.788.788,0,0,0,1.206.277,1.107,1.107,0,0,0,1.436.4.891.891,0,0,0,.135-1.433Z" transform="translate(611.219 1366.211)" fill="#263238"/>
    <path id="Trazado_1470" data-name="Trazado 1470" d="M78.237,19.633a1.962,1.962,0,0,1,.185.368.789.789,0,0,0,.277.324.681.681,0,0,0,.5.058,1.218,1.218,0,0,0,.481-.2,2.05,2.05,0,0,0,.313-.3,2.035,2.035,0,0,1,.277-.313,1.419,1.419,0,0,1-.216.354,1.7,1.7,0,0,1-.313.329,1.209,1.209,0,0,1-.517.227.766.766,0,0,1-.553-.077.8.8,0,0,1-.277-.371A1.676,1.676,0,0,1,78.237,19.633Z" transform="translate(611.276 1367.406)" fill="#455a64"/>
    <path id="Trazado_1471" data-name="Trazado 1471" d="M78.282,20.767a1.206,1.206,0,0,0,.318.177.93.93,0,0,0,.382.033,1.123,1.123,0,0,0,.443-.169,2.213,2.213,0,0,0,.6-.636,1.66,1.66,0,0,1,.219-.3,1.3,1.3,0,0,1-.16.34,1.97,1.97,0,0,1-.611.681,1.106,1.106,0,0,1-.481.174.9.9,0,0,1-.418-.055C78.349,20.914,78.274,20.77,78.282,20.767Z" transform="translate(611.292 1367.508)" fill="#455a64"/>
    <path id="Trazado_1472" data-name="Trazado 1472" d="M82.07,23.238a1.97,1.97,0,0,0-.091.553.622.622,0,0,0,.174.473.675.675,0,0,0,.52.238h0a.747.747,0,0,0,.739-.636l.064-.4C83.107,23.366,82.1,23.266,82.07,23.238Z" transform="translate(612.547 1368.653)" fill="#ff9a6c"/>
    <path id="Trazado_1473" data-name="Trazado 1473" d="M83.074,24.391h-.127a1.134,1.134,0,0,1-.34,0,.658.658,0,0,1-.412-.243.813.813,0,0,1-.163-.553.83.83,0,0,1,.086-.326l-.05.025c.362.055.678.1.9.124a1.347,1.347,0,0,0,.365.025,1.768,1.768,0,0,0-.354-.086c-.224-.044-.537-.1-.9-.158h-.036l-.014.03a.844.844,0,0,0-.1.365.869.869,0,0,0,.191.625.7.7,0,0,0,.473.252.921.921,0,0,0,.354-.033C83.035,24.419,83.076,24.4,83.074,24.391Z" transform="translate(612.531 1368.639)" fill="#263238"/>
    <path id="Trazado_1474" data-name="Trazado 1474" d="M79.138,22.532a.329.329,0,0,0-.454-.155c-.183.1-.219.249-.277.451a.553.553,0,0,0,.055.432.354.354,0,0,0,.382.155.5.5,0,0,0,.277-.354.7.7,0,0,0,.017-.528Z" transform="translate(611.327 1368.347)" fill="#455a64"/>
    <path id="Trazado_1475" data-name="Trazado 1475" d="M81.921,25.224a3.455,3.455,0,0,1-1.441-.31,3.519,3.519,0,0,1-1.889-2.183l.277-.077a3.192,3.192,0,0,0,4.393,2.008l.116.252a3.466,3.466,0,0,1-1.455.31Z" transform="translate(611.396 1368.454)" fill="#455a64"/>
    <path id="Trazado_1476" data-name="Trazado 1476" d="M.44,0h.586a.443.443,0,0,1,.443.443V.459a.44.44,0,0,1-.44.44H.443A.443.443,0,0,1,0,.456V.44A.44.44,0,0,1,.44,0Z" transform="translate(693.898 1392.997) rotate(-11.13)" fill="#455a64"/>
    <path id="Trazado_1477" data-name="Trazado 1477" d="M79.167,23.035a1.33,1.33,0,0,0,.321-.473.653.653,0,0,0-.036-.553.791.791,0,0,0-.4-.29.974.974,0,0,0-.423-.077.512.512,0,0,0-.376.191.188.188,0,0,0-.022.221c.058.069.166.05.255.028a1.021,1.021,0,0,1,.365-.044.409.409,0,0,1,.31.174.426.426,0,0,1,0,.407,1.217,1.217,0,0,1-.277.324" transform="translate(611.267 1368.109)" fill="#455a64"/>
    <path id="Trazado_1478" data-name="Trazado 1478" d="M76.457,29.045a4.262,4.262,0,0,0-2.65,2.75c-.523,1.956-1.95,9.1-1.95,9.1L70.341,43s.49,3.834,3.278,3.107a2.2,2.2,0,0,0,2.456-1.563c.595-1.887,1.743-7.513,1.743-7.513Z" transform="translate(608.594 1370.625)" fill="#e0e0e0"/>
    <path id="Trazado_1479" data-name="Trazado 1479" d="M80.71,26.6,79.656,28.2l-4.75,1.679,1.361,13.774-.509,7.217a1.627,1.627,0,0,0,1.66,1.743l14.938-.44c.373,0,.553-.484.609-.993a3.4,3.4,0,0,0-.119-1.364l-.786-2.766c.116,1.718-.4-10.235-.418-10.684L92.793,30.2l-5.405-2.172-.83-1.292-2.437,1.845Z" transform="translate(610.145 1369.795)" fill="#e0e0e0"/>
    <path id="Trazado_1480" data-name="Trazado 1480" d="M88.6,29.293a4.814,4.814,0,0,1,1.27,1.682c.183.728,4.089,9.2,4.089,9.2L95.9,40.7l.517,1.073a2.993,2.993,0,0,1-.846,3.682c-.072.055-.141.1-.207.144a3.32,3.32,0,0,1-4.033-.7c-1.043-1.225-4.089-5.643-4.089-5.643v-5.4Z" transform="translate(614.334 1370.709)" fill="#e0e0e0"/>
    <path id="Trazado_1481" data-name="Trazado 1481" d="M93.159,38.471l2.794-1.66,1.344,1.66-.277.8-3.6,2.669a2.393,2.393,0,0,1-.83-1.447A3.112,3.112,0,0,1,93.159,38.471Z" transform="translate(616.144 1373.263)" fill="#ffbf9d"/>
    <path id="Trazado_1482" data-name="Trazado 1482" d="M93.046,37.422a4.808,4.808,0,0,0-.589.119,2.617,2.617,0,0,0-1.159.805,5.2,5.2,0,0,0-.739,1.239,3.275,3.275,0,0,1-.263.553,2.085,2.085,0,0,1,.169-.589,4.426,4.426,0,0,1,.722-1.292,2.456,2.456,0,0,1,1.242-.808A1.106,1.106,0,0,1,93.046,37.422Z" transform="translate(615.372 1373.46)" fill="#263238"/>
    <path id="Trazado_1483" data-name="Trazado 1483" d="M95.069,38.56a2.169,2.169,0,0,1,.669-2.011,7.546,7.546,0,0,1,2.213-1.264c.49-.219,1.508-1.071,1.69-.863a.675.675,0,0,1,0,.888c-.257.376-1.734.938-1.53,1.411.086.194.553.227.553.227s1.782.116,2.528.053,1.419.077,1.383.335-.18.4-.8.451-1.624.014-1.676.155.155.232.515.207a6.744,6.744,0,0,1,2.18.166.387.387,0,0,1-.2.553l-.4.141s.232.324.039.5-.631.116-.631.116l-2.257-.064s-.13.136-.064.227,1.829-.036,1.842.158.169.277-.36.415a7.193,7.193,0,0,1-2.335,0,23.2,23.2,0,0,0-2.476-.221Z" transform="translate(616.981 1372.441)" fill="#ffbf9d"/>
    <path id="Trazado_1484" data-name="Trazado 1484" d="M73.212,38.821,70.6,36.652l-1.5,1.685.183.83,3.264,3.071a2.257,2.257,0,0,0,1.024-1.25A3.2,3.2,0,0,0,73.212,38.821Z" transform="translate(608.174 1373.209)" fill="#ffbf9d"/>
    <path id="Trazado_1485" data-name="Trazado 1485" d="M72.156,38.672a2.185,2.185,0,0,0-.432-2.078,7.549,7.549,0,0,0-2.044-1.51c-.462-.277-1.383-1.239-1.577-1.057a.678.678,0,0,0-.1.9c.21.4,1.225.871,1.189,1.383a.382.382,0,0,1-.409.354,25.135,25.135,0,0,1-2.515-.243c-.736-.152-1.419-.089-1.411.172s.133.418.741.553,1.613.2,1.66.349-.183.213-.537.144a6.353,6.353,0,0,0-2.185-.086.387.387,0,0,0,.141.575l.382.185s-.277.293-.1.5a.946.946,0,0,0,.614.191l2.246.2s.113.149.039.235-1.815-.249-1.851-.061-.2.263.313.454a7.132,7.132,0,0,0,2.315.277,23.477,23.477,0,0,1,2.49.072Z" transform="translate(606.598 1372.31)" fill="#ffbf9d"/>
    <path id="Trazado_1486" data-name="Trazado 1486" d="M84.917,27.955a3.822,3.822,0,0,1-.47.49c-.3.277-.705.7-1.137,1.162-.089.1-.18.2-.277.29l-.055.064-.053-.066c-.335-.429-.622-.811-.83-1.087a2.4,2.4,0,0,1-.3-.459,2.33,2.33,0,0,1,.376.4c.221.263.526.631.863,1.057h-.108l.277-.293a15.234,15.234,0,0,1,1.173-1.14A2.732,2.732,0,0,1,84.917,27.955Z" transform="translate(612.483 1370.255)" fill="#263238"/>
    <path id="Trazado_1487" data-name="Trazado 1487" d="M75.138,31.771a1.429,1.429,0,0,1,.077.293c.042.188.091.465.144.808.111.683.23,1.632.326,2.686s.169,2,.221,2.692c.022.321.042.595.058.83a1.265,1.265,0,0,1,0,.3,1.218,1.218,0,0,1-.061-.3c-.03-.191-.064-.47-.105-.813-.077-.689-.166-1.64-.277-2.692s-.2-2-.277-2.683l-.075-.811A1.079,1.079,0,0,1,75.138,31.771Z" transform="translate(610.223 1371.551)" fill="#263238"/>
    <path id="Trazado_1488" data-name="Trazado 1488" d="M87.465,31.413a1.777,1.777,0,0,1,.053.365c.022.238.05.581.072,1.007.047.849.072,2.025.075,3.32v4.329a1.6,1.6,0,0,1-.017.368,1.777,1.777,0,0,1-.039-.368c-.017-.235-.033-.581-.047-1.007-.03-.849-.039-2.025-.042-3.32s0-2.47-.033-3.32c0-.4-.019-.739-.025-1A1.934,1.934,0,0,1,87.465,31.413Z" transform="translate(614.407 1371.43)" fill="#263238"/>
    <path id="Trazado_1489" data-name="Trazado 1489" d="M74.2,41.5a5.423,5.423,0,0,1-.147-.73,5.7,5.7,0,0,0-.553-1.679,3.143,3.143,0,0,0-1.22-1.237,5.869,5.869,0,0,0-.686-.277.514.514,0,0,1,.2,0,1.857,1.857,0,0,1,.528.166A2.977,2.977,0,0,1,73.623,39a4.979,4.979,0,0,1,.553,1.732,2.936,2.936,0,0,1,.022.766Z" transform="translate(609.019 1373.521)" fill="#263238"/>
    <path id="Trazado_1490" data-name="Trazado 1490" d="M74.655,38.6a5.363,5.363,0,0,0-1.131-.625,5.568,5.568,0,0,0-1.281-.2,2.031,2.031,0,0,1,1.328.064A2,2,0,0,1,74.655,38.6Z" transform="translate(609.24 1373.564)" fill="#263238"/>
    <path id="Trazado_1491" data-name="Trazado 1491" d="M82.137,51.585a1.33,1.33,0,0,1-.017-.235c0-.169,0-.393-.014-.678-.014-.6-.03-1.447-.05-2.49-.05-2.113-.119-5.01-.194-8.21s-.116-6.108-.113-8.21c0-1.051,0-1.9.025-2.49,0-.277.017-.509.019-.678a1.116,1.116,0,0,1,.017-.235,1.234,1.234,0,0,1,.014.238v.675c0,.6.014,1.45.022,2.49.022,2.1.083,5,.155,8.208s.136,6.108.152,8.21v3.167A1.583,1.583,0,0,1,82.137,51.585Z" transform="translate(612.469 1370.392)" fill="#263238"/>
    <path id="Trazado_1492" data-name="Trazado 1492" d="M72.248,38.2a1.107,1.107,0,0,1,.382.492,2.435,2.435,0,0,1,.221.645,2.624,2.624,0,0,1,0,.83,2.232,2.232,0,0,1-.243.8,1.588,1.588,0,0,1-.456.515.891.891,0,0,1-.586.21,2.49,2.49,0,0,0,.523-.293,1.615,1.615,0,0,0,.4-.5,2.382,2.382,0,0,0,.219-.758,2.82,2.82,0,0,0,0-.794,2.768,2.768,0,0,0-.183-.625A5.531,5.531,0,0,0,72.248,38.2Z" transform="translate(609.01 1373.735)" fill="#263238"/>
    <path id="Trazado_1493" data-name="Trazado 1493" d="M93.973,41.828a.445.445,0,0,1-.174-.053,1.936,1.936,0,0,1-.423-.255,2.288,2.288,0,0,1-.581-2.985,1.938,1.938,0,0,1,.3-.4c.083-.083.138-.122.144-.113a4.066,4.066,0,0,0-.351.553,2.318,2.318,0,0,0,.553,2.849C93.744,41.709,93.984,41.8,93.973,41.828Z" transform="translate(616.113 1373.676)" fill="#263238"/>
    <path id="Trazado_1494" data-name="Trazado 1494" d="M88.112,36.136a2.178,2.178,0,0,1-.362.213c-.235.127-.581.3-1.012.52-.86.429-2.064.993-3.416,1.566s-2.595,1.043-3.5,1.364c-.454.16-.83.277-1.079.365a2.1,2.1,0,0,1-.4.111,2.66,2.66,0,0,1,.385-.163l1.062-.409c.9-.343,2.133-.83,3.483-1.4s2.556-1.12,3.427-1.524l1.032-.479A2.428,2.428,0,0,1,88.112,36.136Z" transform="translate(611.31 1373.034)" fill="#263238"/>
    <path id="Trazado_1495" data-name="Trazado 1495" d="M97.957,35.667c.017.017-.1.133-.257.337a.968.968,0,0,0-.18.4c-.033.163-.03.354-.058.553a1.364,1.364,0,0,1-.539.907.692.692,0,0,1-.4.174c0-.022.147-.083.338-.252a1.416,1.416,0,0,0,.459-.849c.028-.194.028-.39.072-.57a.984.984,0,0,1,.23-.432A.969.969,0,0,1,97.957,35.667Z" transform="translate(617.487 1372.874)" fill="#ff9a6c"/>
    <path id="Trazado_1496" data-name="Trazado 1496" d="M68.008,37.363a6.847,6.847,0,0,1-1.571.036,6.979,6.979,0,0,1-1.56-.183,11.065,11.065,0,0,1,1.569.039A12,12,0,0,1,68.008,37.363Z" transform="translate(606.738 1373.397)" fill="#ff9a6c"/>
    <path id="Trazado_1497" data-name="Trazado 1497" d="M68.6,37.842c0,.017-.169,0-.368-.18a1.156,1.156,0,0,1-.4-.9,2.767,2.767,0,0,1,.1-.531,1.456,1.456,0,0,0,.053-.409,1.383,1.383,0,0,0-.086-.373.5.5,0,0,1,.188.362,1.328,1.328,0,0,1-.025.448,3.76,3.76,0,0,0-.083.509,1.159,1.159,0,0,0,.324.83C68.469,37.753,68.61,37.82,68.6,37.842Z" transform="translate(607.744 1372.8)" fill="#ff9a6c"/>
    <path id="Trazado_1498" data-name="Trazado 1498" d="M97.895,37.611a9.425,9.425,0,0,1,1.674.066,9.925,9.925,0,0,1,1.66.21,9.755,9.755,0,0,1-1.674-.066,9.927,9.927,0,0,1-1.66-.21Z" transform="translate(617.954 1373.531)" fill="#ff9a6c"/>
    <path id="Trazado_1499" data-name="Trazado 1499" d="M82.742,28.243a5.165,5.165,0,0,1-.318.83l-.174.407a4.664,4.664,0,0,1-.224.468.3.3,0,0,1-.3.147.738.738,0,0,1-.277-.144l-.5-.34c-.681-.47-1.289-.9-1.729-1.22a5.855,5.855,0,0,1-.692-.537,5.258,5.258,0,0,1,.75.454c.454.3,1.073.714,1.754,1.184l.5.343a.73.73,0,0,0,.221.124.169.169,0,0,0,.166-.086c.16-.293.293-.606.415-.844A5.861,5.861,0,0,1,82.742,28.243Z" transform="translate(611.377 1370.22)" fill="#263238"/>
    <path id="Trazado_1500" data-name="Trazado 1500" d="M46.85,93.951l-.177-5.6h4.161l-.277,5.724-1.878.733Z" transform="translate(600.554 1390.769)" fill="#ae7461"/>
    <path id="Trazado_1501" data-name="Trazado 1501" d="M49.062,92.616l-1.574-.086s-2.421,1.961-2.656,3.043a2.414,2.414,0,0,0,0,.83l3.679.108h2.683V92.649Z" transform="translate(599.916 1392.191)" fill="#455a64"/>
    <rect id="Rectángulo_109" data-name="Rectángulo 109" width="6.396" height="0.667" transform="translate(644.715 1488.024)" fill="#e0e0e0"/>
    <path id="Trazado_1502" data-name="Trazado 1502" d="M47.164,92.753c.041,0-.127.669-.26,1.491a14.148,14.148,0,0,1-.235,1.5,7.134,7.134,0,0,1,.487-2.988Z" transform="translate(600.55 1392.266)" fill="#263238"/>
    <path id="Trazado_1503" data-name="Trazado 1503" d="M50.233,95.195a3.32,3.32,0,0,0-.335-.606,1.785,1.785,0,0,0-.553-.473,1.7,1.7,0,0,0-.866-.188,1.676,1.676,0,0,0-.846.277,1.806,1.806,0,0,0-.515.526,3.351,3.351,0,0,0-.277.633.393.393,0,0,1,0-.194,1.571,1.571,0,0,1,.18-.492,1.741,1.741,0,0,1,2.954-.141,1.532,1.532,0,0,1,.224.476A.4.4,0,0,1,50.233,95.195Z" transform="translate(600.607 1392.618)" fill="#263238"/>
    <path id="Trazado_1504" data-name="Trazado 1504" d="M55.824,94.187l.827-5.546-4.13-.484-.393,5.715,1.779.949Z" transform="translate(602.407 1390.705)" fill="#ae7461"/>
    <path id="Trazado_1505" data-name="Trazado 1505" d="M54.364,92.637l1.571.1s2.18,2.232,2.285,3.32a2.371,2.371,0,0,1-.1.83l-3.665-.321c-.736-.089-2.667-.31-2.667-.31l.451-3.826Z" transform="translate(602.293 1392.156)" fill="#455a64"/>
    <rect id="Rectángulo_110" data-name="Rectángulo 110" width="6.396" height="0.667" transform="translate(660.428 1489.151) rotate(-173.31)" fill="#e0e0e0"/>
    <path id="Trazado_1506" data-name="Trazado 1506" d="M54.634,92.852a5.114,5.114,0,0,1,.23,1.5,5.059,5.059,0,0,1-.094,1.519c-.041,0,0-.681-.05-1.513A14.328,14.328,0,0,1,54.634,92.852Z" transform="translate(603.254 1392.3)" fill="#263238"/>
    <path id="Trazado_1507" data-name="Trazado 1507" d="M52.07,94.958a.538.538,0,0,1,.047-.185,1.612,1.612,0,0,1,.277-.445,1.767,1.767,0,0,1,2.465-.144,1.746,1.746,0,0,1,.454.636,1.563,1.563,0,0,1,.122.512.434.434,0,0,1,0,.194,3.517,3.517,0,0,0-.2-.664,1.793,1.793,0,0,0-.451-.578,1.66,1.66,0,0,0-.808-.368,1.7,1.7,0,0,0-.882.089,1.784,1.784,0,0,0-.611.4A3.4,3.4,0,0,0,52.07,94.958Z" transform="translate(602.388 1392.603)" fill="#263238"/>
    <path id="Trazado_1508" data-name="Trazado 1508" d="M45.112,79.548c0,.246.935,13.779.935,13.779h5.989l.639-13.973Z" transform="translate(600.024 1387.715)" fill="#263238"/>
    <path id="Trazado_1509" data-name="Trazado 1509" d="M59.056,79.459,57.484,93.728l-5.862-.473L52,79.061Z" transform="translate(602.235 1387.615)" fill="#263238"/>
    <path id="Trazado_1510" data-name="Trazado 1510" d="M55.119,46.776l-.113-.044a2.243,2.243,0,0,0-1.685-1.314,2.913,2.913,0,0,0-2.113.5c-.426.277-.783.678-1.212.965a1.7,1.7,0,0,1-1.461.31c-.083.18.252.335.2.526a.235.235,0,0,1-.219.149,2.635,2.635,0,0,1-.412-.055.326.326,0,0,0-.351.16.373.373,0,0,0,0,.2,3.6,3.6,0,0,0,.611,1.7,1.876,1.876,0,0,0,1.557.8,2.969,2.969,0,0,0,1.333-.553l2.357-1.447a4.9,4.9,0,0,0,1.021-.755A1.643,1.643,0,0,0,55.119,46.776Z" transform="translate(600.918 1376.176)" fill="#263238"/>
    <path id="Trazado_1511" data-name="Trazado 1511" d="M52.907,46.565a2.351,2.351,0,0,1,1.057-.368,1.411,1.411,0,0,1,1.048.34,3.118,3.118,0,0,1,.553.888,1.306,1.306,0,0,0,.73.716.29.29,0,0,1,.163.077c.069.083,0,.221-.111.255a.515.515,0,0,1-.318-.044,1.14,1.14,0,0,0,.625.462.5.5,0,0,1-.647.277,5.032,5.032,0,0,1,.044,1.256,1.707,1.707,0,0,1-.553,1.107c-.354.3-.882.423-1.076.83" transform="translate(602.672 1376.45)" fill="#263238"/>
    <path id="Trazado_1512" data-name="Trazado 1512" d="M49.439,60.408l5.58.617L54.993,56.2s.39-.033.675-2.094.83-5.555.83-5.555h0a7.223,7.223,0,0,0-7.32,0l-.338.2Z" transform="translate(601.291 1376.914)" fill="#ae7461"/>
    <path id="Trazado_1513" data-name="Trazado 1513" d="M49.46,50.446c-.033-.019-1.367-.6-1.5.83a1.064,1.064,0,0,0,1.322,1.217C49.291,52.451,49.46,50.446,49.46,50.446Z" transform="translate(600.99 1377.85)" fill="#ae7461"/>
    <path id="Trazado_1514" data-name="Trazado 1514" d="M54.173,50.817a.935.935,0,0,1,1.107,1.212,1.069,1.069,0,0,1-1.582.852C53.7,52.84,54.173,50.817,54.173,50.817Z" transform="translate(602.94 1378.018)" fill="#ae7461"/>
    <path id="Trazado_1515" data-name="Trazado 1515" d="M48.752,51.246c.061,1.209-.058,1.823.039,2.639a4.2,4.2,0,0,0,1.7,3.09,3.258,3.258,0,0,0,3.646.216A3.321,3.321,0,0,0,55.652,55.2c.213-.88.68-2.509.8-3.4.213-1.61.34-3.06.34-3.06l-4.5-1.411L49.48,48.56Z" transform="translate(601.26 1376.837)" fill="#263238"/>
    <path id="Trazado_1516" data-name="Trazado 1516" d="M52.114,55.375a1.51,1.51,0,0,1-.816-.03A1.46,1.46,0,0,1,50.559,55c.017-.033.343.116.769.216A7.44,7.44,0,0,1,52.114,55.375Z" transform="translate(601.874 1379.441)" fill="#263238"/>
    <path id="Trazado_1517" data-name="Trazado 1517" d="M48.732,53.735c.017-1.228.1-2.625.075-3.925a10.012,10.012,0,0,1,0-1.679c.094-.479.219-.313.487-.725a3.006,3.006,0,0,1,2.017-.8c.611-.044.752-.553,1.162-.094a1.508,1.508,0,0,1,2.645.974A1.046,1.046,0,0,1,56.7,48.745a1.032,1.032,0,0,1,.686.686,1.046,1.046,0,0,1-.2.952c-.254.3-.664.434-.938.716a1.19,1.19,0,0,0-.23,1.264" transform="translate(601.253 1376.384)" fill="#263238"/>
    <path id="Trazado_1518" data-name="Trazado 1518" d="M53.47,52.141a2.714,2.714,0,0,1-1.148,2.169,7.877,7.877,0,0,0,.716-1.007,8.151,8.151,0,0,0,.432-1.162Z" transform="translate(602.473 1378.471)" fill="#455a64"/>
    <path id="Trazado_1519" data-name="Trazado 1519" d="M53.9,51.43a2.191,2.191,0,0,1-.656,2.083,6.244,6.244,0,0,0,.481-.993A6.06,6.06,0,0,0,53.9,51.43Z" transform="translate(602.787 1378.229)" fill="#455a64"/>
    <path id="Trazado_1520" data-name="Trazado 1520" d="M49.867,47.546a3.173,3.173,0,0,1,1.6-1.107,1.859,1.859,0,0,1,1.82.465" transform="translate(601.639 1376.509)" fill="#263238"/>
    <path id="Trazado_1521" data-name="Trazado 1521" d="M49.7,50.262c.025,0,.022-.163,0-.42a5.558,5.558,0,0,1,.017-.993,2.144,2.144,0,0,1,.329-.907c.138-.21.263-.31.249-.332s-.169.055-.343.26a1.9,1.9,0,0,0-.39.968,3.452,3.452,0,0,0,.03,1.026A1.134,1.134,0,0,0,49.7,50.262Z" transform="translate(601.528 1376.93)" fill="#455a64"/>
    <path id="Trazado_1522" data-name="Trazado 1522" d="M50.407,50.366a9.758,9.758,0,0,0-.246-1.342,1.106,1.106,0,0,0-.017.7A1.131,1.131,0,0,0,50.407,50.366Z" transform="translate(601.717 1377.412)" fill="#455a64"/>
    <path id="Trazado_1523" data-name="Trazado 1523" d="M53.73,51.1a1.223,1.223,0,0,0,.379-.465,2.5,2.5,0,0,0-.2-2.766c-.232-.3-.432-.42-.443-.4s.152.172.349.47a2.766,2.766,0,0,1,.448,1.3A2.736,2.736,0,0,1,54,50.585,5.681,5.681,0,0,0,53.73,51.1Z" transform="translate(602.861 1376.882)" fill="#455a64"/>
    <path id="Trazado_1524" data-name="Trazado 1524" d="M50.4,45.893a1.965,1.965,0,0,0,.479-.136,2.714,2.714,0,0,1,1.145-.133,1.358,1.358,0,0,1,.952.553,3.1,3.1,0,0,1,.207.434.643.643,0,0,0-.108-.5,1.242,1.242,0,0,0-.385-.412,1.505,1.505,0,0,0-.645-.241,2.357,2.357,0,0,0-1.206.188,1.2,1.2,0,0,0-.44.241Z" transform="translate(601.819 1376.198)" fill="#455a64"/>
    <path id="Trazado_1525" data-name="Trazado 1525" d="M55.535,47.647c.019,0,0-.166-.116-.393a1.535,1.535,0,0,0-1.729-.747c-.249.066-.376.169-.368.185a2.576,2.576,0,0,0,.39-.072,1.632,1.632,0,0,1,1.607.694C55.471,47.512,55.51,47.656,55.535,47.647Z" transform="translate(602.813 1376.541)" fill="#455a64"/>
    <path id="Trazado_1526" data-name="Trazado 1526" d="M54.255,51.529c0-.019-.219-.111-.567-.324A4.835,4.835,0,0,1,52.441,50.1l-.235-.277.1.362a2.915,2.915,0,0,1,.116.694c0,.119,0,.277-.039.277a.514.514,0,0,1-.249-.136,4.225,4.225,0,0,1-.83-.957l-.21-.324.066.379c.066.376.13.73.185,1.048l.113-.05a6.282,6.282,0,0,1-.758-1.25,1.158,1.158,0,0,0,.111.387,3.851,3.851,0,0,0,.553.943l.149.194-.036-.243c-.047-.321-.1-.675-.158-1.054l-.144.053a4.23,4.23,0,0,0,.869,1,1.483,1.483,0,0,0,.169.127.245.245,0,0,0,.4-.21v-.2a3.076,3.076,0,0,0-.13-.73l-.133.069a4.456,4.456,0,0,0,1.32,1.076A1.873,1.873,0,0,0,54.255,51.529Z" transform="translate(601.923 1377.655)" fill="#455a64"/>
    <path id="Trazado_1527" data-name="Trazado 1527" d="M51.865,46.834a.733.733,0,0,1,.49-.277,1.275,1.275,0,0,1,.575.058,2.058,2.058,0,0,1,1.107.846c.058.089.105.224.022.293a.23.23,0,0,1-.166.036,9.074,9.074,0,0,1-2.072-.335" transform="translate(602.303 1376.571)" fill="#263238"/>
    <path id="Trazado_1528" data-name="Trazado 1528" d="M50.368,57.967s-5.782,1.474-6.744,3a16.356,16.356,0,0,0-1.53,5.668c0,.625-.113,7.707,1.076,10.031s21.3,1.643,21.3,1.643a4.355,4.355,0,0,0,1.936-3.173c.407-2.379-.34-10.316-.736-12.072s-.739-1.248-2.609-2.379A42.646,42.646,0,0,0,58.3,58.365l-1.021-1.936s-3.231-1.757-5.782-.277Z" transform="translate(598.998 1379.632)" fill="#e0e0e0"/>
    <path id="Trazado_1529" data-name="Trazado 1529" d="M57.632,62.9c.039,0,.05,1.538.025,3.439s-.077,3.436-.116,3.436-.053-1.541-.028-3.439S57.59,62.9,57.632,62.9Z" transform="translate(604.232 1382.126)"/>
    <path id="Trazado_1530" data-name="Trazado 1530" d="M44.361,62.04a1.007,1.007,0,0,1,0,.277q0,.324-.033.78c-.028.658-.055,1.568-.05,2.575s.05,1.914.089,2.573c.017.3.033.553.044.78a1.208,1.208,0,0,1,0,.277,1.012,1.012,0,0,1-.058-.277c-.028-.183-.058-.448-.091-.777-.064-.658-.122-1.571-.13-2.581s.039-1.923.094-2.581c.025-.329.053-.595.077-.78A1.075,1.075,0,0,1,44.361,62.04Z" transform="translate(599.69 1381.833)"/>
    <path id="Trazado_1531" data-name="Trazado 1531" d="M59.7,60.074a.535.535,0,0,1-.147,0l-.415-.047L57.62,59.85c-1.286-.138-3.068-.293-5.04-.362s-3.762-.036-5.054.014l-1.533.069-.415.019a.737.737,0,0,1-.147,0,.575.575,0,0,1,.144-.028l.4-.042c.36-.036.882-.077,1.53-.116,1.295-.077,3.087-.122,5.065-.055s3.762.241,5.046.407c.645.083,1.162.158,1.519.221l.412.072A.552.552,0,0,1,59.7,60.074Z" transform="translate(600.133 1380.908)"/>
    <path id="Trazado_1532" data-name="Trazado 1532" d="M55.9,57.756c0,.022-.432-.058-1.123-.16a24.618,24.618,0,0,0-5.439-.207c-.7.05-1.126.1-1.131.077a1.384,1.384,0,0,1,.3-.066c.194-.036.476-.075.83-.111a19.293,19.293,0,0,1,2.739-.091,19.572,19.572,0,0,1,2.725.3c.346.066.625.124.813.174A1.48,1.48,0,0,1,55.9,57.756Z" transform="translate(601.077 1380.184)"/>
    <path id="Trazado_1533" data-name="Trazado 1533" d="M63.989,67.414A4.15,4.15,0,0,0,62.174,67c-3.627-.249-7.264-.329-10.9-.407a44.594,44.594,0,0,0-6.26.155,3.2,3.2,0,0,0-1.826.645,2.85,2.85,0,0,0-.639,2.468,9.632,9.632,0,0,1,.213,2.631l21.81,2.064a25.114,25.114,0,0,1,.62-3.754A3.345,3.345,0,0,0,63.989,67.414Z" transform="translate(599.141 1383.367)"/>
    <path id="Trazado_1534" data-name="Trazado 1534" d="M46.556,84.474a3.69,3.69,0,0,1-3.7-3.571c-.1-3.743-.105-9.538-.1-12.05a1.234,1.234,0,0,1,1.234-1.234H63.223a1.234,1.234,0,0,1,1.234,1.264c-.064,2.609-.21,8.659-.3,12.41a3.259,3.259,0,0,1-3.262,3.181Z" transform="translate(599.224 1383.728)" fill="#455a64"/>
    <path id="Trazado_1535" data-name="Trazado 1535" d="M42.611,100.712,41.5,100.58l2.263-18.521a2.152,2.152,0,0,1,2.119-1.906H62.1a2.147,2.147,0,0,1,2.113,1.9c.553,4.379,2.053,18.4,2.069,18.534l-1.107.116c-.014-.141-1.524-14.147-2.066-18.515a1.037,1.037,0,0,0-1.015-.929h-16.2a1.04,1.04,0,0,0-1.018.932Z" transform="translate(598.798 1387.986)" fill="#e0e0e0"/>
    <path id="Trazado_1536" data-name="Trazado 1536" d="M42.611,100.724a2.123,2.123,0,0,1,.03-.293c.03-.194.055-.476.1-.846.089-.744.219-1.84.385-3.248.337-2.819.83-6.9,1.433-11.953q.116-.946.235-1.936a2.213,2.213,0,0,1,.091-.5,1.16,1.16,0,0,1,.293-.443,1.09,1.09,0,0,1,.473-.252,2.289,2.289,0,0,1,.528-.03H62.053a1.087,1.087,0,0,1,.653.185,1.106,1.106,0,0,1,.421.537,2.977,2.977,0,0,1,.111.661c.047.437.1.877.147,1.317q.3,2.647.606,5.405c.409,3.676.83,7.488,1.272,11.4l-.08-.066,1.107-.116-.064.077c-.055-.5-.116-1.051-.18-1.6-.4-3.6-.791-7.121-1.173-10.54q-.277-2.564-.553-5.049c-.047-.412-.091-.83-.138-1.234a2.136,2.136,0,0,0-.409-1.107,2.089,2.089,0,0,0-.924-.711,2.127,2.127,0,0,0-.57-.127c-.191-.014-.4,0-.595,0H45.715a2.075,2.075,0,0,0-.467.1,2.012,2.012,0,0,0-.794.5,2.061,2.061,0,0,0-.5.78,3.955,3.955,0,0,0-.169.907c-.075.614-.149,1.214-.221,1.806q-.219,1.768-.42,3.383c-.277,2.152-.506,4.091-.716,5.793-.426,3.391-.733,5.829-.891,7.093V100.6l.83.108.277.039-.263-.025-.83-.094H41.5v-.042c.152-1.267.443-3.7.846-7.1.2-1.7.437-3.64.7-5.793.13-1.076.277-2.213.409-3.386q.108-.882.219-1.806a4.094,4.094,0,0,1,.172-.93A2.213,2.213,0,0,1,45.2,80.226a2.263,2.263,0,0,1,.492-.108H62.279a2.3,2.3,0,0,1,.609.136,2.213,2.213,0,0,1,.985.758,2.3,2.3,0,0,1,.437,1.17c.044.412.091.83.138,1.237q.277,2.49.553,5.049c.382,3.419.775,6.941,1.176,10.54.061.553.122,1.093.18,1.6v.072h-.072l-1.107.119h-.072v-.072c-.434-3.912-.86-7.721-1.27-11.4q-.3-2.766-.6-5.405c-.05-.44-.1-.88-.147-1.317a2.837,2.837,0,0,0-.1-.631.963.963,0,0,0-.371-.473.935.935,0,0,0-.575-.163H46.179a2.146,2.146,0,0,0-.5.025.965.965,0,0,0-.426.227,1.021,1.021,0,0,0-.277.4,2.213,2.213,0,0,0-.089.481q-.122,1-.241,1.936c-.628,5.06-1.137,9.143-1.488,11.967-.177,1.4-.315,2.49-.409,3.234l-.108.83A2.773,2.773,0,0,1,42.611,100.724Z" transform="translate(598.798 1387.974)" fill="#263238"/>
    <path id="Trazado_1537" data-name="Trazado 1537" d="M61.99,80.888a.322.322,0,0,1,0,.083.8.8,0,0,1-.014.246,1.2,1.2,0,0,1-.539.752,7.829,7.829,0,0,1-3.295.965,55.933,55.933,0,0,1-11.342-.1,4.078,4.078,0,0,1-1.6-.434,2.166,2.166,0,0,1-.968-1.286,7.47,7.47,0,0,1-.255-1.53c-.047-.5-.091-.99-.138-1.472-.163-1.914-.26-3.646-.313-5.1s-.066-2.631-.066-3.444V68.39a.323.323,0,0,1,0-.083.321.321,0,0,1,0,.083v.243c0,.224,0,.537.017.935.019.813.047,1.989.113,3.439s.172,3.178.343,5.093l.141,1.469a7.551,7.551,0,0,0,.255,1.5,2.02,2.02,0,0,0,.9,1.2,3.9,3.9,0,0,0,1.546.415,58.568,58.568,0,0,0,11.325.147,7.918,7.918,0,0,0,3.273-.913,1.178,1.178,0,0,0,.553-.714.733.733,0,0,0,.025-.238.345.345,0,0,1,.036-.083Z" transform="translate(599.461 1383.962)" fill="#263238"/>
    <path id="Trazado_1538" data-name="Trazado 1538" d="M33.56,63.906c0,.169,1.557,6.183,1.557,8.133A5.569,5.569,0,0,1,33.28,75.6l-2.006-4.343-.83-5.4Z" transform="translate(595.042 1382.467)" fill="#ffbf9d"/>
    <path id="Trazado_1539" data-name="Trazado 1539" d="M18.537,63.475c-.017.166.34,7.652.34,7.652l3.007-.277L21.2,65.835Z" transform="translate(590.996 1382.321)" fill="#ffbf9d"/>
    <path id="Trazado_1540" data-name="Trazado 1540" d="M22.774,58.965c-.033.017-.127.044-.277.091-.83.277-3.6,1.228-3.945,3.654l-.379,3.45,3.14,1.436.39,3.845,13.591.277-.335-3.228,4.614-1.015s-.869-4.166-2.556-6.4A3.7,3.7,0,0,0,34.8,59.7L27.783,58.29Z" transform="translate(590.873 1380.56)" fill="#407bff"/>
    <path id="Trazado_1541" data-name="Trazado 1541" d="M28.422,48.669a3.405,3.405,0,0,0-2.714.9,6.808,6.808,0,0,0-1.6,2.387,30.741,30.741,0,0,0-1.64,5.35A47.141,47.141,0,0,0,21,65.408c-.172,2.739.675,4.357,1.9,6.836l4.327-.578v-.794l.586.794,1.679-.252s.5-4.244.5-4.23.8,4.039.8,4.039l1.4-.124c1.383-5.331-.183-8.838.609-14.283a26.444,26.444,0,0,0,.481-3.889A5.125,5.125,0,0,0,32,49.305a3.139,3.139,0,0,0-3.69-.639" transform="translate(591.825 1377.17)" fill="#263238"/>
    <path id="Trazado_1542" data-name="Trazado 1542" d="M27.572,71.361l-.014-.061-.039-.18c-.03-.166-.072-.4-.127-.7-.108-.606-.255-1.483-.387-2.573A27.386,27.386,0,0,1,26.787,64a20.765,20.765,0,0,1,.177-2.274,18.584,18.584,0,0,1,.517-2.39c.479-1.616,1.148-3.084,1.472-4.5A8.8,8.8,0,0,0,29.21,52.8a5.513,5.513,0,0,0-.277-1.754,4.717,4.717,0,0,0-.692-1.306,4.078,4.078,0,0,0-.8-.8,3.8,3.8,0,0,0-.617-.371l-.172-.077-.058-.028.061.019.177.066a3.573,3.573,0,0,1,.633.362,4.071,4.071,0,0,1,.83.791,4.733,4.733,0,0,1,.714,1.317,5.494,5.494,0,0,1,.277,1.776,8.624,8.624,0,0,1-.249,2.053c-.324,1.425-.99,2.9-1.463,4.5a18.918,18.918,0,0,0-.512,2.387,21.187,21.187,0,0,0-.18,2.263,27.965,27.965,0,0,0,.2,3.842c.124,1.09.26,1.967.357,2.575.047.3.083.534.108.7a1.072,1.072,0,0,0,.028.183A.221.221,0,0,1,27.572,71.361Z" transform="translate(593.734 1377.224)" fill="#455a64"/>
    <path id="Trazado_1543" data-name="Trazado 1543" d="M22.84,68.353V68.3a.551.551,0,0,0-.017-.149c-.017-.138-.036-.329-.064-.575,0-.124-.028-.263-.042-.415s-.022-.318-.033-.5c-.019-.357-.053-.761-.053-1.212,0-.224,0-.459-.014-.705a7.106,7.106,0,0,1,.014-.764c0-.528.044-1.093.08-1.685a31.686,31.686,0,0,1,1.51-7.58c.194-.553.373-1.107.573-1.6.1-.246.185-.487.277-.714l.277-.65c.172-.418.36-.78.515-1.107.08-.16.149-.313.221-.448l.2-.371.277-.512.075-.133a.335.335,0,0,1,.028-.044.115.115,0,0,1-.019.05l-.066.136c-.064.124-.149.3-.277.52-.055.113-.122.238-.191.373s-.136.29-.213.454c-.149.324-.332.689-.5,1.107l-.277.65c-.1.227-.18.468-.277.714-.2.492-.371,1.032-.553,1.593a32.95,32.95,0,0,0-1.508,7.56c-.039.592-.083,1.154-.089,1.682,0,.263-.019.517-.017.761s0,.481,0,.705c0,.448.025.855.039,1.209a4.487,4.487,0,0,0,.025.5c0,.149.022.29.033.415.019.246.033.437.044.578V68.3Q22.817,68.359,22.84,68.353Z" transform="translate(592.381 1377.454)" fill="#455a64"/>
    <path id="Trazado_1544" data-name="Trazado 1544" d="M24.9,71.04a.227.227,0,0,1-.022-.05.632.632,0,0,0-.05-.152c-.042-.138-.1-.332-.18-.578-.041-.127-.083-.277-.13-.42s-.086-.326-.133-.506c-.086-.365-.207-.777-.277-1.242-.047-.232-.091-.473-.141-.728s-.077-.517-.119-.791-.089-.553-.111-.855-.053-.595-.077-.907a28.045,28.045,0,0,1,.03-4.05,30.318,30.318,0,0,1,.628-4.008l.213-.885c.069-.277.155-.553.23-.83.144-.537.31-1.026.456-1.477s.3-.846.432-1.2.249-.653.354-.9.18-.426.235-.553l.064-.144.025-.05v.053l-.055.149c-.053.136-.127.326-.219.567s-.219.553-.34.9-.277.752-.415,1.2-.3.941-.445,1.477c-.072.277-.158.539-.224.83s-.136.584-.207.885a32.206,32.206,0,0,0-.628,4,29.6,29.6,0,0,0-.039,4.036c.028.31.053.611.077.9s.069.578.1.852.064.539.113.791.091.5.133.728c.075.465.194.874.277,1.239.044.183.077.354.122.506l.122.423.163.584.042.155A.146.146,0,0,0,24.9,71.04Z" transform="translate(592.718 1377.987)" fill="#455a64"/>
    <path id="Trazado_1545" data-name="Trazado 1545" d="M29.9,69.267l-.03-.053-.077-.158-.124-.257-.155-.36a12.724,12.724,0,0,1-.725-2.371,13,13,0,0,1-.221-3.657,13.252,13.252,0,0,1,.351-2.144c.183-.733.418-1.477.661-2.238s.473-1.5.642-2.235a10.923,10.923,0,0,0,.3-2.133,6.678,6.678,0,0,0-.2-1.936,4.98,4.98,0,0,0-.708-1.544A4.426,4.426,0,0,0,27.709,48.6a4.1,4.1,0,0,0-.658-.2l-.177-.036h-.061a.222.222,0,0,1,.064,0l.177.025a3.754,3.754,0,0,1,.672.191,4.385,4.385,0,0,1,1.936,1.582,4.957,4.957,0,0,1,.728,1.56,6.728,6.728,0,0,1,.219,1.953,10.811,10.811,0,0,1-.3,2.149c-.169.736-.4,1.483-.642,2.243s-.479,1.5-.661,2.232a13.115,13.115,0,0,0-.155,5.765,13.254,13.254,0,0,0,.692,2.371c.055.136.1.257.147.362l.113.26.072.163A.227.227,0,0,1,29.9,69.267Z" transform="translate(593.808 1377.185)" fill="#455a64"/>
    <path id="Trazado_1546" data-name="Trazado 1546" d="M20.047,62.083a5.005,5.005,0,0,1,.152.816c.086.553.188,1.228.3,1.978s.227,1.427.313,1.978a5.132,5.132,0,0,1,.105.83,4.426,4.426,0,0,1-.2-.805c-.105-.5-.235-1.2-.357-1.972s-.207-1.477-.26-1.986A4.594,4.594,0,0,1,20.047,62.083Z" transform="translate(591.509 1381.848)"/>
    <path id="Trazado_1547" data-name="Trazado 1547" d="M31,62.872a22.961,22.961,0,0,1-.1,2.567A21.933,21.933,0,0,1,30.662,68a23.807,23.807,0,0,1,.1-2.567A23.477,23.477,0,0,1,31,62.872Z" transform="translate(595.114 1382.116)"/>
    <path id="Trazado_1548" data-name="Trazado 1548" d="M29.955,88.258,28.4,83.3l3.58-1.084c-.025,0,1.181,6.221,1.181,6.221l-1.74.7Z" transform="translate(594.347 1388.686)" fill="#ffbf9d"/>
    <path id="Trazado_1549" data-name="Trazado 1549" d="M36.294,87.543,35,87.106l-2.362-.913-3.2.332.481,2.877,2.664-.216,4.531-.277-.089-.39A1.488,1.488,0,0,0,36.294,87.543Z" transform="translate(594.7 1390.038)" fill="#455a64"/>
    <path id="Trazado_1550" data-name="Trazado 1550" d="M32.281,88.943a6.576,6.576,0,0,1-.3-1.367,6.263,6.263,0,0,1-.155-1.383,14.084,14.084,0,0,1,.456,2.75Z" transform="translate(595.51 1390.038)" fill="#263238"/>
    <path id="Trazado_1551" data-name="Trazado 1551" d="M29.82,88.842l-.083-.49,7.162-.512.116.5Z" transform="translate(594.801 1390.598)" fill="#e0e0e0"/>
    <path id="Trazado_1552" data-name="Trazado 1552" d="M22.563,93.762v-4.78l3.953-.249-.246,5.148-1.881.733Z" transform="translate(592.364 1390.901)" fill="#ffbf9d"/>
    <path id="Trazado_1553" data-name="Trazado 1553" d="M24.828,92.572l-1.574-.086S20.831,94.448,20.6,95.53a2.338,2.338,0,0,0,0,.83l3.676.108h2.686V92.606Z" transform="translate(591.684 1392.176)" fill="#455a64"/>
    <path id="Trazado_1554" data-name="Trazado 1554" d="M26.41,80.137c.077.188,1.123,5.58,1.123,5.58l6.4-1.438-.83-3.649Z" transform="translate(593.671 1387.981)" fill="#263238"/>
    <path id="Trazado_1555" data-name="Trazado 1555" d="M21.475,80.545V91.7l6.28.277.277-11.422Z" transform="translate(591.995 1388.12)" fill="#263238"/>
    <rect id="Rectángulo_111" data-name="Rectángulo 111" width="6.396" height="0.667" transform="translate(612.236 1487.966)" fill="#e0e0e0"/>
    <path id="Trazado_1556" data-name="Trazado 1556" d="M22.928,92.714c.039,0-.13.669-.277,1.491s-.183,1.5-.227,1.5a5.06,5.06,0,0,1,.086-1.519A4.924,4.924,0,0,1,22.928,92.714Z" transform="translate(592.309 1392.253)" fill="#263238"/>
    <path id="Trazado_1557" data-name="Trazado 1557" d="M25.987,95.155a3.171,3.171,0,0,0-.332-.606,1.767,1.767,0,0,0-.553-.473,1.723,1.723,0,0,0-1.712.08,1.787,1.787,0,0,0-.512.523,3.565,3.565,0,0,0-.277.636.443.443,0,0,1,0-.194,1.643,1.643,0,0,1,.18-.492,1.74,1.74,0,0,1,2.954-.141,1.621,1.621,0,0,1,.227.476A.376.376,0,0,1,25.987,95.155Z" transform="translate(592.374 1392.6)" fill="#263238"/>
    <path id="Trazado_1558" data-name="Trazado 1558" d="M21.818,84.474a3.687,3.687,0,0,1-3.7-3.571c-.1-3.743-.105-9.538-.1-12.05a1.234,1.234,0,0,1,1.234-1.234H38.485a1.234,1.234,0,0,1,1.234,1.264c-.064,2.609-.21,8.659-.3,12.41a3.261,3.261,0,0,1-3.261,3.181Z" transform="translate(590.822 1383.728)" fill="#455a64"/>
    <path id="Trazado_1559" data-name="Trazado 1559" d="M17.867,100.712l-1.107-.133,2.263-18.521a2.149,2.149,0,0,1,2.116-1.906H37.353a2.147,2.147,0,0,1,2.116,1.9c.553,4.379,2.053,18.4,2.069,18.534l-1.107.116c-.017-.141-1.524-14.147-2.066-18.515a1.04,1.04,0,0,0-1.018-.929H21.14a1.046,1.046,0,0,0-1.018.932Z" transform="translate(590.393 1387.986)" fill="#e0e0e0"/>
    <path id="Trazado_1560" data-name="Trazado 1560" d="M17.862,100.724a2.123,2.123,0,0,1,.03-.293c.03-.194.055-.476.1-.846.089-.744.216-1.84.385-3.248.337-2.819.83-6.9,1.433-11.953q.116-.946.235-1.936a2.213,2.213,0,0,1,.091-.5,1.129,1.129,0,0,1,.293-.443,1.077,1.077,0,0,1,.473-.252,2.289,2.289,0,0,1,.528-.03H37.3a1.073,1.073,0,0,1,.65.185,1.126,1.126,0,0,1,.423.537,2.969,2.969,0,0,1,.108.661l.149,1.317q.293,2.647.6,5.405c.412,3.676.83,7.488,1.275,11.4l-.08-.066,1.107-.116-.064.077c-.058-.5-.119-1.051-.18-1.6-.4-3.6-.791-7.121-1.173-10.54q-.277-2.564-.553-5.049c-.047-.412-.091-.83-.138-1.234a2.136,2.136,0,0,0-.409-1.107,2.089,2.089,0,0,0-.924-.711,2.127,2.127,0,0,0-.57-.127c-.191-.014-.4,0-.6,0H20.952A2.08,2.08,0,0,0,19.2,81.639a3.956,3.956,0,0,0-.169.907c-.075.614-.149,1.214-.224,1.806q-.216,1.768-.418,3.383c-.277,2.152-.506,4.091-.716,5.793-.426,3.392-.733,5.829-.891,7.093v-.014l.83.108.277.039-.277-.025-.83-.094h0v-.047c.152-1.267.44-3.7.83-7.1.2-1.7.44-3.64.7-5.793.13-1.076.277-2.213.409-3.386q.108-.882.219-1.806a3.947,3.947,0,0,1,.172-.929,2.213,2.213,0,0,1,1.355-1.347,2.266,2.266,0,0,1,.479-.108H37.525a2.3,2.3,0,0,1,.609.136,2.229,2.229,0,0,1,.985.758,2.3,2.3,0,0,1,.437,1.17c.044.412.091.83.138,1.237q.277,2.49.553,5.049c.382,3.419.775,6.941,1.176,10.54.061.553.122,1.093.18,1.6v.072H41.53l-1.107.119h-.072v-.072c-.434-3.912-.86-7.721-1.27-11.4l-.6-5.405c-.05-.44-.1-.88-.147-1.317a2.836,2.836,0,0,0-.1-.631.993.993,0,0,0-.371-.473.941.941,0,0,0-.575-.163H21.43a2.146,2.146,0,0,0-.5.025.952.952,0,0,0-.426.227.99.99,0,0,0-.277.4,2.06,2.06,0,0,0-.089.481c-.083.664-.16,1.314-.241,1.936-.631,5.06-1.137,9.143-1.488,11.967-.177,1.4-.315,2.49-.409,3.234l-.108.83C17.876,100.63,17.862,100.724,17.862,100.724Z" transform="translate(590.399 1387.974)" fill="#263238"/>
    <path id="Trazado_1561" data-name="Trazado 1561" d="M37.246,80.888a.277.277,0,0,1,0,.083.708.708,0,0,1,0,.246,1.2,1.2,0,0,1-.553.752,7.8,7.8,0,0,1-3.292.965,55.933,55.933,0,0,1-11.342-.1,4.078,4.078,0,0,1-1.6-.434,2.155,2.155,0,0,1-.968-1.286,7.47,7.47,0,0,1-.255-1.53c-.047-.5-.094-.99-.138-1.472-.163-1.914-.26-3.646-.313-5.1s-.066-2.631-.066-3.444V68.39a.321.321,0,0,1,0-.083.321.321,0,0,1,0,.083v.243c0,.224,0,.537.019.935.019.813.044,1.989.113,3.439s.172,3.178.343,5.093l.141,1.469a7.549,7.549,0,0,0,.255,1.5,2.019,2.019,0,0,0,.9,1.2,3.887,3.887,0,0,0,1.544.415,58.6,58.6,0,0,0,11.328.147,7.918,7.918,0,0,0,3.273-.913,1.17,1.17,0,0,0,.553-.714.75.75,0,0,0,.028-.238.345.345,0,0,1,.028-.083Z" transform="translate(591.057 1383.962)" fill="#263238"/>
  </g>
</svg>
