<svg xmlns="http://www.w3.org/2000/svg" width="158.251" height="118.822" viewBox="0 0 158.251 118.822">
  <g id="Grupo_143" data-name="Grupo 143" transform="translate(-281.538 -1381.178)">
    <circle id="Elipse_20" data-name="Elipse 20" cx="58.5" cy="58.5" r="58.5" transform="translate(302 1383)" fill="#f8d22f"/>
    <rect id="Rectángulo_112" data-name="Rectángulo 112" width="158.251" height="0.079" transform="translate(281.538 1484.801)" fill="#ebebeb"/>
    <rect id="Rectángulo_113" data-name="Rectángulo 113" width="10.483" height="0.079" transform="translate(413.45 1489.894)" fill="#ebebeb"/>
    <rect id="Rectángulo_114" data-name="Rectángulo 114" width="2.75" height="0.079" transform="translate(383.619 1490.754)" fill="#ebebeb"/>
    <rect id="Rectángulo_115" data-name="Rectángulo 115" width="6.074" height="0.079" transform="translate(407.06 1486.956)" fill="#ebebeb"/>
    <rect id="Rectángulo_116" data-name="Rectángulo 116" width="13.67" height="0.079" transform="translate(298.141 1487.488)" fill="#ebebeb"/>
    <rect id="Rectángulo_117" data-name="Rectángulo 117" width="2.003" height="0.079" transform="translate(314.631 1487.488)" fill="#ebebeb"/>
    <rect id="Rectángulo_118" data-name="Rectángulo 118" width="29.65" height="0.079" transform="translate(323.148 1488.823)" fill="#ebebeb"/>
    <path id="Trazado_1562" data-name="Trazado 1562" d="M101.128,144.507H40.014a1.807,1.807,0,0,1-1.8-1.807V56.791A1.807,1.807,0,0,1,40.014,55h61.113a1.807,1.807,0,0,1,1.807,1.807V142.7A1.807,1.807,0,0,1,101.128,144.507ZM40.014,55.063a1.728,1.728,0,0,0-1.725,1.728V142.7a1.728,1.728,0,0,0,1.725,1.728h61.113a1.731,1.731,0,0,0,1.728-1.728V56.791a1.731,1.731,0,0,0-1.728-1.728Z" transform="translate(255.421 1326.178)" fill="#ebebeb"/>
    <path id="Trazado_1563" data-name="Trazado 1563" d="M317.424,144.507H256.307A1.81,1.81,0,0,1,254.5,142.7V56.791A1.81,1.81,0,0,1,256.307,55h61.117a1.807,1.807,0,0,1,1.8,1.791V142.7A1.807,1.807,0,0,1,317.424,144.507ZM256.307,55.063a1.731,1.731,0,0,0-1.728,1.728V142.7a1.731,1.731,0,0,0,1.728,1.728h61.117a1.731,1.731,0,0,0,1.728-1.728V56.791a1.731,1.731,0,0,0-1.728-1.728Z" transform="translate(107.588 1326.178)" fill="#ebebeb"/>
    <circle id="Elipse_14" data-name="Elipse 14" cx="7.454" cy="7.454" r="7.454" transform="translate(404.847 1398.981) rotate(-76.72)" fill="#e0e0e0"/>
    <circle id="Elipse_15" data-name="Elipse 15" cx="6.34" cy="6.34" r="6.34" transform="translate(406.551 1398.684) rotate(-80.78)" fill="#f0f0f0"/>
    <path id="Trazado_1564" data-name="Trazado 1564" d="M410.657,80v4.431l-2.937-1.662" transform="translate(2.862 1309.09)" fill="#f0f0f0" stroke="#e0e0e0" stroke-linecap="round" stroke-linejoin="round" stroke-width="2"/>
    <rect id="Rectángulo_119" data-name="Rectángulo 119" width="21.718" height="39.443" transform="translate(301.173 1398.288)" fill="#e6e6e6"/>
    <rect id="Rectángulo_120" data-name="Rectángulo 120" width="18.936" height="36.52" transform="translate(302.503 1400.046)" fill="#f0f0f0"/>
    <path id="Trazado_1565" data-name="Trazado 1565" d="M76.213,114,67,148.505v-18.68L71.216,114Z" transform="translate(235.743 1285.851)" fill="#fafafa"/>
    <path id="Trazado_1566" data-name="Trazado 1566" d="M84.179,114l-9.717,36.4H72.63L82.347,114Z" transform="translate(231.895 1285.851)" fill="#fafafa"/>
    <rect id="Rectángulo_121" data-name="Rectángulo 121" width="20.414" height="1.266" transform="translate(301.794 1425.295)" fill="#e6e6e6"/>
    <path id="Trazado_1567" data-name="Trazado 1567" d="M415.922,233.023a6.443,6.443,0,0,0-1.9-5.4c-2.4-2.108-2.19-3.368-1.5-3.529s1.32,1.946,2.374,2.532c0,0,.035-3.007-1.038-4.115s-1.633-3.963-.614-4.01,1.124,1.693,1.336,2.931a10.425,10.425,0,0,0,1.348,2.978,11.666,11.666,0,0,1,.915-3.8c.693-1.108-1.155-3.64-.443-4.747s1.978,1,1.874,3.377-1.69,4.906-1.32,7.384c0,0,.7-1.741,1.326-1.9s1.266-1.31,1.681-1.738.949,1.051,0,2.424-3.377,5.039-3.007,8Z" transform="translate(-0.106 1216.434)" fill="#e6e6e6"/>
    <path id="Trazado_1568" data-name="Trazado 1568" d="M417.957,266l-.785,4.931a2.507,2.507,0,0,0,2.475,2.9h.839a2.507,2.507,0,0,0,2.478-2.9L422.179,266Z" transform="translate(-3.577 1181.96)" fill="#e6e6e6"/>
    <rect id="Rectángulo_122" data-name="Rectángulo 122" width="1.829" height="28.732" transform="translate(415.817 1456.36)" fill="#e0e0e0"/>
    <rect id="Rectángulo_123" data-name="Rectángulo 123" width="1.829" height="28.732" transform="translate(409.323 1456.36)" fill="#e6e6e6"/>
    <rect id="Rectángulo_124" data-name="Rectángulo 124" width="1.829" height="28.732" transform="translate(422.308 1456.36)" fill="#e6e6e6"/>
    <rect id="Rectángulo_125" data-name="Rectángulo 125" width="16.987" height="3.057" transform="translate(408.237 1454.524)" fill="#e6e6e6"/>
    <ellipse id="freepik--path--inject-18" cx="61.367" cy="3.583" rx="61.367" ry="3.583" transform="translate(299.297 1491.929)" fill="#f5f5f5"/>
    <path id="Trazado_1569" data-name="Trazado 1569" d="M337.7,301.98V267h-3.481v34.98l-2.215.68v1.054h7.913V302.66Z" transform="translate(54.617 1181.276)" fill="#2e353a"/>
    <path id="Trazado_1570" data-name="Trazado 1570" d="M197.7,267h-3.482v34.98l-2.216.68v1.054h7.913V302.66l-2.216-.68Z" transform="translate(150.306 1181.276)" fill="#2e353a"/>
    <path id="Trazado_1571" data-name="Trazado 1571" d="M337.7,280h-3.481v30.865l-2.215.68V312.6h7.913v-1.054l-2.216-.68Z" transform="translate(54.617 1172.391)" fill="#fff"/>
    <path id="Trazado_1572" data-name="Trazado 1572" d="M197.7,280h-3.482v30.865l-2.216.68V312.6h7.913v-1.054l-2.216-.68Z" transform="translate(150.306 1172.391)" fill="#fff"/>
    <rect id="Rectángulo_126" data-name="Rectángulo 126" width="56.132" height="69.658" transform="translate(403.27 1393.283) rotate(90)" fill="#2e353a"/>
    <rect id="Rectángulo_127" data-name="Rectángulo 127" width="56.132" height="69.658" transform="translate(403.27 1393.283) rotate(90)" fill="#fff" opacity="0.2" style="isolation: isolate"/>
    <rect id="Rectángulo_128" data-name="Rectángulo 128" width="66.231" height="53.179" transform="translate(335.302 1394.768)" fill="#407bff"/>
    <rect id="Rectángulo_129" data-name="Rectángulo 129" width="66.231" height="53.179" transform="translate(335.302 1394.768)" fill="#fff" opacity="0.3" style="isolation: isolate"/>
    <path id="Trazado_1573" data-name="Trazado 1573" d="M193.5,113v14.4h22.95Z" transform="translate(149.281 1286.535)" fill="none" stroke="#263238" stroke-miterlimit="10" stroke-width="1"/>
    <path id="Trazado_1574" data-name="Trazado 1574" d="M194.6,156.077V154.9H193.42" transform="translate(149.336 1257.897)" fill="none" stroke="#263238" stroke-miterlimit="10" stroke-width="0.793"/>
    <text id="b" transform="translate(354.014 1407.529)" fill="#263238" font-size="6" font-family="Helvetica"><tspan x="0" y="0">b</tspan></text>
    <text id="b-2" data-name="b" transform="translate(342.882 1429.276)" fill="#263238" font-size="6" font-family="Helvetica"><tspan x="0" y="0">b</tspan></text>
    <text id="c" transform="translate(350.855 1419.661)" fill="#263238" font-size="6" font-family="Helvetica"><tspan x="0" y="0">c</tspan></text>
    <text id="c-2" data-name="c" transform="translate(342.882 1433.697)" fill="#263238" font-size="6" font-family="Helvetica"><tspan x="0" y="0">c</tspan></text>
    <text id="a" transform="translate(340.23 1410.96)" fill="#263238" font-size="6" font-family="Helvetica"><tspan x="0" y="0">a</tspan></text>
    <text id="a-2" data-name="a" transform="translate(342.882 1424.851)" fill="#263238" font-size="6" font-family="Helvetica"><tspan x="0" y="0">a</tspan></text>
    <line id="Línea_1" data-name="Línea 1" x2="12.66" transform="translate(371.108 1399.693)" fill="none" stroke="#263238" stroke-miterlimit="10" stroke-width="1"/>
    <line id="Línea_2" data-name="Línea 2" x2="6.963" transform="translate(371.108 1402.225)" fill="none" stroke="#263238" stroke-miterlimit="10" stroke-width="1"/>
    <line id="Línea_3" data-name="Línea 3" x2="9.812" transform="translate(371.108 1404.124)" fill="none" stroke="#263238" stroke-miterlimit="10" stroke-width="1"/>
    <line id="Línea_4" data-name="Línea 4" x2="8.229" transform="translate(371.108 1406.34)" fill="none" stroke="#263238" stroke-miterlimit="10" stroke-width="1"/>
    <line id="Línea_5" data-name="Línea 5" x2="12.344" transform="translate(371.108 1408.872)" fill="none" stroke="#263238" stroke-miterlimit="10" stroke-width="1"/>
    <line id="Línea_6" data-name="Línea 6" x2="12.027" transform="translate(371.108 1411.087)" fill="none" stroke="#263238" stroke-miterlimit="10" stroke-width="1"/>
    <line id="Línea_7" data-name="Línea 7" x2="8.229" transform="translate(371.108 1413.303)" fill="none" stroke="#263238" stroke-miterlimit="10" stroke-width="1"/>
    <line id="Línea_8" data-name="Línea 8" x2="8.546" transform="translate(385.351 1432.61)" fill="none" stroke="#263238" stroke-miterlimit="10" stroke-width="1"/>
    <line id="Línea_9" data-name="Línea 9" x2="4.748" transform="translate(385.351 1435.142)" fill="none" stroke="#263238" stroke-miterlimit="10" stroke-width="1"/>
    <line id="Línea_10" data-name="Línea 10" x2="6.647" transform="translate(385.351 1437.041)" fill="none" stroke="#263238" stroke-miterlimit="10" stroke-width="1"/>
    <line id="Línea_11" data-name="Línea 11" x2="5.697" transform="translate(385.351 1439.256)" fill="none" stroke="#263238" stroke-miterlimit="10" stroke-width="1"/>
    <line id="Línea_12" data-name="Línea 12" x2="8.546" transform="translate(341.99 1436.724)" fill="none" stroke="#263238" stroke-miterlimit="10" stroke-width="1"/>
    <line id="Línea_13" data-name="Línea 13" x2="4.748" transform="translate(341.99 1439.256)" fill="none" stroke="#263238" stroke-miterlimit="10" stroke-width="1"/>
    <line id="Línea_14" data-name="Línea 14" x2="6.647" transform="translate(341.99 1441.155)" fill="none" stroke="#263238" stroke-miterlimit="10" stroke-width="1"/>
    <line id="Línea_15" data-name="Línea 15" x2="5.697" transform="translate(341.99 1443.371)" fill="none" stroke="#263238" stroke-miterlimit="10" stroke-width="1"/>
    <line id="Línea_16" data-name="Línea 16" x2="8.229" transform="translate(387.883 1404.124)" fill="none" stroke="#263238" stroke-miterlimit="10" stroke-width="1"/>
    <line id="Línea_17" data-name="Línea 17" x2="8.229" transform="translate(387.883 1406.34)" fill="none" stroke="#263238" stroke-miterlimit="10" stroke-width="1"/>
    <line id="Línea_18" data-name="Línea 18" x2="5.697" transform="translate(387.883 1408.555)" fill="none" stroke="#263238" stroke-miterlimit="10" stroke-width="1"/>
    <line id="Línea_19" data-name="Línea 19" x2="8.229" transform="translate(363.512 1436.724)" fill="none" stroke="#263238" stroke-miterlimit="10" stroke-width="1"/>
    <line id="Línea_20" data-name="Línea 20" x2="8.229" transform="translate(363.512 1438.939)" fill="none" stroke="#263238" stroke-miterlimit="10" stroke-width="1"/>
    <line id="Línea_21" data-name="Línea 21" x2="5.697" transform="translate(363.512 1441.155)" fill="none" stroke="#263238" stroke-miterlimit="10" stroke-width="1"/>
    <line id="Línea_22" data-name="Línea 22" x2="18.357" transform="translate(348.003 1422.165)" fill="none" stroke="#263238" stroke-miterlimit="10" stroke-width="1"/>
    <line id="Línea_23" data-name="Línea 23" x2="18.357" transform="translate(348.003 1426.28)" fill="none" stroke="#263238" stroke-miterlimit="10" stroke-width="1"/>
    <line id="Línea_24" data-name="Línea 24" x2="18.357" transform="translate(348.003 1430.394)" fill="none" stroke="#263238" stroke-miterlimit="10" stroke-width="1"/>
    <circle id="Elipse_16" data-name="Elipse 16" cx="5.776" cy="5.776" r="5.776" transform="translate(372.76 1421.076)" fill="none" stroke="#263238" stroke-miterlimit="10" stroke-width="0.793"/>
    <path id="Trazado_1575" data-name="Trazado 1575" d="M306.5,181v5.855h5.855" transform="translate(72.046 1240.057)" fill="none" stroke="#263238" stroke-miterlimit="10" stroke-width="1"/>
    <rect id="Rectángulo_130" data-name="Rectángulo 130" width="66.231" height="53.179" transform="translate(335.302 1394.768)" fill="#fff" opacity="0.6" style="isolation: isolate"/>
    <path id="Trazado_1576" data-name="Trazado 1576" d="M281.594,174.234l-4.887-2.849a9.7,9.7,0,0,1-2.333-.108c-1.266-.218-1.538-.231-1.386-1.228s-.06-2.326.317-2.466a6.734,6.734,0,0,1,3.5,1.747l4.931,1.763Z" transform="translate(94.977 1249.234)" fill="#b97964"/>
    <path id="Trazado_1577" data-name="Trazado 1577" d="M309.946,173.37v5.7s-1.215.4-2.725.823a21.481,21.481,0,0,1-4.95.949c-2.057-.1-9.02-3.716-9.02-3.716l1.266-2.412s7.6,2.589,8.546,2.4S309.946,173.37,309.946,173.37Z" transform="translate(81.102 1245.272)" fill="#407bff"/>
    <path id="Trazado_1578" data-name="Trazado 1578" d="M340.115,182.14v2.924s-1.215.4-2.725.823A9.159,9.159,0,0,1,340.115,182.14Z" transform="translate(50.933 1239.278)" opacity="0.2" style="isolation: isolate"/>
    <path id="Trazado_1579" data-name="Trazado 1579" d="M327.472,237.44s-3.431,18.281-4.345,25.789c-1.2,9.793-6.086,24.118-6.086,24.118l1.956.506s6.894-12.173,8.229-23.127c5.475-11.195,5.915-24.982,5.915-24.982Z" transform="translate(64.842 1201.48)" fill="#b97964"/>
    <path id="Trazado_1580" data-name="Trazado 1580" d="M305.192,401.109a2.825,2.825,0,0,1,1-.253h0s1.2-.709,2.4-3.456h1.339a1.107,1.107,0,0,1,1.029.737.634.634,0,0,1,.038.187,7.585,7.585,0,0,1-.1.949,27.329,27.329,0,0,1-.785,3.165l-.228-.06.415-2c.136-.68-.576-.025-.908.661a1.755,1.755,0,0,1-2.317,1.035C305.347,401.669,304.651,401.419,305.192,401.109Z" transform="translate(73.063 1092.148)" fill="#2e353a"/>
    <path id="Trazado_1581" data-name="Trazado 1581" d="M361.29,236.52s.427,18.595,1.086,26.13c.854,9.827-.969,24.855-.969,24.855l2.019.089s4.225-13.334,3.276-24.33c3.042-12.087.633-25.665.633-25.665Z" transform="translate(34.597 1202.109)" fill="#b97964"/>
    <path id="Trazado_1582" data-name="Trazado 1582" d="M351.4,401.959a2.847,2.847,0,0,1,.972-.364h0s1.12-.832,2.007-3.694l1.333-.152a1.1,1.1,0,0,1,1.1.633.609.609,0,0,1,.057.18,7.706,7.706,0,0,1,0,.972,27.033,27.033,0,0,1-.437,3.219l-.234-.035.2-2.032c.063-.69-.576.041-.832.756a1.761,1.761,0,0,1-2.193,1.282C351.616,402.5,350.9,402.326,351.4,401.959Z" transform="translate(41.464 1091.913)" fill="#2e353a"/>
    <path id="Trazado_1583" data-name="Trazado 1583" d="M360.3,131.83s1,.054,1.848,1.7-.212,3.482-.424,4.358-1.266,1.652.475,2.978,2.785,2.735,1.374,4.168.139,2.532-1.9,3.6-9.549-.529-10.5-2.586.2-3.621.256-4.235-1.206-1.244-1.522-3.254,1.3-2.44,1.522-3.358-.8-2.076,0-4.029S360.195,128.8,360.3,131.83Z" transform="translate(42.402 1275.168)" fill="#2e353a"/>
    <path id="Trazado_1584" data-name="Trazado 1584" d="M387.905,191.977c-1.2.155-2.586-2.187-3.589-4.371-.858-1.852-1.456-3.592-1.456-3.592l.633-1.785,1.652-4.659s1.155,1.611,2.893,7.745c.278.987.614,2.092.921,3.327a1.479,1.479,0,0,0,.276.87h0C389.234,190.439,389.345,191.79,387.905,191.977Z" transform="translate(19.854 1242.402)" fill="#407bff"/>
    <path id="Trazado_1585" data-name="Trazado 1585" d="M384.273,197.667c-.854-1.852-1.443-3.592-1.443-3.592l.633-1.785A12.156,12.156,0,0,1,384.273,197.667Z" transform="translate(19.874 1232.34)" opacity="0.2" style="isolation: isolate"/>
    <path id="Trazado_1586" data-name="Trazado 1586" d="M398.708,206.23h0c-.633.418-1.294.411-1.665-.351a3.931,3.931,0,0,1,.487-3.849c.282.987.6,2.092.912,3.326A1.418,1.418,0,0,0,398.708,206.23Z" transform="translate(10.38 1225.683)" opacity="0.2" style="isolation: isolate"/>
    <path id="Trazado_1587" data-name="Trazado 1587" d="M343.34,205.289a35.167,35.167,0,0,0,12.363,1.845s-.547-7.469-3.713-8.8S343.34,198.906,343.34,205.289Z" transform="translate(46.866 1228.482)" fill="#407bff"/>
    <path id="Trazado_1588" data-name="Trazado 1588" d="M343.34,205.289a35.167,35.167,0,0,0,12.363,1.845s-.547-7.469-3.713-8.8S343.34,198.906,343.34,205.289Z" transform="translate(46.866 1228.482)" opacity="0.2" style="isolation: isolate"/>
    <path id="Trazado_1589" data-name="Trazado 1589" d="M345.626,188.6l10.444.9a37.138,37.138,0,0,1,1.111-7.672c.25-1,.563-2.117.965-3.409.215-.69.453-1.431.719-2.216.2-.6.415-1.247.652-1.924a31.012,31.012,0,0,0-4.336-1.048,33.282,33.282,0,0,0-4.691-.494c-2.032,0-4.368.212-4.368.212s-.332.079-.541,2.234A93.212,93.212,0,0,0,345.626,188.6Z" transform="translate(45.475 1245.703)" fill="#407bff"/>
    <path id="Trazado_1590" data-name="Trazado 1590" d="M345.737,190.167l10.444.861a51.466,51.466,0,0,1,1.07-9.2c.25-1,.563-2.117.965-3.409.215-.69.453-1.431.719-2.216.2-.6.415-1.247.652-1.924a31.012,31.012,0,0,0-4.336-1.048,33.284,33.284,0,0,0-4.691-.494c-2.032,0-4.368.212-4.368.212s-.332.079-.541,2.234A118.485,118.485,0,0,0,345.737,190.167Z" transform="translate(45.415 1245.703)" fill="#2e353a"/>
    <path id="Trazado_1591" data-name="Trazado 1591" d="M362.4,167.813c2.576-.316,3.349-1.431,3.349-1.431-1.633-1.541-.275-4.213-.275-4.213l-3.1.579a8.769,8.769,0,0,1,.12,1.307c.025,1.88-.826,1.9-.826,1.9C361.124,166.971,362.4,167.813,362.4,167.813Z" transform="translate(34.431 1252.927)" fill="#b97964"/>
    <path id="Trazado_1592" data-name="Trazado 1592" d="M364.19,162.722a8.722,8.722,0,0,1,.12,1.307,3.454,3.454,0,0,0,2.978-1.9Z" transform="translate(32.615 1252.955)" opacity="0.2" style="isolation: isolate"/>
    <path id="Trazado_1593" data-name="Trazado 1593" d="M360.725,136.588c-2.693-.146-3.64,1.25-3.988,4.013-.437,3.456.2,5.963,3.605,5.406C364.966,145.257,365.2,136.835,360.725,136.588Z" transform="translate(37.792 1270.42)" fill="#b97964"/>
    <path id="Trazado_1594" data-name="Trazado 1594" d="M360.7,149.12a5.635,5.635,0,0,1-.845,1.073.747.747,0,0,0,.7.345Z" transform="translate(35.581 1261.847)" fill="#a24e3f"/>
    <path id="Trazado_1595" data-name="Trazado 1595" d="M367.77,147.888c0,.222.089.408.237.421s.279-.158.3-.38-.089-.408-.237-.421S367.789,147.664,367.77,147.888Z" transform="translate(30.168 1262.949)" fill="#2e353a"/>
    <path id="Trazado_1596" data-name="Trazado 1596" d="M367.9,147.068l-.469-.228S367.639,147.264,367.9,147.068Z" transform="translate(30.4 1263.406)" fill="#2e353a"/>
    <path id="Trazado_1597" data-name="Trazado 1597" d="M359.1,147.058c-.016.222.089.411.237.421s.279-.158.3-.38-.089-.408-.234-.421S359.116,146.837,359.1,147.058Z" transform="translate(36.097 1263.516)" fill="#2e353a"/>
    <path id="Trazado_1598" data-name="Trazado 1598" d="M359.228,146.245l-.469-.225S358.969,146.444,359.228,146.245Z" transform="translate(36.326 1263.966)" fill="#2e353a"/>
    <path id="Trazado_1599" data-name="Trazado 1599" d="M368.18,142.823a1.4,1.4,0,0,1,1.146.472" transform="translate(29.888 1266.153)" fill="none" stroke="#2e353a" stroke-linecap="round" stroke-linejoin="round" stroke-width="0.725"/>
    <path id="Trazado_1600" data-name="Trazado 1600" d="M359.656,142.017a1.266,1.266,0,0,0-1.086.161" transform="translate(36.456 1266.741)" fill="none" stroke="#2e353a" stroke-linecap="round" stroke-linejoin="round" stroke-width="0.725"/>
    <path id="Trazado_1601" data-name="Trazado 1601" d="M363.1,156.132a6.712,6.712,0,0,1,.263.949,1.651,1.651,0,0,0,.177,0c.788-.035,1.139-.316,1.295-.608a1,1,0,0,0,.1-.472.888.888,0,0,0-.035-.272,3.707,3.707,0,0,1-1.516.4Z" transform="translate(33.36 1257.329)" fill="#2e353a"/>
    <path id="Trazado_1602" data-name="Trazado 1602" d="M364,156.159l.085.279a2.329,2.329,0,0,0,1.481-.4.888.888,0,0,0-.035-.272A3.706,3.706,0,0,1,364,156.159Z" transform="translate(32.745 1257.302)" fill="#fff"/>
    <path id="Trazado_1603" data-name="Trazado 1603" d="M364.49,158.688c.788-.035,1.139-.316,1.295-.608a2.531,2.531,0,0,0-.867.212A.95.95,0,0,0,364.49,158.688Z" transform="translate(32.41 1255.723)" fill="#de5753"/>
    <path id="Trazado_1604" data-name="Trazado 1604" d="M363.788,139.058a8.086,8.086,0,0,1-.855-3.982s-5.219-2.472-5.779,2.931c0,0-.26-4.839,4.377-4.694s4.248,6.922,1.744,8.808C363.276,142.121,364.491,140.491,363.788,139.058Z" transform="translate(37.425 1272.653)" fill="#2e353a"/>
    <path id="Trazado_1605" data-name="Trazado 1605" d="M376.576,150.985a1.181,1.181,0,0,1,1.333-1.01c.829.136,1.133,1.871-.949,2.171C376.639,152.191,376.487,151.875,376.576,150.985Z" transform="translate(24.166 1261.27)" fill="#b97964"/>
    <path id="Trazado_1606" data-name="Trazado 1606" d="M361.622,173.814s-3.026,2.453-5.824,2.412-3.8-3.2-3.8-3.2A15.953,15.953,0,0,1,361.622,173.814Z" transform="translate(40.947 1245.781)" fill="#b97964"/>
    <path id="Trazado_1607" data-name="Trazado 1607" d="M376.979,174.92s-4.963,8.887.26,16.483a102.989,102.989,0,0,1,2.428-15.645Z" transform="translate(25.33 1244.213)" fill="#407bff"/>
    <path id="Trazado_1608" data-name="Trazado 1608" d="M345.843,172.7s-.044,6.289-.95,8.625-2.054,6.716-2.054,6.716-.874-10.476.842-15.129Z" transform="translate(47.36 1245.73)" fill="#407bff"/>
    <path id="Trazado_1609" data-name="Trazado 1609" d="M362.563,138.225a6.166,6.166,0,0,0-3.773,0c-1.766.693-1.285,2.532-2.181,2.867" transform="translate(37.796 1269.504)" fill="none" stroke="#2e353a" stroke-linecap="round" stroke-linejoin="round" stroke-width="0.5"/>
    <path id="Trazado_1610" data-name="Trazado 1610" d="M406.253,167.589l-.829-.475-3.048.832-4.115-1.067L397.312,170a21.109,21.109,0,0,0,0,3.523c.2.041,4.71.275,4.71.275l2.295-1.462Z" transform="translate(10.036 1249.708)" fill="#e0e0e0"/>
    <path id="Trazado_1611" data-name="Trazado 1611" d="M393.07,167.62l-1.82,7.207,5.618.63,3.877-1.07,1.978-6.767-4.431,1.149Z" transform="translate(14.119 1249.202)" fill="#407bff"/>
    <path id="Trazado_1612" data-name="Trazado 1612" d="M398.292,168.769l-1.424,6.688-5.618-.63,1.82-7.207Z" transform="translate(14.119 1249.202)" fill="#fff" opacity="0.4" style="isolation: isolate"/>
    <path id="Trazado_1613" data-name="Trazado 1613" d="M410.424,168.769,409,175.457l3.877-1.07,1.978-6.767Z" transform="translate(1.987 1249.202)" fill="#fff" opacity="0.2"/>
    <path id="Trazado_1614" data-name="Trazado 1614" d="M397.92,193.969l2.611-5.013a9.635,9.635,0,0,1,0-2.336c.158-1.266.158-1.548,1.158-1.443s2.323-.168,2.481.2a6.738,6.738,0,0,1-1.582,3.58l-1.535,5.01Z" transform="translate(9.56 1237.216)" fill="#b97964"/>
    <path id="Trazado_1615" data-name="Trazado 1615" d="M395.25,212.452c1.662,1.415,3.561.2,4.615-3.861l-3.27-.421Z" transform="translate(11.385 1221.487)" fill="#407bff"/>
    <path id="Trazado_1616" data-name="Trazado 1616" d="M398.588,205.35l-.668,1.177,4.14.557v-1.212Z" transform="translate(9.56 1223.414)" fill="#2e353a"/>
    <path id="Trazado_1617" data-name="Trazado 1617" d="M292.72,178.714l1.146.722.75-4.108-1.212-.057Z" transform="translate(81.464 1243.974)" fill="#2e353a"/>
    <path id="Trazado_1618" data-name="Trazado 1618" d="M332.113,227.8l-6.583,38.677s15.933,1.9,21.332.791c0,0,1.326-27.688-4.311-38.613Z" transform="translate(59.039 1208.069)" fill="#407bff"/>
    <path id="Trazado_1619" data-name="Trazado 1619" d="M332.113,227.8l-6.583,38.677s15.933,1.9,21.332.791c0,0,1.326-27.688-4.311-38.613Z" transform="translate(59.039 1208.069)" fill="#fff" opacity="0.4" style="isolation: isolate"/>
    <path id="Trazado_1620" data-name="Trazado 1620" d="M255.708,150.13l-1.639-1.693c-.978-1.022-2.307-2.361-3.627-3.706l-1.953-1.962-1.706-1.712-1.206-1.209c-.146-.146-.263-.26-.339-.339a.272.272,0,0,0-.218-.019l.446-.449a.272.272,0,0,0,.019.218l.342.339,1.215,1.2,1.716,1.7,1.975,1.943c1.351,1.314,2.7,2.637,3.722,3.611l1.7,1.63Z" transform="translate(114.067 1268.737)" fill="#2e353a"/>
    <path id="Trazado_1621" data-name="Trazado 1621" d="M311.387,395.06s-1.671,3.5-2.636,4.178c0,0,1.291.769,2.636-.95,1.741-2.215,2.165-1.582,2.165-1.582a6.192,6.192,0,0,0-.209-1.13C313.08,394.851,311.387,395.06,311.387,395.06Z" transform="translate(70.508 1093.767)" fill="#b97964"/>
    <path id="Trazado_1622" data-name="Trazado 1622" d="M357.184,395s-.475,1.3-1.108,2.722a6.151,6.151,0,0,1-1.266,1.988,1.72,1.72,0,0,0,1.693-.332c.592-.69,1.608-3.165,2.747-2.893a2.592,2.592,0,0,0-.253-.579A8.136,8.136,0,0,0,357.184,395Z" transform="translate(39.026 1093.789)" fill="#b97964"/>
    <path id="Trazado_1623" data-name="Trazado 1623" d="M189.524,329.075l.26-39.325H187.21l.256,39.325Z" transform="translate(153.58 1165.727)" fill="#407bff"/>
    <path id="Trazado_1624" data-name="Trazado 1624" d="M187.466,329.246h2.06l.206-31.419.051-7.827H187.21l.051,7.827Z" transform="translate(153.58 1165.556)" fill="#fff" opacity="0.5" style="isolation: isolate"/>
    <path id="Trazado_1625" data-name="Trazado 1625" d="M189.783,290l-.051,7.913h-2.472L187.21,290Z" transform="translate(153.58 1165.556)" opacity="0.2" style="isolation: isolate"/>
    <path id="Trazado_1626" data-name="Trazado 1626" d="M247.124,329.075l-2.31-39.325H242.24l2.826,39.325Z" transform="translate(115.967 1165.727)" fill="#407bff"/>
    <path id="Trazado_1627" data-name="Trazado 1627" d="M245.063,329.246h2.06l-2.171-36.914L244.813,290H242.24l.171,2.333Z" transform="translate(115.967 1165.556)" fill="#fff" opacity="0.5" style="isolation: isolate"/>
    <path id="Trazado_1628" data-name="Trazado 1628" d="M244.953,292.216h-2.542L242.24,290h2.573Z" transform="translate(115.967 1165.556)" opacity="0.2" style="isolation: isolate"/>
    <path id="Trazado_1629" data-name="Trazado 1629" d="M126.93,329.075l2.823-39.325H127.18l-2.31,39.325Z" transform="translate(196.189 1165.727)" fill="#407bff"/>
    <path id="Trazado_1630" data-name="Trazado 1630" d="M126.93,329.246l2.652-36.914.171-2.333H127.18l-.139,2.333-2.171,36.914Z" transform="translate(196.189 1165.556)" fill="#fff" opacity="0.3" style="isolation: isolate"/>
    <path id="Trazado_1631" data-name="Trazado 1631" d="M131.869,290h2.573l-.171,2.216H131.73Z" transform="translate(191.5 1165.556)" opacity="0.2" style="isolation: isolate"/>
    <path id="Trazado_1632" data-name="Trazado 1632" d="M125.73,285.92h41.487v1.744a.684.684,0,0,1-.684.684h-40.12a.684.684,0,0,1-.684-.684V285.92Z" transform="translate(195.602 1168.344)" fill="#407bff"/>
    <path id="Trazado_1633" data-name="Trazado 1633" d="M125.73,285.92h41.487v1.744a.684.684,0,0,1-.684.684h-40.12a.684.684,0,0,1-.684-.684V285.92Z" transform="translate(195.602 1168.344)" fill="#fff" opacity="0.4" style="isolation: isolate"/>
    <rect id="Rectángulo_131" data-name="Rectángulo 131" width="41.487" height="1.215" transform="translate(321.332 1454.265)" opacity="0.2" style="isolation: isolate"/>
    <path id="Trazado_1634" data-name="Trazado 1634" d="M164.346,283.96H120.454a.687.687,0,0,1-.684-.687h0a.684.684,0,0,1,.684-.684h43.893a.684.684,0,0,1,.684.684h0A.687.687,0,0,1,164.346,283.96Z" transform="translate(199.675 1170.621)" fill="#407bff"/>
    <path id="Trazado_1635" data-name="Trazado 1635" d="M164.346,283.96H120.454a.687.687,0,0,1-.684-.687h0a.684.684,0,0,1,.684-.684h43.893a.684.684,0,0,1,.684.684h0A.687.687,0,0,1,164.346,283.96Z" transform="translate(199.675 1170.621)" fill="#fff" opacity="0.4" style="isolation: isolate"/>
    <path id="Trazado_1636" data-name="Trazado 1636" d="M183.75,285.92v1.345a1.082,1.082,0,0,0,1.082,1.083H206.5a.687.687,0,0,0,.687-.684V285.92Z" transform="translate(155.945 1168.344)" fill="#407bff"/>
    <path id="Trazado_1637" data-name="Trazado 1637" d="M183.75,285.92v1.345a1.082,1.082,0,0,0,1.082,1.083H206.5a.687.687,0,0,0,.687-.684V285.92Z" transform="translate(155.945 1168.344)" fill="#fff" opacity="0.6" style="isolation: isolate"/>
    <rect id="Rectángulo_132" data-name="Rectángulo 132" width="23.44" height="1.215" transform="translate(339.695 1454.265)" opacity="0.2" style="isolation: isolate"/>
    <path id="Trazado_1638" data-name="Trazado 1638" d="M205.611,282.59H180.427a.687.687,0,0,0-.687.683h0a.687.687,0,0,0,.687.687h25.222a.684.684,0,0,0,.68-.756.712.712,0,0,0-.718-.614Z" transform="translate(158.686 1170.621)" fill="#407bff"/>
    <path id="Trazado_1639" data-name="Trazado 1639" d="M205.611,282.59H180.427a.687.687,0,0,0-.687.683h0a.687.687,0,0,0,.687.687h25.222a.684.684,0,0,0,.68-.756.712.712,0,0,0-.718-.614Z" transform="translate(158.686 1170.621)" fill="#fff" opacity="0.6" style="isolation: isolate"/>
    <line id="Línea_25" data-name="Línea 25" x1="2.769" y2="5.115" transform="translate(341.93 1447.533)" fill="none" stroke="#2e353a" stroke-miterlimit="10" stroke-width="2"/>
    <path id="Trazado_1640" data-name="Trazado 1640" d="M117.13,213.029s2.5-4.453,2.912-5.324,1.519-7,1.519-7a4,4,0,0,1-.2-.908c0-.316.2-1.782.2-1.782s0-.117.791-.355,1.662-.554,1.741-.2a9.629,9.629,0,0,1-.358,3.048,5.359,5.359,0,0,0-.506.633s-.668,6.539-.972,7.5-2.795,6.112-2.795,6.112Z" transform="translate(201.48 1228.917)" fill="#e4897b"/>
    <path id="Trazado_1641" data-name="Trazado 1641" d="M150.76,264.44s6.235,2.709,7.137,3.026a19.236,19.236,0,0,0,3.611.38,4.1,4.1,0,0,1,.889-.275c.316-.029,1.788.044,1.788.044s.12,0,.424.76.693,1.608.345,1.715a9.681,9.681,0,0,1-3.064-.092l-.256-.218s-3.482.829-4.463.611-7.913-2.216-7.913-2.216Z" transform="translate(179.519 1183.026)" fill="#e4897b"/>
    <path id="Trazado_1642" data-name="Trazado 1642" d="M116.4,244.249a7.645,7.645,0,0,1-1.37,3.067c-1.336,1.9-3.219,3.133-3.728,1.181-.775-2.95,2.513-6.647,2.513-6.647Z" transform="translate(205.542 1198.466)" fill="#407bff"/>
    <path id="Trazado_1643" data-name="Trazado 1643" d="M123.783,249.43a7.643,7.643,0,0,1-1.37,3.067,1.437,1.437,0,0,1-.424-1.146C122.172,250.031,123.783,249.43,123.783,249.43Z" transform="translate(198.162 1193.286)" opacity="0.2" style="isolation: isolate"/>
    <path id="Trazado_1644" data-name="Trazado 1644" d="M131.27,226.467a3.481,3.481,0,0,1-1.044,1.681,4.168,4.168,0,0,1-2.706,1.063,3.861,3.861,0,0,1-2.684-1c-1.453-1.31-1.408-2.817-1.583-5.381s2.611-4.513,5.431-3.482S131.9,224.166,131.27,226.467Z" transform="translate(197.3 1214.036)" fill="#e4897b"/>
    <path id="Trazado_1645" data-name="Trazado 1645" d="M137.65,214.3a3.728,3.728,0,0,1,3.355.427c1.383,1.149,1.307,3.915,0,5.222,0,0,.358-.475-.671-1.624A33.741,33.741,0,0,1,137.65,214.3Z" transform="translate(187.454 1217.452)" fill="#2e353a"/>
    <path id="Trazado_1646" data-name="Trazado 1646" d="M139.456,247.75a4.168,4.168,0,0,1-2.706,1.063,2.51,2.51,0,0,1,.87-1.063A2.5,2.5,0,0,0,139.456,247.75Z" transform="translate(188.07 1194.434)" opacity="0.2" style="isolation: isolate"/>
    <path id="Trazado_1647" data-name="Trazado 1647" d="M139.45,378.487l-.335,2.1-.307,1.937H136l.244-2.478.231-2.374Z" transform="translate(188.582 1105.634)" fill="#e4897b"/>
    <path id="Trazado_1648" data-name="Trazado 1648" d="M137.178,389.138l-2.848-.18a.181.181,0,0,0-.2.161h0l-.282,2.247a.449.449,0,0,0,.418.475c.994.047,1.472.019,2.725.089a23.6,23.6,0,0,0,3.349.1c1.063-.1.931-1.149.472-1.2a6.955,6.955,0,0,1-3.206-1.529A.718.718,0,0,0,137.178,389.138Z" transform="translate(190.053 1097.919)" fill="#2e353a"/>
    <path id="Trazado_1649" data-name="Trazado 1649" d="M145.584,389.72a3.221,3.221,0,0,1-.674-.133.057.057,0,0,1-.041-.047.067.067,0,0,1,.025-.06c.085-.051.836-.5,1.139-.358a.231.231,0,0,1,.127.177.316.316,0,0,1-.092.316A.687.687,0,0,1,145.584,389.72Zm.4-.478c-.161-.076-.6.111-.9.279.446.117.782.123.908.016a.225.225,0,0,0,.057-.209A.111.111,0,0,0,145.983,389.242Z" transform="translate(182.52 1097.825)" fill="#407bff"/>
    <path id="Trazado_1650" data-name="Trazado 1650" d="M144.884,388.24a.035.035,0,0,1-.025,0,.076.076,0,0,1-.029-.047c0-.022,0-.766.259-1a.317.317,0,0,1,.256-.066.228.228,0,0,1,.206.19c.038.282-.373.788-.633.921a.039.039,0,0,1-.035,0Zm.411-.988a.171.171,0,0,0-.13.048,1.322,1.322,0,0,0-.215.791,1.244,1.244,0,0,0,.481-.741c0-.035-.022-.079-.1-.095Z" transform="translate(182.547 1099.172)" fill="#407bff"/>
    <path id="Trazado_1651" data-name="Trazado 1651" d="M139.976,378.487l-.336,2.1-2.871-.541L137,377.67Z" transform="translate(188.056 1105.634)" opacity="0.2" style="isolation: isolate"/>
    <path id="Trazado_1652" data-name="Trazado 1652" d="M139.783,323.359c-1.3-1.715-4.665-2.586-7.371-3.019l-.911,6.789a3.065,3.065,0,0,1,2.453,1.649c.44,1.817-1.662,11.29-1.662,11.29l4.371,1.054S142.1,326.42,139.783,323.359Z" transform="translate(191.658 1144.819)" fill="#2e353a"/>
    <path id="Trazado_1653" data-name="Trazado 1653" d="M139.783,323.359c-1.3-1.715-4.665-2.586-7.371-3.019l-.911,6.789a3.065,3.065,0,0,1,2.453,1.649c.44,1.817-1.662,11.29-1.662,11.29l4.371,1.054S142.1,326.42,139.783,323.359Z" transform="translate(191.658 1144.819)" opacity="0.2" style="isolation: isolate"/>
    <path id="Trazado_1654" data-name="Trazado 1654" d="M164.45,378.487l-.336,2.1-.307,1.937H161l.244-2.478.231-2.374Z" transform="translate(171.495 1105.634)" fill="#e4897b"/>
    <path id="Trazado_1655" data-name="Trazado 1655" d="M162.178,389.138l-2.849-.18a.181.181,0,0,0-.2.161h0l-.282,2.247a.45.45,0,0,0,.418.475c.994.047,1.472.019,2.725.089a23.605,23.605,0,0,0,3.349.1c1.063-.1.93-1.149.472-1.2a6.954,6.954,0,0,1-3.206-1.529A.718.718,0,0,0,162.178,389.138Z" transform="translate(172.966 1097.919)" fill="#2e353a"/>
    <path id="Trazado_1656" data-name="Trazado 1656" d="M170.584,389.72a3.219,3.219,0,0,1-.674-.133.057.057,0,0,1-.041-.047.066.066,0,0,1,.025-.06c.085-.051.836-.5,1.139-.358a.231.231,0,0,1,.127.177.316.316,0,0,1-.092.316A.687.687,0,0,1,170.584,389.72Zm.4-.478c-.161-.076-.6.111-.9.279.446.117.782.123.908.016a.225.225,0,0,0,.057-.209A.111.111,0,0,0,170.983,389.242Z" transform="translate(165.433 1097.825)" fill="#407bff"/>
    <path id="Trazado_1657" data-name="Trazado 1657" d="M169.884,388.24a.035.035,0,0,1-.025,0,.075.075,0,0,1-.029-.047c0-.022,0-.766.26-1a.317.317,0,0,1,.256-.066.228.228,0,0,1,.206.19c.038.282-.373.788-.633.921a.039.039,0,0,1-.035,0Zm.411-.988a.171.171,0,0,0-.13.048,1.322,1.322,0,0,0-.215.791,1.244,1.244,0,0,0,.481-.741c0-.035-.022-.079-.1-.095Z" transform="translate(165.459 1099.172)" fill="#407bff"/>
    <path id="Trazado_1658" data-name="Trazado 1658" d="M164.976,378.487l-.336,2.1-2.871-.541L162,377.67Z" transform="translate(170.968 1105.634)" opacity="0.2" style="isolation: isolate"/>
    <path id="Trazado_1659" data-name="Trazado 1659" d="M126.075,246.17c0,1.507-.177,2.937-1.1,3.608a17.7,17.7,0,0,0,4.254,2.69c1.646-1.168.886-2.133.886-2.133-1.44-.788-.991-2.633-.541-3.8,0,0-.354-.573-2.374-.579C126.3,245.943,126.075,246.17,126.075,246.17Z" transform="translate(196.121 1195.659)" fill="#e4897b"/>
    <path id="Trazado_1660" data-name="Trazado 1660" d="M102.822,315.19s-2.943,8.324,5.4,8.324,9.017-3.254,8.311-7.083Z" transform="translate(211.604 1148.339)" fill="#2e353a"/>
    <path id="Trazado_1661" data-name="Trazado 1661" d="M127.69,319s8.894.373,11.217,3.434-3.121,17.772-3.121,17.772l-4.371-1.054s2.4-10.03,1.5-11.328-5.824-1.377-12.47-1.725S127.69,319,127.69,319Z" transform="translate(200.447 1145.735)" fill="#2e353a"/>
    <path id="Trazado_1662" data-name="Trazado 1662" d="M122.38,253.047l.829-1.946s4.732.171,6.169,2.326S122.38,253.047,122.38,253.047Z" transform="translate(197.891 1192.144)" fill="#407bff"/>
    <path id="Trazado_1663" data-name="Trazado 1663" d="M119.406,256.89c.142,2.434,0,7.435-1.785,16.616l-13.711-1.241c.089-1.94,2.991-8.59,2.374-17.344a2.364,2.364,0,0,1,2.19-2.532h.079c.674-.025,4.786,1.19,6.716,1.481.744.136,1.465.317,2.079.491A2.8,2.8,0,0,1,119.406,256.89Z" transform="translate(210.516 1191.263)" fill="#407bff"/>
    <path id="Trazado_1664" data-name="Trazado 1664" d="M119.406,256.89c.142,2.434,0,7.435-1.785,16.616l-13.711-1.241c.089-1.94,2.991-8.59,2.374-17.344a2.364,2.364,0,0,1,2.19-2.532h.079c.674-.025,4.786,1.19,6.716,1.481.744.136,1.465.317,2.079.491A2.8,2.8,0,0,1,119.406,256.89Z" transform="translate(210.516 1191.263)" opacity="0.2" style="isolation: isolate"/>
    <path id="Trazado_1665" data-name="Trazado 1665" d="M143.594,258.585c-1.507-.316-1.674,4.077-.579,5.343s6.935,2.216,6.935,2.216l1.082-3.956S146.231,259.155,143.594,258.585Z" transform="translate(184.27 1187.039)" fill="#407bff"/>
    <path id="Trazado_1666" data-name="Trazado 1666" d="M120.217,224.6s-1.928-.529-2.823-4.665,3.045-5.982,7.511-5.086,2.282,7.28-1.6,9.751A4.659,4.659,0,0,1,120.217,224.6Z" transform="translate(201.387 1217.071)" fill="#2e353a"/>
    <path id="Trazado_1667" data-name="Trazado 1667" d="M141.927,232.71a2.057,2.057,0,0,0,.836,1.266c.548.361.972-.19.95-.9-.025-.633-.339-1.6-.95-1.668S141.775,232.039,141.927,232.71Z" transform="translate(184.554 1205.605)" fill="#e4897b"/>
    <path id="Trazado_1668" data-name="Trazado 1668" d="M124.137,367.522h1.978l.386-16.594.114-4.928H123.64l.114,4.928Z" transform="translate(197.03 1127.28)" fill="#407bff"/>
    <path id="Trazado_1669" data-name="Trazado 1669" d="M124.137,367.522h1.978l.386-16.594.114-4.928H123.64l.114,4.928Z" transform="translate(197.03 1127.28)" fill="#fff" opacity="0.4" style="isolation: isolate"/>
    <path id="Trazado_1670" data-name="Trazado 1670" d="M126.615,346l-.114,5.064h-2.747L123.64,346Z" transform="translate(197.03 1127.28)" opacity="0.2" style="isolation: isolate"/>
    <path id="Trazado_1671" data-name="Trazado 1671" d="M153.086,368.274l-1.25-21.174H149.25L151,368.274Z" transform="translate(179.526 1126.528)" fill="#407bff"/>
    <path id="Trazado_1672" data-name="Trazado 1672" d="M151,368.206h2.089l-1.108-18.769L151.836,347H149.25l.2,2.437Z" transform="translate(179.526 1126.597)" fill="#fff" opacity="0.5" style="isolation: isolate"/>
    <path id="Trazado_1673" data-name="Trazado 1673" d="M149.25,347l.2,2.532h2.529L151.836,347Z" transform="translate(179.526 1126.597)" opacity="0.2" style="isolation: isolate"/>
    <path id="Trazado_1674" data-name="Trazado 1674" d="M97.393,368.274l1.75-21.174H96.557L95.31,368.274Z" transform="translate(216.394 1126.528)" fill="#407bff"/>
    <path id="Trazado_1675" data-name="Trazado 1675" d="M97.4,368.206l1.545-18.769.2-2.437H96.557l-.142,2.437-1.1,18.769Z" transform="translate(216.394 1126.597)" fill="#fff" opacity="0.5" style="isolation: isolate"/>
    <path id="Trazado_1676" data-name="Trazado 1676" d="M101.528,347l-.2,2.532H98.8L98.942,347Z" transform="translate(214.008 1126.597)" opacity="0.2" style="isolation: isolate"/>
    <path id="Trazado_1677" data-name="Trazado 1677" d="M96.463,338.33h18.015a1.582,1.582,0,0,1,1.583,1.582v2.111H94.88v-2.117A1.583,1.583,0,0,1,96.463,338.33Z" transform="translate(216.688 1132.523)" fill="#407bff"/>
    <rect id="Rectángulo_133" data-name="Rectángulo 133" width="1.583" height="22.889" transform="translate(318.309 1450.706) rotate(-7.8)" fill="#407bff"/>
    <rect id="Rectángulo_134" data-name="Rectángulo 134" width="1.583" height="22.889" transform="translate(308.496 1450.705) rotate(-7.8)" fill="#407bff"/>
    <rect id="Rectángulo_135" data-name="Rectángulo 135" width="1.583" height="22.889" transform="translate(318.309 1450.706) rotate(-7.8)" fill="#fff"/>
    <rect id="Rectángulo_136" data-name="Rectángulo 136" width="1.583" height="22.889" transform="translate(308.496 1450.705) rotate(-7.8)" fill="#fff"/>
    <rect id="Rectángulo_137" data-name="Rectángulo 137" width="23.209" height="1.848" rx="0.924" transform="translate(310.552 1472.704)" fill="#407bff"/>
    <rect id="Rectángulo_138" data-name="Rectángulo 138" width="23.209" height="1.848" rx="0.924" transform="translate(310.552 1472.704)" fill="#fff" opacity="0.6" style="isolation: isolate"/>
    <path id="Trazado_1678" data-name="Trazado 1678" d="M95.208,279.316H81.127L80,270.53H94.081Z" transform="translate(226.858 1178.864)" fill="#407bff"/>
    <path id="Trazado_1679" data-name="Trazado 1679" d="M95.208,279.316H81.127L80,270.53H94.081Z" transform="translate(226.858 1178.864)" fill="#fff" opacity="0.6" style="isolation: isolate"/>
  </g>
</svg>
