<svg xmlns="http://www.w3.org/2000/svg" width="168.398" height="124.82" viewBox="0 0 168.398 124.82">
  <g id="Grupo_139" data-name="Grupo 139" transform="translate(-1494.974 -1364.331)">
    <ellipse id="Elipse_28" data-name="Elipse 28" cx="58.414" cy="59.036" rx="58.414" ry="59.036" transform="translate(1521.075 1364.331)" fill="#f8d22f"/>
    <ellipse id="freepik--floor--inject-17" cx="84.199" cy="50.089" rx="84.199" ry="50.089" transform="translate(1494.974 1380.104)" fill="#f5f5f5"/>
    <path id="freepik--Shadow--inject-17" d="M296.527,262.524l27.756-16.011a1.207,1.207,0,0,0,0-2.289L284.23,221.052a4.383,4.383,0,0,0-3.969,0L252.5,237.063a1.207,1.207,0,0,0,0,2.289l40.053,23.171A4.383,4.383,0,0,0,296.527,262.524Z" transform="translate(1328.091 1166.144)" fill="#e0e0e0"/>
    <path id="freepik--shadow--inject-17-2" data-name="freepik--shadow--inject-17" d="M101.208,339.362,59.616,315.384a1.292,1.292,0,0,1,0-2.448l57.865-33.413a4.691,4.691,0,0,1,4.245,0L163.318,303.5a1.292,1.292,0,0,1,0,2.448l-57.868,33.413A4.691,4.691,0,0,1,101.208,339.362Z" transform="translate(1452.775 1128.379)" fill="#e0e0e0"/>
    <ellipse id="Elipse_1" data-name="Elipse 1" cx="11.738" cy="6.778" rx="11.738" ry="6.778" transform="translate(1510.982 1452.875)" fill="#e0e0e0"/>
    <path id="Trazado_1" data-name="Trazado 1" d="M242.249,433.967l.039-.046,2.094-2.3h0V431.6a.208.208,0,0,1,.039-.039l.021-.025h0a1.054,1.054,0,0,1,1.309,0,3.62,3.62,0,0,1,1.641,2.83,1.067,1.067,0,0,1-.633,1.129h-.025l-.117.025h-.028l-3.032.661a.739.739,0,0,1-.531-.113,2.077,2.077,0,0,1-.937-1.624A.784.784,0,0,1,242.249,433.967Z" transform="translate(1334.286 1029.956)" fill="#e0e0e0"/>
    <path id="Trazado_2" data-name="Trazado 2" d="M288.893,374.085l-44.139,25.51-6.113,1.245a.187.187,0,0,1-.2-.272l1.914-3.513L284.5,371.541C285.7,370.844,289.838,373.54,288.893,374.085Z" transform="translate(1336.659 1068.659)" fill="#e0e0e0"/>
    <path id="freepik--shadow--inject-17-3" data-name="freepik--shadow--inject-17" d="M310.1,392.937c.442,1.2,1.726,1.953,3.87,2.232L352.2,372.9l3.969-4.022a.308.308,0,0,0-.315-.509l-7.309,2.42Z" transform="translate(1290.335 1070.643)" fill="#e0e0e0"/>
    <path id="Trazado_3" data-name="Trazado 3" d="M326.715,251.106l-24.618,13.9-37.807-21.7,24.615-13.9Z" transform="translate(1319.939 1170.267)" fill="#407bff"/>
    <path id="Trazado_4" data-name="Trazado 4" d="M326.715,251.106l-24.618,13.9-37.807-21.7,24.615-13.9Z" transform="translate(1319.939 1170.267)" opacity="0.6"/>
    <path id="Trazado_5" data-name="Trazado 5" d="M370.333,294.432l23.791-13.5c-.591-1.677-.548-2.186.124-4.418L370.6,289.889S370.17,289.843,370.333,294.432Z" transform="translate(1251.434 1139.829)" fill="#f5f5f5"/>
    <path id="Trazado_6" data-name="Trazado 6" d="M370.452,284.8a4.766,4.766,0,0,0-2.172,3.743v2.94c0,1.376.973,1.935,2.172,1.249l23.462-13.33v-1.083l-23.164,13.089c-.707.41-1.305.078-1.3-.75l.018-2.6a2.873,2.873,0,0,1,1.309-2.246l23.136-13.089V271.49Z" transform="translate(1252.737 1143.073)" fill="#407bff"/>
    <path id="Trazado_7" data-name="Trazado 7" d="M370.452,284.8a4.766,4.766,0,0,0-2.172,3.743v2.94c0,1.376.973,1.935,2.172,1.249l23.462-13.33v-1.083l-23.164,13.089c-.707.41-1.305.078-1.3-.75l.018-2.6a2.873,2.873,0,0,1,1.309-2.246l23.136-13.089V271.49Z" transform="translate(1252.737 1143.073)" opacity="0.5"/>
    <path id="Trazado_8" data-name="Trazado 8" d="M324.85,231.806l-37.806-21.7-23.458,13.326a4.772,4.772,0,0,0-2.176,3.743V230.1a1.51,1.51,0,0,0,.637,1.4l37.807,21.693a1.5,1.5,0,0,1-.637-1.394v-2.929a4.775,4.775,0,0,1,2.172-3.743Z" transform="translate(1321.8 1182.74)" fill="#407bff"/>
    <path id="Trazado_9" data-name="Trazado 9" d="M324.85,231.806l-37.806-21.7-23.458,13.326a4.772,4.772,0,0,0-2.176,3.743V230.1a1.51,1.51,0,0,0,.637,1.4l37.807,21.693a1.5,1.5,0,0,1-.637-1.394v-2.929a4.775,4.775,0,0,1,2.172-3.743Z" transform="translate(1321.8 1182.74)" opacity="0.35"/>
    <path id="Trazado_10" data-name="Trazado 10" d="M299.85,274.046a4.419,4.419,0,0,0-.637,2.123v2.95a1.5,1.5,0,0,0,.637,1.394l-37.8-21.707a1.506,1.506,0,0,1-.637-1.4v-2.926a4.419,4.419,0,0,1,.637-2.123Z" transform="translate(1321.8 1155.436)" fill="#407bff"/>
    <path id="Trazado_11" data-name="Trazado 11" d="M299.85,274.046a4.419,4.419,0,0,0-.637,2.123v2.95a1.5,1.5,0,0,0,.637,1.394l-37.8-21.707a1.506,1.506,0,0,1-.637-1.4v-2.926a4.419,4.419,0,0,1,.637-2.123Z" transform="translate(1321.8 1155.436)" opacity="0.45"/>
    <path id="Trazado_12" data-name="Trazado 12" d="M276.681,260.54c-.708,3.06-.708,4.245,0,6.5l1.8,1.04c-.707-2.243-.707-3.438,0-6.5Z" transform="translate(1312.275 1150.15)" fill="#407bff"/>
    <path id="Trazado_13" data-name="Trazado 13" d="M346.771,300.82c-.708,3.06-.708,4.217,0,6.46l1.8,1.04c-.708-2.246-.708-3.4,0-6.46Z" transform="translate(1266.98 1124.119)" fill="#407bff"/>
    <path id="Trazado_14" data-name="Trazado 14" d="M340.755,230.776l-24.618,13.9-37.807-21.7,24.615-13.9Z" transform="translate(1310.866 1183.405)" fill="#407bff"/>
    <path id="Trazado_15" data-name="Trazado 15" d="M340.755,230.776l-24.618,13.9-37.807-21.7,24.615-13.9Z" transform="translate(1310.866 1183.405)" opacity="0.4"/>
    <path id="Trazado_16" data-name="Trazado 16" d="M384.377,273.633l23.791-13.514c-.591-1.677-.548-2.427.12-4.659l-23.642,13.376S384.222,269.044,384.377,273.633Z" transform="translate(1242.356 1153.433)" fill="#f5f5f5"/>
    <path id="Trazado_17" data-name="Trazado 17" d="M384.486,263.785a4.776,4.776,0,0,0-2.176,3.743v3.166c0,1.376.973,1.935,2.176,1.245l23.462-13.326V257.53L384.783,270.62c-.708.414-1.306.078-1.306-.746l.021-2.83A2.87,2.87,0,0,1,384.8,264.8l23.14-13.089V250.48Z" transform="translate(1243.67 1156.651)" fill="#407bff"/>
    <path id="Trazado_18" data-name="Trazado 18" d="M384.486,263.785a4.776,4.776,0,0,0-2.176,3.743v3.166c0,1.376.973,1.935,2.176,1.245l23.462-13.326V257.53L384.783,270.62c-.708.414-1.306.078-1.306-.746l.021-2.83A2.87,2.87,0,0,1,384.8,264.8l23.14-13.089V250.48Z" transform="translate(1243.67 1156.651)" opacity="0.25"/>
    <path id="Trazado_19" data-name="Trazado 19" d="M338.89,210.8l-37.807-21.7-23.462,13.326a4.766,4.766,0,0,0-2.172,3.743v3.184a1.5,1.5,0,0,0,.637,1.394l37.807,21.7a1.506,1.506,0,0,1-.637-1.4v-3.166a4.765,4.765,0,0,1,2.172-3.743Z" transform="translate(1312.727 1196.317)" fill="#407bff"/>
    <path id="Trazado_20" data-name="Trazado 20" d="M313.89,253a4.4,4.4,0,0,0-.637,2.123v3.166a1.51,1.51,0,0,0,.637,1.4L276.087,238a1.5,1.5,0,0,1-.637-1.394v-3.184a4.4,4.4,0,0,1,.637-2.123Z" transform="translate(1312.727 1169.046)" fill="#407bff"/>
    <path id="Trazado_21" data-name="Trazado 21" d="M313.89,253a4.4,4.4,0,0,0-.637,2.123v3.166a1.51,1.51,0,0,0,.637,1.4L276.087,238a1.5,1.5,0,0,1-.637-1.394v-3.184a4.4,4.4,0,0,1,.637-2.123Z" transform="translate(1312.727 1169.046)" opacity="0.15"/>
    <path id="Trazado_22" data-name="Trazado 22" d="M290.711,239.52c-.707,3.06-.707,4.5,0,6.743l1.8,1.04c-.708-2.246-.708-3.683,0-6.743Z" transform="translate(1303.208 1163.734)" fill="#407bff"/>
    <path id="Trazado_23" data-name="Trazado 23" d="M360.811,279.85c-.708,3.06-.708,4.447,0,6.69l1.8,1.04c-.708-2.243-.708-3.64,0-6.7Z" transform="translate(1257.907 1137.671)" fill="#407bff"/>
    <g id="Grupo_1" data-name="Grupo 1" transform="translate(1593.388 1403.254)" opacity="0.4">
      <path id="Trazado_24" data-name="Trazado 24" d="M290.711,239.52c-.707,3.06-.707,4.5,0,6.743l1.8,1.04c-.708-2.246-.708-3.683,0-6.743Z" transform="translate(-290.18 -239.52)" fill="#fff"/>
      <path id="Trazado_25" data-name="Trazado 25" d="M360.811,279.85c-.708,3.06-.708,4.447,0,6.69l1.8,1.04c-.708-2.243-.708-3.64,0-6.7Z" transform="translate(-335.481 -265.583)" fill="#fff"/>
    </g>
    <path id="Trazado_26" data-name="Trazado 26" d="M78.5,320.249l38.238,21.724L172.2,310.135,133.966,288.41Z" transform="translate(1440.003 1132.14)" fill="#407bff"/>
    <path id="Trazado_27" data-name="Trazado 27" d="M78.5,320.249l38.238,21.724L172.2,310.135,133.966,288.41Z" transform="translate(1440.003 1132.14)" opacity="0.4"/>
    <path id="Trazado_28" data-name="Trazado 28" d="M118.925,388.722,81.571,367.411c.633-1.794.584-2.6-.131-4.981l37.2,21.166S119.1,383.819,118.925,388.722Z" transform="translate(1438.104 1084.305)" fill="#f5f5f5"/>
    <path id="Trazado_29" data-name="Trazado 29" d="M115.51,378.159a5.094,5.094,0,0,1,2.324,4v3.382c0,1.475-1.04,2.07-2.324,1.334l-37-21.109v-1.157l36.685,20.84c.768.442,1.39.085,1.39-.8l-.021-3.039a3.061,3.061,0,0,0-1.394-2.4L78.51,358.359V357.05Z" transform="translate(1439.997 1087.781)" fill="#407bff"/>
    <path id="Trazado_30" data-name="Trazado 30" d="M115.51,378.159a5.094,5.094,0,0,1,2.324,4v3.382c0,1.475-1.04,2.07-2.324,1.334l-37-21.109v-1.157l36.685,20.84c.768.442,1.39.085,1.39-.8l-.021-3.039a3.061,3.061,0,0,0-1.394-2.4L78.51,358.359V357.05Z" transform="translate(1439.997 1087.781)" opacity="0.3"/>
    <path id="Trazado_31" data-name="Trazado 31" d="M78.51,298.889l55.463-31.839,37,21.109a5.094,5.094,0,0,1,2.324,4v3.382a1.614,1.614,0,0,1-.679,1.493L117.151,328.87a1.617,1.617,0,0,0,.679-1.493v-3.389a5.1,5.1,0,0,0-2.321-4Z" transform="translate(1439.997 1145.943)" fill="#407bff"/>
    <path id="Trazado_32" data-name="Trazado 32" d="M78.51,298.889l55.463-31.839,37,21.109a5.094,5.094,0,0,1,2.324,4v3.382a1.614,1.614,0,0,1-.679,1.493L117.151,328.87a1.617,1.617,0,0,0,.679-1.493v-3.389a5.1,5.1,0,0,0-2.321-4Z" transform="translate(1439.997 1145.943)" opacity="0.2"/>
    <path id="Trazado_33" data-name="Trazado 33" d="M187.75,363.416a4.694,4.694,0,0,1,.679,2.275v3.385a1.617,1.617,0,0,1-.679,1.493l55.466-31.839a1.613,1.613,0,0,0,.679-1.493v-3.393a4.729,4.729,0,0,0-.679-2.275Z" transform="translate(1369.402 1104.248)" fill="#407bff"/>
    <path id="Trazado_34" data-name="Trazado 34" d="M187.75,363.416a4.681,4.681,0,0,1,.679,2.275v3.385a1.622,1.622,0,0,1-.679,1.493l55.463-31.839a1.619,1.619,0,0,0,.683-1.493v-3.393a4.679,4.679,0,0,0-.679-2.275Z" transform="translate(1369.402 1104.248)" fill="#407bff"/>
    <path id="Trazado_35" data-name="Trazado 35" d="M325.584,340.36c.754,3.269.743,4.8,0,7.2l-1.924,1.111c.743-2.4.753-3.934,0-7.2Z" transform="translate(1281.572 1098.567)" fill="#407bff"/>
    <path id="Trazado_36" data-name="Trazado 36" d="M208.1,407.89c.753,3.269.743,4.758,0,7.157l-1.921,1.1c.739-2.4.75-3.891,0-7.153Z" transform="translate(1357.492 1054.927)" fill="#407bff"/>
    <g id="Grupo_2" data-name="Grupo 2" transform="translate(1563.672 1438.927)" opacity="0.4">
      <path id="Trazado_37" data-name="Trazado 37" d="M325.584,340.36c.754,3.269.743,4.8,0,7.2l-1.924,1.111c.743-2.4.753-3.934,0-7.2Z" transform="translate(-282.1 -340.36)" fill="#fff"/>
      <path id="Trazado_38" data-name="Trazado 38" d="M208.1,407.89c.753,3.269.743,4.758,0,7.157l-1.921,1.1c.739-2.4.75-3.891,0-7.153Z" transform="translate(-206.18 -384)" fill="#fff"/>
    </g>
    <path id="Trazado_39" data-name="Trazado 39" d="M64.65,299.479,102.888,321.2l55.463-31.839L120.116,267.64Z" transform="translate(1448.953 1145.562)" fill="#407bff"/>
    <path id="Trazado_40" data-name="Trazado 40" d="M64.65,299.479,102.888,321.2l55.463-31.839L120.116,267.64Z" transform="translate(1448.953 1145.562)" fill="#fff" opacity="0.2"/>
    <path id="Trazado_41" data-name="Trazado 41" d="M105.1,368.43l-37.34-21.318c.633-1.793.584-2.338-.131-4.723l37.2,21.162S105.26,363.52,105.1,368.43Z" transform="translate(1447.028 1097.255)" fill="#f5f5f5"/>
    <path id="Trazado_42" data-name="Trazado 42" d="M101.66,358.113a5.094,5.094,0,0,1,2.324,4v3.124c0,1.475-1.04,2.069-2.324,1.334l-37-21.109V344.3l36.685,20.84c.768.442,1.39.085,1.39-.8l-.021-2.781a3.067,3.067,0,0,0-1.394-2.4L64.66,338.312V337Z" transform="translate(1448.947 1100.738)" fill="#407bff"/>
    <path id="Trazado_43" data-name="Trazado 43" d="M101.66,358.113a5.094,5.094,0,0,1,2.324,4v3.124c0,1.475-1.04,2.069-2.324,1.334l-37-21.109V344.3l36.685,20.84c.768.442,1.39.085,1.39-.8l-.021-2.781a3.067,3.067,0,0,0-1.394-2.4L64.66,338.312V337Z" transform="translate(1448.947 1100.738)" fill="#fff" opacity="0.4"/>
    <path id="Trazado_44" data-name="Trazado 44" d="M64.65,278.839,120.116,247l36.989,21.113a5.1,5.1,0,0,1,2.335,4v3.124a1.608,1.608,0,0,1-.683,1.493L103.3,308.555a1.621,1.621,0,0,0,.679-1.493v-3.106a5.105,5.105,0,0,0-2.321-4Z" transform="translate(1448.953 1158.9)" fill="#407bff"/>
    <path id="Trazado_45" data-name="Trazado 45" d="M64.65,278.839,120.116,247l36.989,21.113a5.1,5.1,0,0,1,2.335,4v3.124a1.608,1.608,0,0,1-.683,1.493L103.3,308.555a1.621,1.621,0,0,0,.679-1.493v-3.106a5.105,5.105,0,0,0-2.321-4Z" transform="translate(1448.953 1158.9)" fill="#fff" opacity="0.85"/>
    <path id="Trazado_46" data-name="Trazado 46" d="M173.9,343.4a4.68,4.68,0,0,1,.679,2.275V348.8a1.621,1.621,0,0,1-.679,1.493l55.463-31.839a1.608,1.608,0,0,0,.683-1.493v-3.12a4.687,4.687,0,0,0-.683-2.275Z" transform="translate(1378.352 1117.173)" fill="#407bff"/>
    <path id="Trazado_47" data-name="Trazado 47" d="M173.9,343.4a4.68,4.68,0,0,1,.679,2.275V348.8a1.621,1.621,0,0,1-.679,1.493l55.463-31.839a1.608,1.608,0,0,0,.683-1.493v-3.12a4.687,4.687,0,0,0-.683-2.275Z" transform="translate(1378.352 1117.173)" fill="#fff" opacity="0.6"/>
    <path id="Trazado_48" data-name="Trazado 48" d="M311.734,320.32c.754,3.269.743,4.546,0,6.944l-1.924,1.111c.743-2.4.753-3.675,0-6.948Z" transform="translate(1290.522 1111.518)" fill="#fff"/>
    <path id="Trazado_49" data-name="Trazado 49" d="M194.244,387.82c.754,3.269.743,4.507,0,6.905l-1.924,1.107c.743-2.395.754-3.633,0-6.9Z" transform="translate(1366.449 1067.897)" fill="#fff"/>
    <path id="Trazado_50" data-name="Trazado 50" d="M307.85,180.944v14.4c0,2.073,1.822,4.146,5.437,5.727,7.245,3.184,18.994,3.184,26.239,0,3.626-1.588,5.434-3.665,5.434-5.745v-14.38h0c.042-2.123-1.769-4.21-5.43-5.816-7.245-3.184-18.994-3.184-26.239,0-3.672,1.6-5.48,3.718-5.437,5.816Z" transform="translate(1291.789 1238.182)" fill="#37474f"/>
    <path id="Trazado_51" data-name="Trazado 51" d="M307.847,180.944c-.042-2.123,1.769-4.21,5.434-5.816,7.245-3.184,18.994-3.184,26.239,0,3.665,1.606,5.473,3.711,5.43,5.816h0v6.576c0-1.631-1.447-2.8-5.731-1.22-7.022,2.586-10.967,6.856-18.127,8.968-5.922,1.744-11.168,1.061-13.252-1.107V180.944Z" transform="translate(1291.795 1238.182)" fill="#263238"/>
    <path id="Trazado_52" data-name="Trazado 52" d="M307.85,217.444v1.634c0,2.07,1.822,4.146,5.437,5.724,7.245,3.184,18.994,3.184,26.239,0,3.651-1.6,5.459-3.7,5.434-5.791V217.43c0,2.077-1.808,4.153-5.434,5.745-7.245,3.184-18.993,3.184-26.239,0C309.672,221.59,307.861,219.521,307.85,217.444Z" transform="translate(1291.789 1209.302)" fill="#407bff"/>
    <path id="Trazado_53" data-name="Trazado 53" d="M336.191,157.792,307.037,144.02,277.88,157.792v2.3l29.157,12.244,29.154-12.244Z" transform="translate(1311.157 1256.741)" fill="#37474f"/>
    <path id="Trazado_54" data-name="Trazado 54" d="M360.3,197.49v-2.3l29.154-12.244v2.3Z" transform="translate(1257.894 1231.584)" fill="#407bff" opacity="0.2"/>
    <path id="Trazado_55" data-name="Trazado 55" d="M360.3,195.194l28.736-11.561.417,1.613v-2.3Z" transform="translate(1257.894 1231.584)" fill="#407bff" opacity="0.2"/>
    <path id="Trazado_56" data-name="Trazado 56" d="M307.037,144.02,277.88,157.792l29.157,12.244,29.154-12.244Z" transform="translate(1311.157 1256.741)" fill="#455a64"/>
    <path id="Trazado_57" data-name="Trazado 57" d="M316.1,190.855c0-.191-.092-4.666.354-5.94s2.1-2.565,5.557-4.319a36.412,36.412,0,0,1,7.765-2.866l.141.637a35.621,35.621,0,0,0-7.613,2.809c-3.247,1.648-4.861,2.869-5.232,3.952a29.03,29.03,0,0,0-.308,5.713Z" transform="translate(1286.466 1234.957)" fill="#407bff"/>
    <path id="Trazado_58" data-name="Trazado 58" d="M316.1,190.855c0-.191-.092-4.666.354-5.94s2.1-2.565,5.557-4.319a36.412,36.412,0,0,1,7.765-2.866l.141.637a35.621,35.621,0,0,0-7.613,2.809c-3.247,1.648-4.861,2.869-5.232,3.952a29.03,29.03,0,0,0-.308,5.713Z" transform="translate(1286.466 1234.957)" fill="#fff" opacity="0.8"/>
    <path id="Trazado_59" data-name="Trazado 59" d="M314.141,233.254c0-3.35-.555-9.35-2.314-11.094H309.51c-1.769,1.744-2.31,7.744-2.31,11.094h0a1.715,1.715,0,0,0,1.015,1.415,5.419,5.419,0,0,0,4.907,0A1.728,1.728,0,0,0,314.141,233.254Z" transform="translate(1292.209 1206.245)" fill="#407bff"/>
    <path id="Trazado_60" data-name="Trazado 60" d="M314.141,233.254c0-3.35-.555-9.35-2.314-11.094H309.51c-1.769,1.744-2.31,7.744-2.31,11.094h0a1.715,1.715,0,0,0,1.015,1.415,5.419,5.419,0,0,0,4.907,0A1.728,1.728,0,0,0,314.141,233.254Z" transform="translate(1292.209 1206.245)" fill="#fff" opacity="0.5"/>
    <path id="Trazado_61" data-name="Trazado 61" d="M310.26,222.16a3.225,3.225,0,0,0-.375.467,2.676,2.676,0,0,0,1.8.64c.676.053,1.38.6,1.68,3.35s.884,6.258-.205,7.323-3.52,1.061-4.8.262h0a2.685,2.685,0,0,0,.6.471,5.42,5.42,0,0,0,4.907,0,1.728,1.728,0,0,0,1.019-1.415h0c0-3.35-.555-9.35-2.313-11.094Z" transform="translate(1291.459 1206.245)" fill="#407bff" opacity="0.6"/>
    <path id="Trazado_62" data-name="Trazado 62" d="M315.561,215.531a1.737,1.737,0,1,1-.508-1.231A1.741,1.741,0,0,1,315.561,215.531Z" transform="translate(1289.055 1211.654)" fill="#407bff"/>
    <path id="Trazado_63" data-name="Trazado 63" d="M315.561,215.531a1.737,1.737,0,1,1-.508-1.231A1.741,1.741,0,0,1,315.561,215.531Z" transform="translate(1289.055 1211.654)" fill="#fff" opacity="0.5"/>
    <path id="Trazado_64" data-name="Trazado 64" d="M315,214.72a1.577,1.577,0,0,1-.421,2.26,1.7,1.7,0,0,1-2.239-.333A1.733,1.733,0,1,0,315,214.72Z" transform="translate(1288.887 1211.053)" fill="#407bff" opacity="0.4"/>
    <path id="Trazado_65" data-name="Trazado 65" d="M353.67,172.913a1.171,1.171,0,0,1,.686-.955,3.672,3.672,0,0,1,3.315,0,1.171,1.171,0,0,1,.686.955v.768a1.167,1.167,0,0,1-.686.955,3.672,3.672,0,0,1-3.315,0,1.167,1.167,0,0,1-.686-.955Z" transform="translate(1262.178 1238.943)" fill="#263238"/>
    <path id="Trazado_66" data-name="Trazado 66" d="M357.694,173.872a1.01,1.01,0,0,0,0-1.914,3.671,3.671,0,0,0-3.315,0,1.011,1.011,0,0,0,0,1.914A3.672,3.672,0,0,0,357.694,173.872Z" transform="translate(1262.162 1238.943)" fill="#37474f"/>
    <path id="Trazado_67" data-name="Trazado 67" d="M68.809,372.871c2.073-.23,5.685-.566,8.685,3.63,3.417,4.772,1.992,11.674-1.415,15.081-4.295,4.245-11.908,5.77-17.115,2.434-5.766-3.69-7.6-12.23-4.839-16.577s8.175-4.164,9.637-3.817C65.954,374.141,67.2,373.051,68.809,372.871Z" transform="translate(1456.571 1059.946)" fill="#407bff"/>
    <path id="Trazado_68" data-name="Trazado 68" d="M61.587,407.914a16.684,16.684,0,0,0,16.722-4.245,11.008,11.008,0,0,1-2.253,3.357c-4.295,4.245-11.908,5.77-17.115,2.434-4.362-2.788-6.463-8.388-6.039-12.82C52.9,397.86,55.2,405.717,61.587,407.914Z" transform="translate(1456.581 1044.508)" opacity="0.1"/>
    <path id="Trazado_69" data-name="Trazado 69" d="M103.063,377.076c1.3-.354,3.421.506,4.733,2.123a12.792,12.792,0,0,1,2.328,7.521c0,4.765-4.061,7.959-4.56,7.641s2.236-3.891-.354-8.211C102.61,381.8,100.926,377.631,103.063,377.076Z" transform="translate(1424.759 1057.202)" fill="#fff"/>
    <path id="Trazado_70" data-name="Trazado 70" d="M105.333,378.77c1.415.226,3.35,2.122,4.015,3.569s.644,2.526.467,2.742c-.318.382-3.509-1.825-4.6-2.873C103.663,380.719,103.033,378.405,105.333,378.77Z" transform="translate(1423.639 1056.081)" fill="#fff"/>
    <path id="Trazado_71" data-name="Trazado 71" d="M84.86,383.962c.619-.707,1.249-1.1,1.769-.3s-1.182,2.476-3.407,2.225-3.184-1.518-3.272-2.225a3.936,3.936,0,0,0,2.671,1.284A3.627,3.627,0,0,0,84.86,383.962Z" transform="translate(1439.067 1053.181)" opacity="0.2"/>
    <path id="Trazado_72" data-name="Trazado 72" d="M88.465,367.125a20.145,20.145,0,0,1-.032-5.961,10.984,10.984,0,0,1,2.3-5.363,5.783,5.783,0,0,1,2.264-.743c1.09-.173,2.512.354,2.225.817s-1.8,1.061-3.4,3.166-2.83,5.869-2.476,7.935A.846.846,0,0,1,88.465,367.125Z" transform="translate(1433.717 1071.401)" fill="#37474f"/>
    <path id="Trazado_73" data-name="Trazado 73" d="M95.242,355.768l.1-.06h0a6.373,6.373,0,0,1,2.08-.63,2.971,2.971,0,0,1,2.123.449c.1.145-.1.4-1.061.708a6.159,6.159,0,0,1-2.908.219C95.157,356.355,94.927,356.008,95.242,355.768Z" transform="translate(1429.279 1071.389)" fill="#455a64"/>
    <path id="Trazado_74" data-name="Trazado 74" d="M89.382,367.37c.439-2.6,2.692-5.083,4.316-6.29h0a11.152,11.152,0,0,0-1.794,1.875c-1.6,2.1-2.83,5.869-2.476,7.935a.846.846,0,0,1-.87.149s-.127-.743-.2-1.836C88.586,370.193,88.976,369.765,89.382,367.37Z" transform="translate(1433.631 1067.488)" opacity="0.1"/>
    <path id="Trazado_75" data-name="Trazado 75" d="M76.553,366.335a4.767,4.767,0,0,1-6.357-5.508,4.839,4.839,0,0,1,4.4.6A5.72,5.72,0,0,1,76.553,366.335Z" transform="translate(1445.417 1067.832)" fill="#407bff"/>
    <path id="Trazado_76" data-name="Trazado 76" d="M76.553,366.335a4.767,4.767,0,0,1-6.357-5.508,4.839,4.839,0,0,1,4.4.6A5.72,5.72,0,0,1,76.553,366.335Z" transform="translate(1445.417 1067.832)" opacity="0.3"/>
    <path id="Trazado_77" data-name="Trazado 77" d="M70.33,360.857a4.839,4.839,0,0,1,4.4.6,5.73,5.73,0,0,1,1.953,4.9C74.812,362.768,70.33,360.857,70.33,360.857Z" transform="translate(1445.283 1067.813)" fill="#407bff"/>
    <path id="Trazado_78" data-name="Trazado 78" d="M70.33,360.857a4.839,4.839,0,0,1,4.4.6,5.73,5.73,0,0,1,1.953,4.9C74.812,362.768,70.33,360.857,70.33,360.857Z" transform="translate(1445.283 1067.813)" opacity="0.2"/>
    <path id="Trazado_79" data-name="Trazado 79" d="M369.092,362.49a3.627,3.627,0,0,0,1.641,2.83,1.306,1.306,0,0,0,.941.2.845.845,0,0,1-.177.141l.393-.226h.025l.056-.039a.617.617,0,0,0,.074-.064l.043-.042h0l.039-.046a1.012,1.012,0,0,0,.134-.244.74.74,0,0,0,.028-.082.08.08,0,0,0,0-.039.3.3,0,0,0,.018-.071,1.653,1.653,0,0,0,.046-.41,3.626,3.626,0,0,0-1.638-2.83,1.465,1.465,0,0,0-.736-.226h-.1l-.1.018h-.088l-.067.028h0l-.064.032-.354.195a.75.75,0,0,1,.177-.064A1.31,1.31,0,0,0,369.092,362.49Zm2.7,3h.028Z" transform="translate(1252.215 1067.32)" fill="#407bff"/>
    <path id="Trazado_80" data-name="Trazado 80" d="M249.23,386.609l2.31,4.033.393-.227,42.1-24.321a.852.852,0,0,0,.177-.141,1.3,1.3,0,0,0,.3-.92,3.627,3.627,0,0,0-1.642-2.83,1.48,1.48,0,0,0-.732-.223.983.983,0,0,0-.209.021.748.748,0,0,0-.177.064h-.028Z" transform="translate(1329.671 1066.906)" fill="#f0f0f0"/>
    <path id="Trazado_81" data-name="Trazado 81" d="M249.508,431.52c-.906-.524-1.638-.1-1.638.944a3.622,3.622,0,0,0,1.638,2.83c.906.524,1.641.1,1.641-.948a3.619,3.619,0,0,0-1.642-2.827Z" transform="translate(1330.55 1022.112)" fill="#407bff"/>
    <path id="Trazado_82" data-name="Trazado 82" d="M271.267,396.513h0l.053-.032a.435.435,0,0,1,.382.057,1.3,1.3,0,0,1,.584,1.008.435.435,0,0,1-.138.354h0l-.071.043-24.919,14.384-1.638-.948Z" transform="translate(1332.069 1044.624)" fill="#455a64"/>
    <path id="Trazado_83" data-name="Trazado 83" d="M249.5,434.919l-2.314,1.337-1.638-.948,3.134-1.808A3.955,3.955,0,0,1,249.5,434.919Z" transform="translate(1332.049 1020.687)" fill="#37474f"/>
    <path id="Trazado_84" data-name="Trazado 84" d="M240.05,437.679h0l1.9-2.087.049-.057a.743.743,0,0,1,.938,0,2.561,2.561,0,0,1,1.157,2.006.764.764,0,0,1-.442.8h0l-.074.018-2.784.6h0a.435.435,0,0,1-.3-.063,1.171,1.171,0,0,1-.527-.916A.417.417,0,0,1,240.05,437.679Z" transform="translate(1335.661 1019.479)" fill="#407bff"/>
    <path id="Trazado_85" data-name="Trazado 85" d="M240.05,437.679h0l1.9-2.087.049-.057a.743.743,0,0,1,.938,0,2.561,2.561,0,0,1,1.157,2.006.764.764,0,0,1-.442.8h0l-.074.018-2.784.6h0a.435.435,0,0,1-.3-.063,1.171,1.171,0,0,1-.527-.916A.417.417,0,0,1,240.05,437.679Z" transform="translate(1335.661 1019.479)" opacity="0.1"/>
    <path id="Trazado_86" data-name="Trazado 86" d="M239.906,440.019a1.164,1.164,0,0,0,.531.913.424.424,0,0,0,.3.064h0l1.415-.3c.219-.05.354-.258.354-.591a1.868,1.868,0,0,0-.842-1.465.545.545,0,0,0-.676,0l-.039.043-.941,1.033h0A.407.407,0,0,0,239.906,440.019Z" transform="translate(1335.698 1017.445)" fill="#407bff"/>
    <path id="Trazado_87" data-name="Trazado 87" d="M240.437,441.76c-.29-.166-.527-.032-.527.3a1.171,1.171,0,0,0,.527.916c.294.166.527.032.527-.3A1.168,1.168,0,0,0,240.437,441.76Z" transform="translate(1335.694 1015.396)" opacity="0.1"/>
    <path id="Trazado_88" data-name="Trazado 88" d="M332.974,372.748a.4.4,0,0,1,.41.039,1.278,1.278,0,0,1,.58,1,.4.4,0,0,1-.173.379h0l-14.483,8.373a.435.435,0,0,0,.138-.354,1.3,1.3,0,0,0-.584-1.008.436.436,0,0,0-.382-.057Z" transform="translate(1284.919 1059.973)" fill="#fafafa"/>
    <path id="Trazado_89" data-name="Trazado 89" d="M358.987,373.105a1.294,1.294,0,0,0,.58,1,.355.355,0,0,0,.58-.336,1.277,1.277,0,0,0-.58-1,.354.354,0,0,0-.58.336Z" transform="translate(1258.747 1059.991)" fill="#f5f5f5"/>
    <path id="Trazado_90" data-name="Trazado 90" d="M361.925,364.086h.046l2.42-1.415.057-.032h0a1.061,1.061,0,0,1,1,.124,3.258,3.258,0,0,1,1.475,2.558,1.032,1.032,0,0,1-.435.955h0l-2.448,1.415h0a1.061,1.061,0,0,1-1.022-.113,3.269,3.269,0,0,1-1.475-2.558A1.062,1.062,0,0,1,361.925,364.086Z" transform="translate(1257.097 1066.527)" fill="#407bff"/>
    <path id="Trazado_91" data-name="Trazado 91" d="M361.925,364.086h.046l2.42-1.415.057-.032h0a1.061,1.061,0,0,1,1,.124,3.258,3.258,0,0,1,1.475,2.558,1.032,1.032,0,0,1-.435.955h0l-2.448,1.415h0a1.061,1.061,0,0,1-1.022-.113,3.269,3.269,0,0,1-1.475-2.558A1.062,1.062,0,0,1,361.925,364.086Z" transform="translate(1257.097 1066.527)" opacity="0.05"/>
    <path id="Trazado_92" data-name="Trazado 92" d="M362.975,366.731c-.814-.471-1.475-.092-1.475.849a3.269,3.269,0,0,0,1.475,2.558c.814.47,1.475.089,1.475-.853A3.262,3.262,0,0,0,362.975,366.731Z" transform="translate(1257.118 1063.967)" opacity="0.1"/>
    <path id="Trazado_93" data-name="Trazado 93" d="M237.667,443.242h0l1-.6h0a.188.188,0,0,1,.195,0,.609.609,0,0,1,.272.471.187.187,0,0,1-.081.173h0l-1,.6h0a.393.393,0,0,1-.184.046.382.382,0,0,1-.205-.707Z" transform="translate(1337.261 1014.798)" fill="#455a64"/>
    <path id="Trazado_94" data-name="Trazado 94" d="M237.617,444.425h0l.053-.042h0a.191.191,0,0,1,.173.028.6.6,0,0,1,.272.47.184.184,0,0,1-.078.17H238a.3.3,0,0,1-.124.021.386.386,0,0,1-.386-.386A.353.353,0,0,1,237.617,444.425Z" transform="translate(1337.258 1013.66)" fill="#263238"/>
    <path id="Trazado_95" data-name="Trazado 95" d="M419.59,365.251l6.513-1.259a.2.2,0,0,1,.191.333l-4.436,4.974Z" transform="translate(1219.578 1065.609)" fill="#ffa8a7"/>
    <path id="Trazado_96" data-name="Trazado 96" d="M435.86,364.314a.2.2,0,0,0-.18-.315l-1.27.251h0a1.1,1.1,0,0,1,.524,1.037v.113Z" transform="translate(1210.001 1065.602)" fill="#263238"/>
    <path id="Trazado_97" data-name="Trazado 97" d="M331.425,389.9l.531-.3.644-.354,30.774-17.649a2.951,2.951,0,0,0-.181-2.158,3.035,3.035,0,0,0-2.1-1.9l-30.777,17.625-1.228.708C329.928,385.465,332.242,389.477,331.425,389.9Z" transform="translate(1278.063 1063.313)" fill="#455a64"/>
    <path id="Trazado_98" data-name="Trazado 98" d="M337.161,418.824l1.189-.683c.354-.188.149-1.061-.262-1.939-.541-1.182-1.61-2.328-2.073-2.084l-.877.5-.308.188c.463-.248,1.532.9,2.073,2.084.393.853.591,1.684.294,1.907h0A.053.053,0,0,1,337.161,418.824Z" transform="translate(1274.354 1033.233)" fill="#ebebeb"/>
    <path id="Trazado_99" data-name="Trazado 99" d="M335.823,419.6c.814-.432-1.521-4.45-2.335-4.019l-1.189.683c.814-.432,3.148,3.587,2.331,4.019Z" transform="translate(1275.989 1032.288)" fill="#407bff"/>
    <path id="Trazado_100" data-name="Trazado 100" d="M331.457,422.087l1.174-.672c.8-.418-1.415-4.316-2.264-4.058l-.05.018-1.178.686C329.961,417.651,332.274,421.663,331.457,422.087Z" transform="translate(1278.03 1031.127)" fill="#ebebeb"/>
    <path id="Trazado_101" data-name="Trazado 101" d="M370.722,364.1l-.209-.1-4.719,2.583-32.111,18.4c-.046-.071-.085-.078-.113-.028.708,1.083,1.217,2.444.76,2.682l.531-.3.644-.354,30.763-17.667h0l4.411-5A.2.2,0,0,0,370.722,364.1Z" transform="translate(1275.168 1065.601)" opacity="0.15"/>
    <path id="Trazado_102" data-name="Trazado 102" d="M316.557,426.19l4.984-2.851c.354-.18.156-1.033-.248-1.921-.538-1.185-1.6-2.342-2.07-2.1h0l-5,2.865c-.994.573-.081,2.731,1.026,3.693A1.182,1.182,0,0,0,316.557,426.19Z" transform="translate(1287.947 1029.875)" fill="#f28f8f"/>
    <path id="Trazado_103" data-name="Trazado 103" d="M316.847,429.857a3.591,3.591,0,0,0-2.034-2.459.8.8,0,0,0-.746.1c-.75.708.124,2.674,1.171,3.587a1.192,1.192,0,0,0,1.284.329C316.9,431.194,317.045,430.621,316.847,429.857Z" transform="translate(1287.953 1024.663)" opacity="0.1"/>
    <path id="freepik--speech-bubble--inject-17" d="M258,61.691l5.359-2.8a32.468,32.468,0,0,0,9.081.534c8.4-.5,13.305-4.047,12.056-9.028-1.281-5.1-6.9-7.111-16.913-6.721-12.527.488-15.565,8.982-8.087,14Z" transform="translate(1325.644 1343.094)" fill="#407bff"/>
    <path id="freepik--speech-bubble--inject-17-2" data-name="freepik--speech-bubble--inject-17" d="M258,61.691l5.359-2.8a32.468,32.468,0,0,0,9.081.534c8.4-.5,13.305-4.047,12.056-9.028-1.281-5.1-6.9-7.111-16.913-6.721-12.527.488-15.565,8.982-8.087,14Z" transform="translate(1325.644 1343.094)" fill="#fff" opacity="0.7"/>
    <circle id="Elipse_2" data-name="Elipse 2" cx="1.337" cy="1.337" r="1.337" transform="translate(1588.053 1393.489)" fill="#fff"/>
    <circle id="Elipse_3" data-name="Elipse 3" cx="1.337" cy="1.337" r="1.337" transform="translate(1594.336 1393.489)" fill="#fff"/>
    <circle id="Elipse_4" data-name="Elipse 4" cx="1.337" cy="1.337" r="1.337" transform="translate(1600.619 1393.489)" fill="#fff"/>
    <path id="Trazado_104" data-name="Trazado 104" d="M72.27,260.042c0,.913.686,1.5,1.532,1.988l34.616,19.988a3.379,3.379,0,0,0,3.06,0l55.859-32.242a2.487,2.487,0,0,0,1.532-2.031c0-.913-.686-1.482-1.528-1.97L132.7,225.791a3.372,3.372,0,0,0-3.057,0L73.8,258.033C72.956,258.528,72.27,259.126,72.27,260.042Z" transform="translate(1444.03 1206.767)" fill="#37474f"/>
    <path id="Trazado_105" data-name="Trazado 105" d="M75.442,259.8l34.616,19.984a3.379,3.379,0,0,0,3.06,0l55.859-32.242a.935.935,0,0,0,0-1.769l-34.633-19.981a3.372,3.372,0,0,0-3.057,0L75.442,258.033A.931.931,0,0,0,75.442,259.8Z" transform="translate(1442.39 1206.767)" fill="#455a64"/>
    <path id="Trazado_106" data-name="Trazado 106" d="M109.949,339.844v2.229a3.126,3.126,0,0,1-1.532-.354l-34.616-20c-.845-.488-1.532-1.061-1.532-1.988a2.377,2.377,0,0,1,1.415-1.942.939.939,0,0,0,.12,1.7l34.616,19.988A3.124,3.124,0,0,0,109.949,339.844Z" transform="translate(1444.03 1147.077)" fill="#263238"/>
    <path id="Trazado_107" data-name="Trazado 107" d="M63.24,170.261c-.672-.311-.853-.842-.92-1.769l-3-43.9a3.042,3.042,0,0,1,1.415-2.582L116.58,89.752c.842-.488,1.461-.754,2.243-.219s.8.828.86,1.769l3,43.905a3.039,3.039,0,0,1-1.415,2.582L65.426,170.027A1.986,1.986,0,0,1,63.24,170.261Z" transform="translate(1452.398 1294.776)" fill="#37474f"/>
    <path id="Trazado_108" data-name="Trazado 108" d="M120.372,91.295c-.064-.937-.8-1.3-1.645-.817L62.865,122.723a2.891,2.891,0,0,0-1.061,1.121l-1.443-.732h0a2.954,2.954,0,0,1,1.061-1.121l55.827-32.242c.845-.488,1.468-.757,2.246-.219S120.291,90.357,120.372,91.295Z" transform="translate(1451.726 1294.779)" fill="#455a64"/>
    <path id="Trazado_109" data-name="Trazado 109" d="M65.308,231.983a1.958,1.958,0,0,1-2.073.166c-.626-.262-.853-.838-.916-1.769l-3-43.913a2.714,2.714,0,0,1,.354-1.457l1.458.725h0a2.766,2.766,0,0,0-.354,1.458l3,43.909A.987.987,0,0,0,65.308,231.983Z" transform="translate(1452.403 1232.885)" fill="#263238"/>
    <path id="Trazado_110" data-name="Trazado 110" d="M68.629,131.766l53.744-31c.506-.294.948-.074.987.488l2.8,40.959a1.825,1.825,0,0,1-.845,1.549l-53.744,31c-.506.294-.948.074-.987-.488l-2.8-40.966a1.836,1.836,0,0,1,.849-1.542Z" transform="translate(1446.931 1287.413)"/>
    <path id="Trazado_111" data-name="Trazado 111" d="M68.629,132.65a1.836,1.836,0,0,0-.849,1.549l2.756,40.276,53.128-30.664a1.825,1.825,0,0,0,.845-1.549L121.757,102Z" transform="translate(1446.931 1286.529)" fill="#407bff"/>
    <path id="Trazado_112" data-name="Trazado 112" d="M68.629,132.65a1.836,1.836,0,0,0-.849,1.549l2.756,40.276,53.128-30.664a1.825,1.825,0,0,0,.845-1.549L121.757,102Z" transform="translate(1446.931 1286.529)" fill="#fff" opacity="0.8"/>
    <path id="Trazado_113" data-name="Trazado 113" d="M89.474,263.892l51.3-29.628a1.6,1.6,0,0,1,1.443,0l1.871,1.061a.442.442,0,0,1,0,.835L92.76,265.771a1.6,1.6,0,0,1-1.443,0l-1.861-1.061a.439.439,0,0,1,.018-.817Z" transform="translate(1433.098 1201.166)" fill="#263238"/>
    <path id="Trazado_114" data-name="Trazado 114" d="M103.574,272.266l51.32-29.621a1.465,1.465,0,0,1,1.316-.071l13.358,7.712c.329.191.276.531-.124.761l-51.26,29.589a1.475,1.475,0,0,1-1.316.074l-13.415-7.677C103.121,272.836,103.177,272.5,103.574,272.266Z" transform="translate(1424.018 1195.763)" fill="#263238"/>
    <path id="Trazado_115" data-name="Trazado 115" d="M150.439,257.124l1.606-.927c.067-.042.074-.1,0-.138l-1.539-.884a.258.258,0,0,0-.233,0l-1.606.927c-.067.039-.074.1,0,.134l1.539.888A.258.258,0,0,0,150.439,257.124Zm-2.349-3.212-1.606.93c-.067.039-.074.1,0,.134l1.514.888a.252.252,0,0,0,.233,0l1.606-.927c.067-.039.074-.1,0-.134l-1.539-.888A.258.258,0,0,0,148.09,253.912Zm-5.19,3-2.72,1.571c-.067.042-.074.1,0,.138l1.539.884a.258.258,0,0,0,.234,0l2.72-1.571c.067-.039.074-.1,0-.134l-1.535-.888A.272.272,0,0,0,142.9,256.912Zm2.83-1.641-1.61.927c-.067.039-.074.1,0,.134l1.539.888a.258.258,0,0,0,.233,0l1.606-.93c.067-.039.074-.1,0-.134l-1.539-.888a.265.265,0,0,0-.216,0Zm-6.29,3.637-1.61.93c-.067.039-.074.1,0,.134l1.535.888a.251.251,0,0,0,.233,0l1.606-.927c.071-.039.074-.1,0-.134l-1.535-.888A.258.258,0,0,0,139.44,258.907Zm-2.349,1.344-1.606.927c-.071.039-.074.1,0,.134l1.535.888a.258.258,0,0,0,.233,0l1.606-.93c.071-.039.074-.1,0-.135l-1.535-.884A.258.258,0,0,0,137.091,260.251Zm6.014,3.619,1.606-.927c.071-.039.074-.1,0-.134l-1.535-.888a.259.259,0,0,0-.233,0l-1.61.93c-.067.039-.074.1,0,.134l1.535.888a.252.252,0,0,0,.248.011Zm-2.349,1.358,1.606-.93c.071-.039.074-.1,0-.134l-1.535-.884a.259.259,0,0,0-.233,0l-1.606.927c-.071.039-.074.1,0,.135l1.535.888a.258.258,0,0,0,.244.014Zm-2.349,1.355,1.61-.927c.067-.039.074-.1,0-.135l-1.535-.888a.258.258,0,0,0-.233,0l-1.571.948c-.071.039-.074.1,0,.134l1.535.888a.258.258,0,0,0,.205-.007Zm-2.345,1.355,1.606-.927c.067-.039.074-.1,0-.135l-1.539-.888a.259.259,0,0,0-.233,0l-1.606.93c-.067.039-.074.1,0,.134l1.539.884a.258.258,0,0,0,.244.014Zm12.028-9.474,1.606-.927c.067-.039.074-.1,0-.134l-1.539-.888a.258.258,0,0,0-.234,0l-1.606.927c-.067.039-.074.1,0,.134l1.539.906a.259.259,0,0,0,.233,0Zm-2.625,4.051,3.594-2.055c.067-.039.074-.1,0-.135l-3.732-2.154a.259.259,0,0,0-.233,0l-1.854,1.061c-.071.039-.074.1,0,.135l1.974,1.139c.064.035.057.1,0,.134l-1.486.856c-.067.042-.074.1,0,.138l1.539.884a.258.258,0,0,0,.2.011Zm-10.723-.909-1.6.941c-.071.039-.074.1,0,.134l1.535.888a.258.258,0,0,0,.233,0l1.61-.927c.067-.039.074-.1,0-.134l-1.535-.888a.258.258,0,0,0-.241,0Zm-2.349,1.355-1.606.927c-.067.042-.074.1,0,.138l1.539.884a.258.258,0,0,0,.234,0l1.606-.927c.067-.039.074-.1,0-.134l-1.539-.888a.258.258,0,0,0-.234.014ZM119.4,277.437a.258.258,0,0,0,.233,0l1.606-.927c.067-.039.074-.1,0-.134l-1.539-.888a.258.258,0,0,0-.233,0l-1.606.927c-.067.042-.074.1,0,.134Zm-5.795-3.63-1.606.948c-.067.039-.074.1,0,.134l1.539.888a.273.273,0,0,0,.234,0l1.606-.927c.067-.039.074-.1,0-.134l-1.539-.888a.259.259,0,0,0-.233-.007Zm2.979,2.72a.258.258,0,0,0,.233,0l1.606-.93c.071-.039.074-.1,0-.135l-1.535-.888a.251.251,0,0,0-.234,0l-1.606.927c-.071.039-.074.1,0,.134Zm6.481,1.458,1.606-.927c.067-.042.074-.1,0-.138l-1.539-.884a.258.258,0,0,0-.233,0l-1.606.927c-.067.039-.074.1,0,.134l1.539.888a.258.258,0,0,0,.233.014Zm-2.582,1.362a.258.258,0,0,0,.233,0l1.606-.927c.067-.039.074-.1,0-.134l-1.535-.888a.258.258,0,0,0-.233,0l-1.61.927c-.067.039-.074.1,0,.134Zm-4.528-6.895-1.606.927c-.067.042-.074.1,0,.134l1.539.888a.258.258,0,0,0,.234,0l1.606-.927c.067-.039.074-.1,0-.134l-1.539-.888a.258.258,0,0,0-.233.014Zm11.741-6.778-1.606.945c-.067.039-.074.1,0,.134l1.539.888a.258.258,0,0,0,.234,0l1.606-.927c.067-.042.074-.1,0-.138l-1.539-.884a.258.258,0,0,0-.233,0Zm-9.392,5.437-1.606.927c-.067.039-.074.1,0,.134l1.539.888a.258.258,0,0,0,.233,0l1.606-.927c.067-.042.074-.1,0-.138l-1.539-.885A.259.259,0,0,0,118.3,271.112Zm11.741-6.778-1.606.927c-.067.039-.074.1,0,.134l1.539.888a.251.251,0,0,0,.234,0l1.606-.927c.067-.039.074-.1,0-.134l-1.539-.888A.251.251,0,0,0,130.044,264.334Zm-4.687,2.71-1.61.927c-.067.039-.074.1,0,.134l1.535.888a.258.258,0,0,0,.233,0l1.606-.927c.071-.039.074-.1,0-.134l-1.535-.888a.259.259,0,0,0-.23,0ZM123,268.388l-1.606.93c-.071.039-.074.1,0,.134l1.535.888a.273.273,0,0,0,.233,0l1.606-.927c.071-.039.074-.1,0-.134l-1.535-.891A.258.258,0,0,0,123,268.388Zm-2.349,1.358-1.606.927c-.071.039-.074.1,0,.134l1.535.888a.259.259,0,0,0,.234,0l1.61-.93c.067-.039.074-.1,0-.135l-1.535-.888a.251.251,0,0,0-.237.014Zm10.719.92,1.606-.927c.067-.042.074-.1,0-.138l-1.539-.884a.258.258,0,0,0-.233,0l-1.6.934c-.067.039-.074.1,0,.134l1.539.888A.259.259,0,0,0,131.371,270.666Zm21.909-19.751-1.606.927c-.071.043-.074.1,0,.138l1.535.884a.258.258,0,0,0,.233,0l1.606-.927c.071-.039.074-.1,0-.135l-1.535-.888a.259.259,0,0,0-.23,0Zm-2.83,1.641-1.606.927c-.067.042-.074.1,0,.134l1.539.888a.258.258,0,0,0,.233,0l1.606-.927c.067-.039.074-.1,0-.134l-1.539-.888a.258.258,0,0,0-.244,0Zm5.193-3-1.631.927c-.067.039-.074.1,0,.134l1.535.888a.258.258,0,0,0,.233,0l1.606-.927c.071-.039.074-.1,0-.134l-1.535-.888a.258.258,0,0,0-.219,0Zm-12.983,12.06,1.61-.93c.067-.039.074-.1,0-.134l-1.539-.888a.272.272,0,0,0-.233,0l-1.6.938c-.067.039-.074.1,0,.134l1.535.888a.258.258,0,0,0,.219-.007Zm15.566-13.443a.272.272,0,0,0-.233,0l-1.606.927c-.067.039-.074.1,0,.134l1.539.888a.258.258,0,0,0,.234,0l1.606-.93c.067-.039.074-.1,0-.134Zm-24.5,21.13,1.606-.927c.067-.039.074-.1,0-.135l-1.539-.888a.251.251,0,0,0-.233,0l-1.606.927c-.067.039-.074.1,0,.134l1.539.888A.251.251,0,0,0,133.723,269.308Zm28.8-16.627,1.61-.92c.067-.039.074-.1,0-.134l-1.539-.888a.251.251,0,0,0-.233,0l-1.606.927c-.067.039-.074.1,0,.134l1.535.888A.247.247,0,0,0,162.52,252.681Zm-4.542.089,1.606-.927c.067-.039.074-.1,0-.134l-1.539-.888a.258.258,0,0,0-.233,0l-1.592.941c-.067.039-.074.1,0,.134l1.539.888A.272.272,0,0,0,157.977,252.769Zm2.43-3.3a.258.258,0,0,0-.233,0l-1.606.927c-.067.039-.074.1,0,.134l1.539.888a.258.258,0,0,0,.233,0l1.606-.927c.067-.039.074-.1,0-.134Zm.5-.287,3.722,2.154a.258.258,0,0,0,.233,0l1.606-.927c.071-.039.074-.1,0-.134l-3.732-2.154a.258.258,0,0,0-.233,0l-1.606.927a.078.078,0,0,0,.011.134Zm-5.423,3.007-1.61.927c-.067.039-.074.1,0,.134l1.539.888a.258.258,0,0,0,.234,0l1.606-.93c.067-.039.074-.1,0-.134l-1.535-.888A.248.248,0,0,0,155.48,252.185Zm-17.688,10.2-1.606.927c-.067.042-.074.1,0,.138l1.539.884a.258.258,0,0,0,.233,0l1.606-.927c.067-.039.074-.1,0-.134l-1.528-.9a.258.258,0,0,0-.233,0Zm22.138-8.342a.258.258,0,0,0,.233,0l1.606-.93c.067-.039.074-.1,0-.134l-1.539-.888a.272.272,0,0,0-.233,0l-1.606.927c-.067.039-.074.1,0,.134Zm-19.789,6.987-1.606.927c-.067.039-.074.1,0,.134l1.539.888a.258.258,0,0,0,.233,0l1.606-.927c.067-.039.074-.1,0-.135l-1.539-.888a.258.258,0,0,0-.223,0Zm-18.4,15.063a.259.259,0,0,0,.234,0l1.606-.927c.067-.042.074-.1,0-.138l-1.539-.884a.258.258,0,0,0-.233,0l-1.606.927c-.067.039-.074.1,0,.134Zm-2.731-2.862-1.61.93c-.067.039-.074.1,0,.134l1.535.888a.273.273,0,0,0,.234,0l1.606-.927c.071-.039.074-.1,0-.134l-1.535-.888a.258.258,0,0,0-.226,0Zm5.306,1.5,1.61-.93c.067-.039.074-.1,0-.134l-1.535-.888a.251.251,0,0,0-.233,0l-1.606.927c-.071.039-.074.1,0,.135l1.535.888a.258.258,0,0,0,.237,0Zm2.349-1.358,1.606-.927c.071-.039.074-.1,0-.134l-1.5-.888a.258.258,0,0,0-.234,0l-1.606.93c-.071.039-.074.1,0,.134l1.535.888a.273.273,0,0,0,.209,0Zm2.349-1.355,1.606-.927c.071-.039.074-.1,0-.134l-1.535-.888a.258.258,0,0,0-.233,0l-1.61.927c-.067.039-.074.1,0,.134l1.535.888a.258.258,0,0,0,.244,0Zm-7.663-.141-1.606.927c-.067.039-.074.1,0,.134l1.539.888a.258.258,0,0,0,.234,0l1.606-.927c.067-.039.074-.1,0-.134l-1.539-.888a.258.258,0,0,0-.226,0Zm2.349-1.355-1.606.927c-.067.039-.074.1,0,.134l1.539.888a.258.258,0,0,0,.233,0l1.606-.93c.067-.039.074-.1,0-.134l-1.535-.9a.258.258,0,0,0-.23,0Zm9.4-5.423-1.61.927c-.067.039-.074.1,0,.134l1.535.888a.258.258,0,0,0,.233,0l1.606-.93c.071-.039.074-.1,0-.134l-1.535-.888a.273.273,0,0,0-.223,0Zm-2.349,1.355-1.606.927c-.071.039-.074.1,0,.134l1.535.888a.258.258,0,0,0,.233,0l1.606-.927c.071-.039.074-.1,0-.135l-1.535-.888a.258.258,0,0,0-.226,0Zm4.694-2.713-1.6.93c-.067.039-.074.1,0,.135l1.539.888a.251.251,0,0,0,.233,0l1.606-.927c.067-.039.074-.1,0-.134l-1.539-.888a.258.258,0,0,0-.234,0Zm-9.382,5.427-1.606.927c-.067.039-.074.1,0,.134l1.539.888a.252.252,0,0,0,.233,0l1.606-.927c.067-.039.074-.1,0-.134l-1.539-.888A.251.251,0,0,0,126.064,269.17Zm2.349-1.358-1.61.93c-.071.042-.074.1,0,.138l1.535.884a.258.258,0,0,0,.233,0l1.61-.927c.067-.039.074-.1,0-.134l-1.539-.888a.258.258,0,0,0-.233,0Zm-3,8.844,1.606-.927c.067-.039.074-.1,0-.134l-1.539-.888a.251.251,0,0,0-.233,0l-1.606.927c-.067.039-.074.1,0,.135l1.539.888a.252.252,0,0,0,.23-.014Zm-12.382-.584-1.535-.888a.272.272,0,0,0-.233,0l-1.61.927c-.067.039-.074.1,0,.134l1.535.888a.258.258,0,0,0,.234,0l1.606-.93a.083.083,0,0,0,0-.145Zm3.06.768-1.535-.884a.258.258,0,0,0-.233,0l-2.476,1.415c-.067.039-.074.1,0,.134l1.539.888a.258.258,0,0,0,.234,0l2.476-1.415c.06-.057.06-.1-.011-.152Zm-5.352-2.519-1.539-.888a.258.258,0,0,0-.233,0l-1.978,1.143c-.067.039-.074.1,0,.134l1.539.888a.259.259,0,0,0,.233,0l1.978-1.143c.046-.053.053-.113-.007-.149Zm1.514-.877a.258.258,0,0,0,.233,0l1.606-.927c.071-.039.074-.1,0-.134l-1.535-.888a.258.258,0,0,0-.234,0l-1.606.927c-.071.042-.078.1,0,.134Zm6.654,4.309-1.539-.888a.258.258,0,0,0-.233,0l-3.1,1.783c-.067.039-.074.1,0,.134l1.539.888a.251.251,0,0,0,.233,0L118.9,277.9c.06-.067.067-.127.007-.163Zm1.083,1.91-1.535-.888a.258.258,0,0,0-.233,0l-1.978,1.143c-.071.039-.074.1,0,.134l1.535.888a.258.258,0,0,0,.233,0l1.978-1.143c.057-.053.057-.113-.007-.148Zm9.725-16.3a.259.259,0,0,0,.233,0l1.606-.93c.067-.039.074-.1,0-.135l-1.539-.888a.251.251,0,0,0-.234,0l-1.6.916c-.067.039-.074.1,0,.134ZM125,266.06a.259.259,0,0,0,.233,0l1.606-.927c.071-.039.074-.1,0-.134l-1.535-.888a.259.259,0,0,0-.233,0l-1.606.927c-.071.039-.078.1,0,.134Zm-10.415,6.014a.258.258,0,0,0,.233,0l1.606-.927c.067-.042.074-.1,0-.134l-1.535-.888a.258.258,0,0,0-.233,0l-1.61.927c-.067.039-.074.1,0,.134Zm12.764-7.369a.258.258,0,0,0,.233,0l1.606-.927c.067-.042.074-.1,0-.138l-1.535-.884a.259.259,0,0,0-.233,0l-1.61.927c-.067.039-.074.1,0,.134Zm-4.7,2.713a.272.272,0,0,0,.233,0l1.606-.927c.071-.039.078-.1,0-.134l-1.535-.888a.259.259,0,0,0-.234,0l-1.606.93c-.071.039-.074.1,0,.135Zm-1.525,12.325a.258.258,0,0,0-.233,0l-2.476,1.415c-.067.042-.074.1,0,.138l1.535.884a.258.258,0,0,0,.233,0l2.476-1.415c.067-.039.074-.1,0-.134Zm-1.843-10.379a.273.273,0,0,0,.234,0l1.606-.927c.067-.039.074-.1,0-.134l-1.539-.888a.258.258,0,0,0-.233,0l-1.606.93c-.067.039-.074.1,0,.134Zm-2.349,1.355a.259.259,0,0,0,.233,0l1.606-.93c.067-.039.074-.1,0-.134l-1.539-.888a.261.261,0,0,0-.233,0l-1.606.927c-.067.039-.074.1,0,.134Zm47.7-16.1a.251.251,0,0,0-.234,0L160.45,256.9c-.071.039-.074.1,0,.134l1.535.888a.258.258,0,0,0,.233,0l3.952-2.275c.071-.039.074-.1,0-.134Zm-5.193,3a.259.259,0,0,0-.233,0l-1.606.927c-.067.039-.074.1,0,.134l1.539.888a.258.258,0,0,0,.233,0l1.606-.93c.067-.039.074-.1,0-.134Zm-31.7,17.663,1.61-.927c.067-.039.074-.1,0-.134l-1.525-.884a.258.258,0,0,0-.233,0l-1.606.93c-.067.039-.074.1,0,.134l1.539.884a.251.251,0,0,0,.226,0Zm27-14.954a.259.259,0,0,0-.233,0l-1.61.93c-.067.039-.074.1,0,.134l1.535.888a.272.272,0,0,0,.233,0l1.606-.927c.071-.039.074-.1,0-.134Zm12.237-7.075a.258.258,0,0,0-.233,0l-1.61.93c-.067.039-.074.1,0,.134l1.539.884a.258.258,0,0,0,.233,0l1.606-.927c.067-.039.074-.1,0-.134Zm3.891-.467-3.732-2.158a.247.247,0,0,0-.233,0l-1.61.927c-.067.039-.074.1,0,.134l3.725,2.19a.258.258,0,0,0,.234,0l1.606-.927c.067-.06.074-.134.014-.156Zm-24.9,12.6a.251.251,0,0,0-.233,0l-1.978,1.139c-.067.039-.074.1,0,.135l1.539.888a.258.258,0,0,0,.233,0l1.978-1.143c.067-.039.074-.1,0-.134Zm5.933-3.424a.258.258,0,0,0-.233,0l-2.476,1.415c-.067.039-.074.1,0,.134l1.539.888a.251.251,0,0,0,.233,0l2.476-1.415c.067-.039.074-.1,0-.134Zm-11.37,6.566a.258.258,0,0,0-.233,0l-13.224,7.641c-.067.042-.074.1,0,.138l1.539.884a.258.258,0,0,0,.234,0l13.224-7.634c.071-.039.074-.1,0-.134Zm-13.967,8.062a.258.258,0,0,0-.233,0l-1.978,1.143c-.071.039-.078.1,0,.134l1.535.888a.258.258,0,0,0,.234,0l1.978-1.143c.067-.039.074-.1,0-.134Zm16.687-9.619a.258.258,0,0,0-.233,0l-1.978,1.143c-.067.039-.074.1,0,.134l1.539.888a.258.258,0,0,0,.234,0L144.8,268c.067-.039.074-.1,0-.134Zm-19.4,11.2a.259.259,0,0,0-.233,0l-1.978,1.143c-.067.039-.074.1,0,.134l1.539.888a.258.258,0,0,0,.233,0L125.4,279.2c.067-.039.074-.1,0-.134Zm24.845-14.349a.272.272,0,0,0-.233,0l-1.978,1.139c-.071.043-.074.1,0,.138l1.535.884a.258.258,0,0,0,.234,0l1.963-1.139c.071-.039.074-.1,0-.134Zm8.4-4.85a.259.259,0,0,0-.233,0l-1.606.92c-.067.039-.074.1,0,.134l1.539.888a.259.259,0,0,0,.233,0l1.606-.927c.067-.039.074-.1,0-.134Zm5.26-3.679,1.61-.927c.067-.039.074-.1,0-.134l-1.535-.888a.258.258,0,0,0-.233,0l-1.606.927c-.071.042-.074.1,0,.134l1.546.888A.258.258,0,0,0,162.367,255.3Zm-9.583.463,1.61-.93c.067-.039.074-.1,0-.134l-1.539-.888a.251.251,0,0,0-.233,0l-1.606.927c-.071.039-.074.1,0,.134l1.535.888a.258.258,0,0,0,.234.011Zm-6.237,8.678,4.7-2.71c.067-.043.074-.1,0-.138l-1.539-.884a.259.259,0,0,0-.233,0l-4.68,2.728c-.071.042-.074.1,0,.134l1.535.888A.259.259,0,0,0,146.547,264.44Zm13.241-7.783a.251.251,0,0,0,.23,0l1.61-.927c.067-.039.074-.1,0-.134l-1.539-.888a.258.258,0,0,0-.233,0l-1.6.945c-.067.039-.074.1,0,.134Zm-1.963-1.277,1.606-.927c.067-.039.074-.1,0-.134l-1.528-.874a.258.258,0,0,0-.233,0l-1.606.927c-.067.039-.074.1,0,.134l1.539.888a.259.259,0,0,0,.223,0Zm-13.627,10.4,1.61-.927c.067-.039.074-.1,0-.134l-1.535-.888a.259.259,0,0,0-.233,0l-1.606.93c-.071.039-.074.1,0,.135l1.535.888a.248.248,0,0,0,.23.011Zm10.4-6.127a.258.258,0,0,0,.234,0l1.606-.93c.071-.039.074-.1,0-.134L154.9,257.7a.248.248,0,0,0-.234,0l-1.61.927c-.067.039-.074.1,0,.134Zm-22.138,12.909,1.606-.93c.071-.039.074-.1,0-.134l-1.535-.888a.272.272,0,0,0-.234,0l-1.592.962c-.071.039-.074.1,0,.134l1.535.888a.259.259,0,0,0,.219-.018Zm2.349-1.358,1.606-.927c.071-.039.074-.1,0-.134l-1.5-.874a.258.258,0,0,0-.233,0l-1.61.93c-.067.039-.074.1,0,.134l1.539.888a.251.251,0,0,0,.2,0Zm-4.7,2.713,1.61-.927c.067-.039.074-.1,0-.135l-1.535-.888a.259.259,0,0,0-.233,0l-1.606.927c-.071.039-.074.1,0,.135l1.535.888a.258.258,0,0,0,.23.014Zm9.4-5.409,1.606-.927c.067-.039.074-.1,0-.134l-1.539-.888a.258.258,0,0,0-.233,0l-1.6.934c-.067.039-.074.1,0,.134l1.539.888A.258.258,0,0,0,139.507,268.508Zm-2.349,1.355,1.606-.927c.067-.039.074-.1,0-.134l-1.539-.888a.258.258,0,0,0-.233,0l-1.606.927c-.067.042-.074.1,0,.138l1.539.884a.258.258,0,0,0,.23,0Zm4.694-2.71,1.61-.93c.067-.039.074-.1,0-.134l-1.528-.885a.273.273,0,0,0-.233,0l-1.606.927c-.067.039-.074.1,0,.134l1.539.888a.251.251,0,0,0,.216,0Zm12.817-18.863a.258.258,0,0,0,.233,0l1.606-.93c.071-.039.074-.1,0-.134l-.407-.237a.272.272,0,0,0-.233,0l-1.61.927c-.067.039-.074.1,0,.134ZM143,255.681a.259.259,0,0,0,.233,0l1.606-.93c.067-.039.074-.1,0-.134l-1.539-.884a.258.258,0,0,0-.234,0l-1.606.927c-.067.039-.074.1,0,.134Zm4.694-2.713a.258.258,0,0,0,.233,0l1.606-.927c.071-.039.074-.1,0-.134l-1.532-.9a.258.258,0,0,0-.234,0l-1.606.927c-.071.042-.074.1,0,.138Zm-7.563,4.369a.258.258,0,0,0,.233,0l1.606-.93c.067-.039.074-.1,0-.134l-1.535-.888a.272.272,0,0,0-.234,0l-1.61.927c-.067.039-.074.1,0,.134Zm5.214-3.011a.248.248,0,0,0,.233,0l1.61-.927c.067-.039.074-.1,0-.134l-1.535-.888a.258.258,0,0,0-.233,0l-1.606.93c-.071.039-.074.1,0,.134Zm-9.905,5.72a.259.259,0,0,0,.234,0l1.606-.927c.071-.039.078-.1,0-.134l-1.535-.888a.258.258,0,0,0-.233,0l-1.606.927c-.071.043-.074.1,0,.138Zm2.349-1.355a.258.258,0,0,0,.233,0l1.606-.927c.071-.039.074-.1,0-.134l-1.532-.9a.258.258,0,0,0-.233,0l-1.606.927c-.071.039-.078.1,0,.134ZM149.975,251a.258.258,0,0,0,.233,0l1.61-.927c.067-.039.074-.1,0-.134l-.41-.237a.259.259,0,0,0-.234,0l-1.606.931c-.071.039-.074.1,0,.134Zm7.047-4.065a.261.261,0,0,0,.233,0l1.606-.927c.067-.039.074-.1,0-.134l-.41-.237a.251.251,0,0,0-.233,0l-1.606.927c-.067.039-.074.1,0,.134Zm3.23,1.864a.25.25,0,0,0,.233,0l1.606-.927c.067-.039.074-.1,0-.134l-1.539-.888a.258.258,0,0,0-.233,0l-1.606.93c-.067.039-.074.1,0,.134Zm4.472,5.151,1.606-.927c.071-.042.074-.1,0-.134L164.794,252a.258.258,0,0,0-.233,0l-1.606.927c-.071.039-.074.1,0,.134l1.535.888a.258.258,0,0,0,.226,0Zm-12.382-4.305a.258.258,0,0,0,.233,0l1.606-.927c.071-.039.074-.1,0-.134l-.407-.237a.258.258,0,0,0-.233,0l-1.62.937c-.067.039-.074.1,0,.134ZM133.1,261.4a.248.248,0,0,0,.233,0l1.61-.927c.067-.039.074-.1,0-.134l-1.539-.888a.251.251,0,0,0-.233,0l-1.606.927c-.067.039-.074.1,0,.134Z" transform="translate(1421.625 1193.724)" fill="#455a64"/>
    <path id="Trazado_116" data-name="Trazado 116" d="M199.85,310.271l.35.2,9.279,5.359,16.5-9.53.343-.195L216.7,300.55Z" transform="translate(1361.582 1158.218)" fill="#263238"/>
    <path id="Trazado_117" data-name="Trazado 117" d="M226.791,307.6l-9.074-5.236-16.287,9.406L210.5,317Z" transform="translate(1360.561 1157.048)" fill="#37474f"/>
    <path id="Trazado_118" data-name="Trazado 118" d="M105.952,54.419a7.9,7.9,0,0,0-8.664-.028c-2.83,2.151-3.828,4.518-4.337,9.2-.708,6.594-1.45,8.49-2.232,9.987a5.565,5.565,0,0,1-3.269,2.784,3.852,3.852,0,0,0,3.746.152c-.665,3.184-1.592,5.855-.768,9.219a13.525,13.525,0,0,0,3.481,6.453c1.486,1.383,3.612,1.8,5.4,2.586-1.206-2.586-1.854-5.027-1.019-7.935.92-3.209,3.071-5.94,4.022-9.173,1.323-4.472,2.83-9.106,3.209-13.772C105.835,59.955,105.984,57.121,105.952,54.419Z" transform="translate(1434.22 1318.12)" fill="#263238"/>
    <path id="Trazado_119" data-name="Trazado 119" d="M126.415,58.13c-.463-.435-2.512-.152-3.75,1.323s-1.974,3.619-.471,4.769C123.6,65.3,129.075,59.559,126.415,58.13Z" transform="translate(1412.309 1314.999)" fill="#407bff"/>
    <path id="Trazado_120" data-name="Trazado 120" d="M138.078,63.158a2.255,2.255,0,0,0,1.15-2.731,4.672,4.672,0,0,0-2.066-2.434,10.673,10.673,0,0,0-7.026-1.634,13.846,13.846,0,0,0-7.058-.354,7.333,7.333,0,0,0-5.66,6.6c-3.633.856-5.222,5.306-2.979,10.082,1.631,3.453,5.306,5.841,5.763,7.56l13.776-10.7c.538.838,2.2.877,2.88.545a1.691,1.691,0,0,0,.651-2.172,2.4,2.4,0,1,0,.566-4.765Z" transform="translate(1417.447 1316.445)" fill="#263238"/>
    <path id="Trazado_121" data-name="Trazado 121" d="M122.772,56.56A7.472,7.472,0,0,0,118.941,59a7.077,7.077,0,0,0-1.174,1.956,7.356,7.356,0,0,0-.488,2.218V63.3l-.113.028a4.673,4.673,0,0,0-2.254,1.259,5.431,5.431,0,0,0-1.309,2.239,8.561,8.561,0,0,0,.237,5.2,13.245,13.245,0,0,0,2.759,4.542c.591.679,1.213,1.33,1.811,2.006.3.354.6.676.87,1.061a3.579,3.579,0,0,1,.63,1.192,3.646,3.646,0,0,0-.69-1.146,13.468,13.468,0,0,0-.906-1c-.633-.644-1.277-1.277-1.886-1.946a18,18,0,0,1-1.7-2.123,10.567,10.567,0,0,1-1.21-2.455,9.636,9.636,0,0,1-.566-2.71,7.407,7.407,0,0,1,.29-2.738,5.763,5.763,0,0,1,1.415-2.374,5.013,5.013,0,0,1,2.423-1.327l-.124.145a7.291,7.291,0,0,1,1.825-4.284,7.526,7.526,0,0,1,1.815-1.482A6.835,6.835,0,0,1,122.772,56.56Z" transform="translate(1417.753 1315.894)"/>
    <path id="Trazado_122" data-name="Trazado 122" d="M211.1,125.713c.757-.644.9-.81,1.914-1.627a7.279,7.279,0,0,0,1.557-1.45c.382-.708.025-1.39-.294-1.277a16.082,16.082,0,0,0-2.872,1.769c-1.624,1.114-2.77,2.215-2.855,2.038a17.612,17.612,0,0,1,1.73-2.052c1.988-2.147,2.377-2.536,2.742-3.226.771-1.436-.311-1.673-.785-1.376a22.39,22.39,0,0,0-2.551,2.4,34.662,34.662,0,0,1-3.01,3c-.124-.092,2.013-2.43,3.294-4.143,1.185-1.588.414-2.261.074-2.314s-.775.407-1.348,1.022c-1.037,1.129-4.051,4.829-4.68,5.536s-1.107.962-1.189-.18a6.9,6.9,0,0,0-.492-2.954c-.782-1.235-1.645-.93-1.649-.106,0,1.167-.279,2.476-.485,4.341-.11.973-.092,2.123-.113,2.809-.12,2.367-2.1,3.591-3.757,4.73s-6.152,3.7-6.152,3.7-8.391-8.642-10.839-10.758c-2.908-2.519-3.739-2.7-7.846-2.664l5.809,14.939s7.9,7.305,10.578,8.865,3.771.707,7.029-2.183a109.259,109.259,0,0,0,7.613-8.43c.994-1.128,1.415-1.857,2.579-2.282a7.63,7.63,0,0,0,3.417-2.558c.5-.57,1.323-1.716,2.084-2.476a35.428,35.428,0,0,1,3.251-2.735c.686-.577.792-1.769-.17-1.387a29.888,29.888,0,0,0-3.714,2.147C209.905,126.732,210.584,126.151,211.1,125.713Z" transform="translate(1379.91 1276.545)" fill="#ffbda7"/>
    <path id="Trazado_123" data-name="Trazado 123" d="M261.86,141a7.217,7.217,0,0,1,.209,5.89A4.026,4.026,0,0,0,261.86,141Z" transform="translate(1321.509 1261.325)" fill="#f0997a"/>
    <path id="Trazado_124" data-name="Trazado 124" d="M218.759,169.6a6.7,6.7,0,0,0-2.575,6.24c-.6-2-1.129-4.486,1.921-6.969Z" transform="translate(1351.327 1243.315)" fill="#f0997a"/>
    <path id="Trazado_125" data-name="Trazado 125" d="M105.591,137.346l3.237-1.295s4.829-1.252,8.844-2.123c4.245-.534,7.892-.934,7.892-.934L127,132.97s3.184,2.8,5.515,5.388,4.38,4.747,4.51,8.013c.173,4.411-2.66,6.014-2.66,6.014l.173,5.621,3.683,10.418L102.63,188.963c1.082-12.682,3.891-14.773,5.48-23.564-.3-4.6-2.593-10.91-2.982-14.115C103.769,140.215,105.591,137.346,105.591,137.346Z" transform="translate(1424.41 1266.515)" fill="#407bff"/>
    <path id="Trazado_126" data-name="Trazado 126" d="M123.664,90.576c.134-1.553.354-4.641.354-4.641a2.615,2.615,0,0,1-3.891-.785c-1.649-2.317-1.387-3.976-.237-5.087a2.842,2.842,0,0,1,4.556,1.061c.6,1.415,1.769-.255.591-2.476-.393-3.913,4.6-1.32,7.709-9.477,3.138-.177,5.03.708,6.555,3.318.708,1.182,1.532,2.883,1.362,7.811-.219,6.276-1.164,8.25-3.361,9.3a7.241,7.241,0,0,1-4,.524l-.018.6a2.887,2.887,0,0,0,.021.417.708.708,0,0,0,.665.669,16.1,16.1,0,0,0,2.154-.06s1.6,4.019-3.707,5.161a18.29,18.29,0,0,1-13.054-2.1,18.972,18.972,0,0,0,2.275-1.376C123.275,92.246,123.572,91.549,123.664,90.576Z" transform="translate(1413.858 1307.759)" fill="#ffbda7"/>
    <path id="Trazado_127" data-name="Trazado 127" d="M126.509,112.092a.761.761,0,1,0,.2-.551A.764.764,0,0,0,126.509,112.092Z" transform="translate(1408.979 1280.519)" fill="#fafafa"/>
    <path id="Trazado_128" data-name="Trazado 128" d="M154.7,111.17l3.41,1.061a1.769,1.769,0,0,1-2.2,1.238A1.871,1.871,0,0,1,154.7,111.17Z" transform="translate(1390.807 1280.603)" fill="#b16668"/>
    <path id="Trazado_129" data-name="Trazado 129" d="M154.985,113.388a1.96,1.96,0,0,1,1.974,1.518,1.719,1.719,0,0,1-.991,0,1.843,1.843,0,0,1-1.249-1.479A2.161,2.161,0,0,1,154.985,113.388Z" transform="translate(1390.747 1279.17)" fill="#f28f8f"/>
    <path id="Trazado_130" data-name="Trazado 130" d="M172.657,84.554l-2.147-.513a1.061,1.061,0,0,1,1.291-.835A1.16,1.16,0,0,1,172.657,84.554Z" transform="translate(1380.543 1298.693)" fill="#263238"/>
    <path id="Trazado_131" data-name="Trazado 131" d="M146.889,83.948l2.091-.789a1.061,1.061,0,0,0-1.415-.672A1.175,1.175,0,0,0,146.889,83.948Z" transform="translate(1395.847 1299.19)" fill="#263238"/>
    <path id="Trazado_132" data-name="Trazado 132" d="M170.618,93.434a.952.952,0,0,0,.842.994.888.888,0,0,0,.98-.821.948.948,0,0,0-.856-.994.888.888,0,0,0-.966.821Z" transform="translate(1380.474 1292.597)" fill="#263238"/>
    <path id="Trazado_133" data-name="Trazado 133" d="M149.467,93.568a.945.945,0,0,0,.853,1,.884.884,0,0,0,.98-.821.941.941,0,0,0-.853-.994.888.888,0,0,0-.98.817Z" transform="translate(1394.143 1292.509)" fill="#263238"/>
    <path id="Trazado_134" data-name="Trazado 134" d="M144.616,120.837a17.031,17.031,0,0,1-5.848-1.642,5.494,5.494,0,0,1-2.278-2.526,4.348,4.348,0,0,0,1.571,3.184c1.769,1.486,6.559,1.988,6.559,1.988a2.181,2.181,0,0,1-.021-.417Z" transform="translate(1402.528 1277.048)" fill="#f0997a"/>
    <path id="Trazado_135" data-name="Trazado 135" d="M152.31,181.9a11.557,11.557,0,0,1,3.435-2.338c.831-.29,3.714-1.712,4.832-2.066.708-.226,1.061.9.205,1.748a25.369,25.369,0,0,1-3.233,2.055,14.339,14.339,0,0,0-2.239,2.515Z" transform="translate(1392.305 1237.759)" fill="#f0997a"/>
    <path id="Trazado_136" data-name="Trazado 136" d="M101.9,174.043c-5.66,3.212-10.613,7.213-16.1,8.037-5.349.8-5.515-3.63-5.42-6.93.12-4.167,2.455-17.235,3.669-21.579,1.288-4.624,2.123-6.329,7.135-8.211,4.139,2.713,3.184,11.674,2.3,15.1-.937,3.569-2.455,10.238-2.455,10.238s6.523-2.055,8.091-2.883,4.192-4.351,5.229-5.48c1.415-1.535,2.169-1.39,2.936-1.323,2.522.219,3.085.393,3.633.708a1.128,1.128,0,0,1,.548.941c.669.042,1.659-.042,1.857,1.04a3.034,3.034,0,0,1,.1.87.729.729,0,0,1,.446.219c.594.6-.216,2.88-.782,3.456a2.166,2.166,0,0,1-1.794.435c-.679-.05-.41-.754-.41-.754l-.937.117c-1.939,1.571-2.034,3.891-4.68,4.691A12.045,12.045,0,0,0,101.9,174.043Z" transform="translate(1438.798 1258.508)" fill="#ffbda7"/>
    <path id="Trazado_137" data-name="Trazado 137" d="M162.8,193.425l-3-.424h2.9A1.141,1.141,0,0,1,162.8,193.425Z" transform="translate(1387.464 1227.721)" fill="#f0997a"/>
    <path id="Trazado_138" data-name="Trazado 138" d="M167.522,198.876l-3.442-.226,3.421-.17A1.8,1.8,0,0,1,167.522,198.876Z" transform="translate(1384.698 1224.18)" fill="#f0997a"/>
    <path id="Trazado_139" data-name="Trazado 139" d="M170.306,203.93a1.061,1.061,0,0,1-.432.428,2.257,2.257,0,0,1-.573.237l.042-.035c-.078.184-.166.354-.251.545l-.078-.085a.683.683,0,0,1,.552.1.905.905,0,0,1,.326.428,1.06,1.06,0,0,0-.354-.354.675.675,0,0,0-.467-.057l-.131.035.053-.124c.081-.184.163-.354.255-.545v-.028h.028a3.138,3.138,0,0,0,.555-.195A1.253,1.253,0,0,0,170.306,203.93Z" transform="translate(1381.558 1220.658)" fill="#f0997a"/>
    <path id="Trazado_140" data-name="Trazado 140" d="M166.223,205.34a10.435,10.435,0,0,1-1.231.163,1.337,1.337,0,0,1-.382.683,7.073,7.073,0,0,1-.63.6l.938-.117a1.523,1.523,0,0,1,1.04-.651Z" transform="translate(1384.763 1219.746)" fill="#f0997a"/>
    <path id="Trazado_141" data-name="Trazado 141" d="M100.845,213.46l-.283,1.235c-2.409.785-4.953,2.66-5.451,4.036C95.425,216.577,96.606,214.882,100.845,213.46Z" transform="translate(1429.269 1214.499)" fill="#f0997a"/>
    <path id="Trazado_142" data-name="Trazado 142" d="M155.252,88.117l-.354-.046a10.34,10.34,0,0,0-3.714.163c-1.231.41-1.656.863-2.374.881-.778,0-1.291-.435-2.742-.828a15.706,15.706,0,0,0-4.776-.088l-.506.057a.8.8,0,0,0-.587.8,1.691,1.691,0,0,0,.474.923,1.143,1.143,0,0,1,.163.375,15.568,15.568,0,0,0,.591,2.621,3.1,3.1,0,0,0,.651.934,2.375,2.375,0,0,0,.333.265l.195.12a2.832,2.832,0,0,0,.57.233l.1.025.149.035.159.025a3.538,3.538,0,0,0,.5.046h.474a3.364,3.364,0,0,0,3.205-2.123c.435-.983.258-2.282,1.1-2.3h.078a.254.254,0,0,1,.074,0c.619.127.6,1.32,1.037,2.172a3.694,3.694,0,0,0,.64.923,1.874,1.874,0,0,0,.148.142l.078.064.081.064.074.053.081.053.064.035.042.025a2.477,2.477,0,0,0,.725.262h.064a3.321,3.321,0,0,0,.852.035,2.31,2.31,0,0,0,2.225-1.815,15.5,15.5,0,0,0,.24-2.317.654.654,0,0,1,.106-.3,1.525,1.525,0,0,0,.251-.828C155.694,88.46,155.453,88.142,155.252,88.117Zm-8.016,3.538a2.962,2.962,0,0,1-.623,1.373h0a2.83,2.83,0,0,1-2.123.916,2.363,2.363,0,0,1-2.154-.9c-.025-.032-.046-.067-.067-.1a.742.742,0,0,1-.064-.1.62.62,0,0,1-.053-.092l-.046-.081-.032-.067a.465.465,0,0,1-.028-.06c0-.032-.032-.064-.046-.1h0c-.039-.1-.074-.195-.106-.29-.018-.057-.035-.117-.049-.173s-.053-.195-.071-.279v-.1c-.152-.686-.329-2.027.028-2.331a3.983,3.983,0,0,1,2.731-.5h.156a5.848,5.848,0,0,1,.654.1,1.1,1.1,0,0,1,.255.057,4.891,4.891,0,0,1,.63.191l.195.074c.074.028.141.064.209.1l.042.021.074.039a1.308,1.308,0,0,1,.428.329,3.3,3.3,0,0,1,.06,1.967Zm7.567-.584a2.621,2.621,0,0,1-.987,2.055,1.949,1.949,0,0,1-.92.283,2.084,2.084,0,0,1-2.006-.856h0l-.039-.057a.5.5,0,0,1-.042-.067.214.214,0,0,1-.025-.035l-.057-.1-.06-.117c0-.021-.018-.039-.025-.06a.126.126,0,0,1,0-.032.26.26,0,0,1-.021-.046V92a3.805,3.805,0,0,1-.152-.474,3.176,3.176,0,0,1-.071-1.914,3.21,3.21,0,0,1,2.016-.945c.2-.028.389-.046.566-.053h.5l.152.018a2.241,2.241,0,0,1,.283.05h.194l.085.028.134.053h.025a1.278,1.278,0,0,1,.311.195,4.7,4.7,0,0,1,.142,2.1Z" transform="translate(1400.131 1295.586)" fill="#37474f"/>
    <path id="Trazado_143" data-name="Trazado 143" d="M132.835,89.63,128.3,92.591a2.529,2.529,0,0,1,1.309.6l3.481-2.37Z" transform="translate(1407.821 1294.523)" fill="#37474f"/>
    <path id="Trazado_144" data-name="Trazado 144" d="M166.047,98.383l-2.759,1.383-.708-4.387a1.221,1.221,0,0,1,.439-.86Z" transform="translate(1385.668 1291.363)" fill="#f0997a"/>
    <path id="Trazado_145" data-name="Trazado 145" d="M132.839,204.713a.411.411,0,0,0-.018-.1V204.6a.6.6,0,0,0-.021-.092.555.555,0,0,0-.06-.131.173.173,0,0,0-.035-.053.155.155,0,0,0-.028-.035.3.3,0,0,0-.067-.067h0a.315.315,0,0,0-.088-.05.739.739,0,0,0-.686.085L80.492,233.8c-.562.325-1.022.821-1.022,2.253v1.539a.708.708,0,0,0,1.061.609l51.3-29.536a2.264,2.264,0,0,0,1.022-1.769v-2.041C132.846,204.787,132.842,204.752,132.839,204.713Z" transform="translate(1439.376 1220.533)" fill="#455a64" opacity="0.8"/>
    <path id="Trazado_146" data-name="Trazado 146" d="M77.484,292.229l-.039-.018-1.061-.626a1.089,1.089,0,0,1-.534-.789v-1.938a2.123,2.123,0,0,1,.354-1.107h0l1.259.725a2.933,2.933,0,0,0-.333,1.489v1.649a.754.754,0,0,0,.05.251A.707.707,0,0,0,77.484,292.229Z" transform="translate(1441.716 1166.49)" fill="#263238" opacity="0.9"/>
    <path id="Trazado_147" data-name="Trazado 147" d="M130.8,202.8a.732.732,0,0,0-.686.088L78.78,232.432a2.181,2.181,0,0,0-.283.2,1.484,1.484,0,0,0-.17.163,1.435,1.435,0,0,0-.226.3l-1.281-.736a2.2,2.2,0,0,1,.216-.29l.081-.088.085-.081.088-.074a1.564,1.564,0,0,1,.184-.127l51.335-29.546a.708.708,0,0,1,.739-.06C129.736,202.2,130.578,202.684,130.8,202.8Z" transform="translate(1441.089 1221.897)" fill="#455a64" opacity="0.6"/>
    <path id="Trazado_148" data-name="Trazado 148" d="M80.47,300.41Z" transform="translate(1438.73 1158.309)" fill="#263238" opacity="0.9"/>
    <path id="Trazado_149" data-name="Trazado 149" d="M90.38,288.743v-1.256c0-.092.057-.187.113-.187H91.6c.071,0,.071.159,0,.244l-1.107,1.263C90.437,288.86,90.38,288.832,90.38,288.743Z" transform="translate(1432.326 1166.781)" fill="#fff"/>
    <path id="Trazado_150" data-name="Trazado 150" d="M97.66,284.54v-1.256c0-.089.057-.184.113-.184H98.88c.071,0,.071.159,0,.24l-1.1,1.256C97.717,284.66,97.66,284.632,97.66,284.54Z" transform="translate(1427.622 1169.495)" fill="#fff"/>
    <path id="Trazado_151" data-name="Trazado 151" d="M101.345,282.537h0c-.046.028-.085,0-.085-.064v-1.288a.209.209,0,0,1,.085-.163h0c.046-.025.085,0,.085.064v1.291A.2.2,0,0,1,101.345,282.537Z" transform="translate(1425.295 1170.844)" fill="#fff"/>
    <path id="Trazado_152" data-name="Trazado 152" d="M84.375,291.076v-1.238c0-.088-.057-.117-.113-.057l-1.1,1.266c-.074.085-.074.244,0,.244h1.1A.283.283,0,0,0,84.375,291.076Z" transform="translate(1437.029 1165.198)" fill="#fff"/>
    <path id="Trazado_153" data-name="Trazado 153" d="M82.7,293.311h0a.2.2,0,0,0,.085-.159v-1.284c0-.06-.039-.089-.085-.064h0a.209.209,0,0,0-.085.163v1.288C82.62,293.311,82.659,293.339,82.7,293.311Z" transform="translate(1437.341 1163.876)" fill="#fff"/>
    <path id="Trazado_154" data-name="Trazado 154" d="M223.139,210.578a.1.1,0,0,1-.1-.1v-.573a.1.1,0,0,1,.049-.085l.46-.265a.1.1,0,0,1,.134.035.1.1,0,0,1-.035.131l-.414.241v.516A.1.1,0,0,1,223.139,210.578Z" transform="translate(1346.596 1217.031)" fill="#fff"/>
    <path id="Trazado_155" data-name="Trazado 155" d="M225.841,209.019a.1.1,0,0,1-.1-.1v-.407l-.311.18a.1.1,0,0,1-.134-.035.1.1,0,0,1,.035-.131l.46-.265a.1.1,0,0,1,.1,0,.092.092,0,0,1,.046.081v.577A.1.1,0,0,1,225.841,209.019Z" transform="translate(1345.146 1217.864)" fill="#fff"/>
    <path id="Trazado_156" data-name="Trazado 156" d="M225.381,212.353a.1.1,0,0,1-.049-.18l.41-.237v-.52a.1.1,0,0,1,.1-.1.1.1,0,0,1,.1.1v.577a.1.1,0,0,1-.046.085l-.46.265Z" transform="translate(1345.147 1215.882)" fill="#fff"/>
    <path id="Trazado_157" data-name="Trazado 157" d="M223.139,214.157a.113.113,0,0,1-.05,0,.1.1,0,0,1-.049-.085V213.5a.1.1,0,0,1,.1-.1.1.1,0,0,1,.1.1v.4l.315-.18a.1.1,0,1,1,.1.17l-.46.265A.127.127,0,0,1,223.139,214.157Z" transform="translate(1346.596 1214.538)" fill="#fff"/>
    <path id="Trazado_158" data-name="Trazado 158" d="M218.447,212.456l-.188.074h-.025a.651.651,0,0,0-.046-.12v-.06l.106-.237v-.053l-.149-.11a.047.047,0,0,0-.039.032l-.131.212a.041.041,0,0,1-.039.035.411.411,0,0,0-.113,0,.023.023,0,0,1-.021-.021l-.018-.237s0-.018-.025,0l-.2.12a.046.046,0,0,0-.025.042l-.021.251a.116.116,0,0,1-.025.057.953.953,0,0,0-.1.11.067.067,0,0,1-.042.028l-.149-.078a.053.053,0,0,0-.032.039l-.131.248c0,.021-.021.046,0,.053l.12.131a.1.1,0,0,1,0,.057,1.21,1.21,0,0,0-.042.152.093.093,0,0,1-.032.053l-.18.131a.063.063,0,0,0-.021.046v.269c0,.018,0,.028.021.021l.184-.081h.025a.643.643,0,0,0,.05.124.107.107,0,0,1,0,.06l-.1.23v.053l.149.117s.021,0,.035-.032l.131-.212a.045.045,0,0,1,.039-.039.241.241,0,0,0,.113,0,.025.025,0,0,1,.021.025l.021.234s0,.021.025,0l.2-.117a.068.068,0,0,0,.025-.042l.018-.255a.1.1,0,0,1,.028-.053.737.737,0,0,0,.1-.113c.018-.018.032-.032.042-.025l.149.071a.047.047,0,0,0,.039-.032l.127-.248c0-.025.018-.049,0-.057l-.117-.131a.067.067,0,0,1,0-.053,1.2,1.2,0,0,0,.039-.152.124.124,0,0,1,.032-.057l.18-.131a.067.067,0,0,0,.025-.046v-.269C218.468,212.456,218.458,212.449,218.447,212.456Zm-.775,1.061c-.187.11-.354,0-.354-.258a.831.831,0,0,1,.354-.658c.191-.106.354,0,.354.262a.817.817,0,0,1-.354.662Z" transform="translate(1350.577 1215.475)" fill="#fff"/>
    <path id="Trazado_159" data-name="Trazado 159" d="M115.991,263.64V263l-9.725,5.618a.669.669,0,0,0-.336.506c0,.173.149.227.336.117Z" transform="translate(1422.277 1182.485)" fill="#407bff"/>
    <path id="Trazado_160" data-name="Trazado 160" d="M161.935,218.115a.375.375,0,0,0-.131.049L134.37,233.988v.626L161.8,218.777a.738.738,0,0,0,.241-.226.88.88,0,0,0,.071-.142.379.379,0,0,0,.025-.138.156.156,0,0,0-.205-.156Z" transform="translate(1403.898 1211.496)" fill="#fff" opacity="0.5"/>
    <path id="Trazado_161" data-name="Trazado 161" d="M133.973,262.47a1.185,1.185,0,0,1-.488.93c-.269.152-.485,0-.485-.371a1.16,1.16,0,0,1,.485-.927C133.75,261.947,133.973,262.109,133.973,262.47Z" transform="translate(1404.784 1183.103)" fill="#407bff"/>
    <path id="Trazado_162" data-name="Trazado 162" d="M133.973,262.47a1.185,1.185,0,0,1-.488.93c-.269.152-.485,0-.485-.371a1.16,1.16,0,0,1,.485-.927C133.75,261.947,133.973,262.109,133.973,262.47Z" transform="translate(1404.784 1183.103)" fill="#fff" opacity="0.5"/>
    <path id="Trazado_163" data-name="Trazado 163" d="M134.11,263.028a.761.761,0,0,1-.315.6c-.173.1-.315,0-.315-.241a.75.75,0,0,1,.315-.6C133.968,262.692,134.11,262.795,134.11,263.028Z" transform="translate(1404.473 1182.644)" fill="#407bff"/>
  </g>
</svg>
