<svg xmlns="http://www.w3.org/2000/svg" width="144.996" height="118.402" viewBox="0 0 144.996 118.402">
  <g id="Grupo_141" data-name="Grupo 141" transform="translate(-895.407 -1364)">
    <ellipse id="Elipse_23" data-name="Elipse 23" cx="58" cy="58.5" rx="58" ry="58.5" transform="translate(909 1364)" fill="#f8d22f"/>
    <rect id="Rectángulo_156" data-name="Rectángulo 156" width="144.996" height="0.072" transform="translate(895.407 1469.306)" fill="#ebebeb"/>
    <rect id="Rectángulo_157" data-name="Rectángulo 157" width="26.36" height="0.072" transform="translate(999.514 1472.066)" fill="#ebebeb"/>
    <rect id="Rectángulo_158" data-name="Rectángulo 158" width="7.218" height="0.072" transform="translate(984.24 1471.281)" fill="#ebebeb"/>
    <rect id="Rectángulo_159" data-name="Rectángulo 159" width="11.191" height="0.072" transform="translate(996.765 1474.761)" fill="#ebebeb"/>
    <rect id="Rectángulo_160" data-name="Rectángulo 160" width="6.565" height="0.072" transform="translate(910.62 1474.273)" fill="#ebebeb"/>
    <rect id="Rectángulo_161" data-name="Rectángulo 161" width="7.798" height="0.072" transform="translate(919.766 1474.273)" fill="#ebebeb"/>
    <rect id="Rectángulo_162" data-name="Rectángulo 162" width="13.583" height="0.072" transform="translate(947.115 1473.05)" fill="#ebebeb"/>
    <path id="Trazado_1955" data-name="Trazado 1955" d="M95.857,137.009H39.863a1.656,1.656,0,0,1-1.653-1.656V56.641A1.656,1.656,0,0,1,39.863,55H95.857a1.656,1.656,0,0,1,1.656,1.656v78.7A1.656,1.656,0,0,1,95.857,137.009ZM39.863,55.058a1.583,1.583,0,0,0-1.58,1.583v78.712a1.583,1.583,0,0,0,1.58,1.583H95.857a1.586,1.586,0,0,0,1.583-1.583V56.641a1.586,1.586,0,0,0-1.583-1.583Z" transform="translate(868.277 1319.363)" fill="#ebebeb"/>
    <path id="Trazado_1956" data-name="Trazado 1956" d="M312.153,137.009h-56a1.659,1.659,0,0,1-1.656-1.656V56.641A1.659,1.659,0,0,1,256.156,55h56a1.656,1.656,0,0,1,1.65,1.641v78.712A1.656,1.656,0,0,1,312.153,137.009Zm-56-81.951a1.586,1.586,0,0,0-1.583,1.583v78.712a1.586,1.586,0,0,0,1.583,1.583h56a1.586,1.586,0,0,0,1.583-1.583V56.641a1.586,1.586,0,0,0-1.583-1.583Z" transform="translate(714.709 1319.363)" fill="#ebebeb"/>
    <rect id="Rectángulo_163" data-name="Rectángulo 163" width="30.429" height="33.807" transform="translate(1017.615 1415.359) rotate(180)" fill="#e6e6e6"/>
    <rect id="Rectángulo_164" data-name="Rectángulo 164" width="35.536" height="33.807" transform="translate(1016.211 1415.359) rotate(180)" fill="#f5f5f5"/>
    <rect id="Rectángulo_165" data-name="Rectángulo 165" width="29.463" height="28.553" transform="translate(1012.72 1383.726) rotate(90)" fill="#fff"/>
    <rect id="Rectángulo_166" data-name="Rectángulo 166" width="30.217" height="0.371" transform="translate(998.629 1383.349) rotate(90)" fill="#f5f5f5"/>
    <rect id="Rectángulo_167" data-name="Rectángulo 167" width="38.87" height="78.414" transform="translate(957.801 1461.879) rotate(180)" fill="#e6e6e6"/>
    <rect id="Rectángulo_168" data-name="Rectángulo 168" width="40.854" height="78.414" transform="translate(957.082 1461.879) rotate(180)" fill="#f0f0f0"/>
    <rect id="Rectángulo_169" data-name="Rectángulo 169" width="71.57" height="34.007" transform="translate(953.657 1386.884) rotate(90)" fill="#fff"/>
    <path id="Trazado_1957" data-name="Trazado 1957" d="M108.876,169.757l6.707-71.567H107.84l-6.71,71.567Z" transform="translate(823.604 1288.697)" fill="#fafafa"/>
    <path id="Trazado_1958" data-name="Trazado 1958" d="M139.051,169.757l6.71-71.567h-3.874l-6.707,71.567Z" transform="translate(799.428 1288.697)" fill="#fafafa"/>
    <rect id="Rectángulo_170" data-name="Rectángulo 170" width="7.264" height="30.707" transform="translate(979.765 1469.306) rotate(180)" fill="#e6e6e6"/>
    <path id="Trazado_1959" data-name="Trazado 1959" d="M270.085,372.02H265.86v-4.24h8.656Z" transform="translate(706.644 1097.286)" fill="#fafafa"/>
    <rect id="Rectángulo_171" data-name="Rectángulo 171" width="7.264" height="30.707" transform="translate(1022.919 1469.306) rotate(180)" fill="#e6e6e6"/>
    <rect id="Rectángulo_172" data-name="Rectángulo 172" width="46.842" height="29.249" transform="translate(1019.343 1467.844) rotate(180)" fill="#fafafa"/>
    <path id="Trazado_1960" data-name="Trazado 1960" d="M401.961,372.02h4.228v-4.24H397.53Z" transform="translate(613.157 1097.286)" fill="#fafafa"/>
    <rect id="Rectángulo_173" data-name="Rectángulo 173" width="40.286" height="7.319" transform="translate(1016.066 1456.816) rotate(180)" fill="#f0f0f0"/>
    <rect id="Rectángulo_174" data-name="Rectángulo 174" width="40.286" height="7.319" transform="translate(1016.066 1465.698) rotate(180)" fill="#f0f0f0"/>
    <path id="Trazado_1961" data-name="Trazado 1961" d="M1.325,0H26.3a1.328,1.328,0,0,1,1.328,1.328v.09H0v-.09A1.328,1.328,0,0,1,1.328,0Z" transform="translate(1009.733 1450.28) rotate(180)" fill="#fafafa"/>
    <rect id="Rectángulo_175" data-name="Rectángulo 175" width="40.286" height="7.319" transform="translate(1016.066 1447.931) rotate(180)" fill="#f0f0f0"/>
    <path id="Trazado_1962" data-name="Trazado 1962" d="M1.325,0H26.3a1.328,1.328,0,0,1,1.328,1.328v.09H0v-.09A1.328,1.328,0,0,1,1.325,0Z" transform="translate(1009.733 1441.394) rotate(180)" fill="#fafafa"/>
    <path id="Trazado_1963" data-name="Trazado 1963" d="M1.325,0H26.3a1.328,1.328,0,0,1,1.328,1.328v.09H0v-.09A1.328,1.328,0,0,1,1.325,0Z" transform="translate(1009.733 1459.165) rotate(180)" fill="#fafafa"/>
    <rect id="Rectángulo_176" data-name="Rectángulo 176" width="1.433" height="13.287" transform="translate(981.613 1438.085) rotate(180)" fill="#f5f5f5"/>
    <rect id="Rectángulo_177" data-name="Rectángulo 177" width="0.403" height="13.287" transform="translate(980.769 1438.077) rotate(180)" fill="#fafafa"/>
    <path id="Trazado_1964" data-name="Trazado 1964" d="M283.91,274.557h6.313a.795.795,0,0,0-.795-.8h-4.721A.8.8,0,0,0,283.91,274.557Z" transform="translate(693.828 1164.041)" fill="#f0f0f0"/>
    <path id="Trazado_1965" data-name="Trazado 1965" d="M284.325,241.475h0a.415.415,0,0,0,.412-.412v-7.331a.415.415,0,0,0-.412-.412h0a.415.415,0,0,0-.415.412v7.325a.415.415,0,0,0,.415.418Z" transform="translate(693.828 1192.754)" fill="#f0f0f0"/>
    <path id="Trazado_1966" data-name="Trazado 1966" d="M272.7,231.074h12.818l-.455-1.264a4.266,4.266,0,0,0-4.008-2.81h-3.892a4.266,4.266,0,0,0-4.008,2.81Z" transform="translate(701.787 1197.241)" fill="#e0e0e0"/>
    <rect id="Rectángulo_178" data-name="Rectángulo 178" width="1.433" height="13.287" transform="translate(1014.399 1438.085) rotate(180)" fill="#f5f5f5"/>
    <rect id="Rectángulo_179" data-name="Rectángulo 179" width="0.403" height="13.287" transform="translate(1013.558 1438.077) rotate(180)" fill="#fafafa"/>
    <path id="Trazado_1967" data-name="Trazado 1967" d="M396.986,274.557H403.3a.8.8,0,0,0-.795-.8h-4.73a.8.8,0,0,0-.795.8Z" transform="translate(613.548 1164.041)" fill="#f0f0f0"/>
    <path id="Trazado_1968" data-name="Trazado 1968" d="M397.392,241.475h0a.415.415,0,0,0,.412-.412v-7.331a.415.415,0,0,0-.412-.412h0a.415.415,0,0,0-.412.412v7.325A.415.415,0,0,0,397.392,241.475Z" transform="translate(613.548 1192.754)" fill="#f0f0f0"/>
    <path id="Trazado_1969" data-name="Trazado 1969" d="M385.76,231.074h12.829l-.458-1.264a4.263,4.263,0,0,0-4.016-2.81h-3.889a4.266,4.266,0,0,0-4.008,2.81Z" transform="translate(621.514 1197.241)" fill="#e0e0e0"/>
    <ellipse id="freepik--path--inject-45" cx="56.226" cy="3.283" rx="56.226" ry="3.283" transform="translate(911.678 1475.836)" fill="#f5f5f5"/>
    <path id="Trazado_1970" data-name="Trazado 1970" d="M166.083,106.286l-.183-.226a48.217,48.217,0,0,1,3.973-2.9l.159.244A47.668,47.668,0,0,0,166.083,106.286Z" transform="translate(777.616 1285.169)" fill="#263238"/>
    <path id="Trazado_1971" data-name="Trazado 1971" d="M158.667,117.176l-.2-.215c.389-.351.789-.7,1.186-1.041l.189.223C159.447,116.48,159.053,116.828,158.667,117.176Z" transform="translate(782.892 1276.109)" fill="#263238"/>
    <ellipse id="Elipse_24" data-name="Elipse 24" cx="33.419" cy="23.544" rx="33.419" ry="23.544" transform="translate(917.51 1415.278) rotate(-41.22)" fill="#263238"/>
    <ellipse id="Elipse_25" data-name="Elipse 25" cx="28.99" cy="20.424" rx="28.99" ry="20.424" transform="translate(922.897 1414.707) rotate(-41.22)" fill="#fff"/>
    <path id="Trazado_1972" data-name="Trazado 1972" d="M166.767,103.7c-12.554,1.018-25.424,11.89-28.747,24.261l45.462-3.68C186.805,111.9,179.321,102.688,166.767,103.7Z" transform="translate(797.412 1284.837)" fill="#407bff"/>
    <path id="Trazado_1973" data-name="Trazado 1973" d="M138,147.4l22.732-1.841L148.918,131A33.588,33.588,0,0,0,138,147.4Z" transform="translate(797.426 1265.402)" fill="#fff" opacity="0.7"/>
    <path id="Trazado_1974" data-name="Trazado 1974" d="M193.484,103.89c-6.275.51-12.632,3.48-17.834,7.867l11.82,14.552Z" transform="translate(770.694 1284.65)" fill="#fff" opacity="0.4"/>
    <path id="Trazado_1975" data-name="Trazado 1975" d="M222.424,103.7l-6.014,22.419,20.326-17.153C233.711,105.246,228.7,103.2,222.424,103.7Z" transform="translate(741.754 1284.838)" fill="#fff" opacity="0.1"/>
    <ellipse id="Elipse_26" data-name="Elipse 26" cx="11.829" cy="8.331" rx="11.829" ry="8.331" transform="translate(943.774 1412.493) rotate(-41.22)" fill="#fff"/>
    <ellipse id="Elipse_27" data-name="Elipse 27" cx="6.902" cy="4.863" rx="6.902" ry="4.863" transform="translate(949.765 1411.856) rotate(-41.22)" fill="#263238"/>
    <path id="Trazado_1976" data-name="Trazado 1976" d="M237.712,139.85a68.52,68.52,0,0,0-15.262,8.091l2.137,3.828A74.716,74.716,0,0,0,237.712,139.85Z" transform="translate(737.465 1259.118)" fill="#263238"/>
    <path id="Trazado_1977" data-name="Trazado 1977" d="M145.873,209.358a.438.438,0,0,1-.45-.534.792.792,0,0,1,.684-.626l24.994-1.981a.438.438,0,0,1,.493.531.783.783,0,0,1-.682.623l-24.974,1.984Z" transform="translate(792.162 1212.001)" fill="#407bff"/>
    <path id="Trazado_1978" data-name="Trazado 1978" d="M220.421,220.83a.435.435,0,0,1-.449-.534.783.783,0,0,1,.684-.623l8.12-.647a.438.438,0,0,1,.5.531.789.789,0,0,1-.684.626l-8.12.644Z" transform="translate(739.233 1202.906)" fill="#407bff"/>
    <path id="Trazado_1979" data-name="Trazado 1979" d="M78.023,256.652a.438.438,0,0,1-.449-.534.789.789,0,0,1,.7-.624l8.12-.647a.441.441,0,0,1,.5.531.789.789,0,0,1-.681.626l-8.12.644Z" transform="translate(840.336 1177.472)" fill="#407bff"/>
    <path id="Trazado_1980" data-name="Trazado 1980" d="M102.969,237.129a.435.435,0,0,1-.447-.534.786.786,0,0,1,.681-.623l24.359-1.934a.441.441,0,0,1,.5.531.792.792,0,0,1-.684.626l-24.359,1.931Z" transform="translate(822.623 1192.248)" fill="#407bff"/>
    <path id="Trazado_1981" data-name="Trazado 1981" d="M284.39,330.016l1.032,2.085,5.107-1.836L289.5,328.18Z" transform="translate(693.487 1125.403)" fill="#ff8b7b"/>
    <path id="Trazado_1982" data-name="Trazado 1982" d="M198.77,383.672l1.552,1.737,3.944-4.48-1.911-1.328Z" transform="translate(754.278 1088.894)" fill="#ff8b7b"/>
    <path id="Trazado_1983" data-name="Trazado 1983" d="M196.495,392.246l-1.055-2.636a.2.2,0,0,0-.218-.119l-2.062.435a.354.354,0,0,0-.249.484c.354.841.65,1.45,1.076,2.505.264.658.989,2.668,1.354,3.576s1.29.629,1.224.22a9.593,9.593,0,0,1-.061-4.045A.58.58,0,0,0,196.495,392.246Z" transform="translate(758.459 1081.873)" fill="#263238"/>
    <path id="Trazado_1984" data-name="Trazado 1984" d="M279.755,335.384l-1.128-2.279A.206.206,0,0,0,278.4,333l-2.059.507a.336.336,0,0,0-.223.484c.42.815,1.056,1.978,1.569,3.01.6,1.209.678,1.247,1.38,2.662.423.856,1.406.667,1.308.27-.453-1.81-.7-2.123-.531-3.964A1.082,1.082,0,0,0,279.755,335.384Z" transform="translate(699.39 1121.985)" fill="#263238"/>
    <path id="Trazado_1985" data-name="Trazado 1985" d="M347.921,203.749c-.107.754-.223,1.566-.313,2.352s-.18,1.586-.246,2.378a33.708,33.708,0,0,0-.139,4.657,4.292,4.292,0,0,0,.041.554l.052.516a.728.728,0,0,0,.5.693,3.173,3.173,0,0,0,.827.249,9.864,9.864,0,0,0,2.158.081c.38-.026.768-.055,1.16-.1s.789-.107,1.16-.162l.563,1.656a12.788,12.788,0,0,1-1.229.5,12.483,12.483,0,0,1-1.261.394,11.5,11.5,0,0,1-1.331.27,8.226,8.226,0,0,1-1.433.093,5.829,5.829,0,0,1-1.589-.241,3.975,3.975,0,0,1-1.665-1,3.784,3.784,0,0,1-.963-1.818c-.02-.09-.029-.139-.038-.2l-.029-.168-.061-.342c-.044-.226-.073-.45-.1-.673a29.956,29.956,0,0,1-.11-5.22c.055-.853.116-1.7.22-2.54s.206-1.667.368-2.54Z" transform="translate(651.303 1214.182)" fill="#ff8b7b"/>
    <path id="Trazado_1986" data-name="Trazado 1986" d="M342.661,195.5c-1.525,1.621-.911,5.713-.911,5.713l4.286.667a9.708,9.708,0,0,0,.62-4.712C346.2,194.258,344.328,193.713,342.661,195.5Z" transform="translate(652.848 1220.335)" fill="#407bff"/>
    <path id="Trazado_1987" data-name="Trazado 1987" d="M344.042,201.324c-.708-.911-1.45-1.235-1.844-1.16-.948,1.859-.467,5.066-.467,5.066l3.036.493A5.042,5.042,0,0,0,344.042,201.324Z" transform="translate(652.862 1216.302)" opacity="0.2"/>
    <path id="Trazado_1988" data-name="Trazado 1988" d="M373.94,240.8l2.485-1.63.551,2.523s-1.546,1.566-2.833.461Z" transform="translate(629.906 1188.6)" fill="#ff8b7b"/>
    <path id="Trazado_1989" data-name="Trazado 1989" d="M384.031,237.29l.287,2.181-1.264.887-.554-2.523Z" transform="translate(623.828 1189.935)" fill="#ff8b7b"/>
    <path id="Trazado_1990" data-name="Trazado 1990" d="M296.583,330.268l-2.63.945-1.032-2.088,2.63-.945Z" transform="translate(687.431 1125.403)" opacity="0.2"/>
    <path id="Trazado_1991" data-name="Trazado 1991" d="M206.6,379.6l1.911,1.328-1.85,2.1L204.75,381.7Z" transform="translate(750.033 1088.894)" opacity="0.2"/>
    <path id="Trazado_1992" data-name="Trazado 1992" d="M297.324,178.71c-1.763,9.022-6.458,17.162-7.114,18.96,1.682.7,8.03,3.349,11.49,4.791,6.452-9.6,7.441-16.55,7.589-18.232a.69.69,0,0,0-.29-.623c-.276-.2-.716-.513-1.253-.87-.29-.186-.6-.38-.934-.58-.183-.107-.371-.212-.563-.313a46.093,46.093,0,0,0-4.886-2.03c-.313-.113-.635-.223-.951-.322s-.58-.177-.855-.252C298.321,178.907,297.324,178.71,297.324,178.71Z" transform="translate(689.355 1231.527)" fill="#407bff"/>
    <path id="Trazado_1993" data-name="Trazado 1993" d="M326.841,208.9l.635.162a3.634,3.634,0,0,1-1.488.87,3.6,3.6,0,0,1-1.96.029,2.9,2.9,0,0,1-1.5-.818,1.891,1.891,0,0,1-.47-1.421,4.286,4.286,0,0,1,.5-1.74,6.063,6.063,0,0,1,1.34-1.74,4.35,4.35,0,0,1,1.74-1,3.448,3.448,0,0,1,1.792-.029,2.156,2.156,0,0,1,1.16.679,1.757,1.757,0,0,1,.4,1.215,3.335,3.335,0,0,1-.4,1.45,4.192,4.192,0,0,1-1.3,1.5,2.358,2.358,0,0,1-1.972.528.482.482,0,0,1-.322-.194.447.447,0,0,1,0-.339,1.389,1.389,0,0,1-1.015.194.786.786,0,0,1-.615-.609,1.645,1.645,0,0,1,.223-1.145,4.17,4.17,0,0,1,1.16-1.4,1.929,1.929,0,0,1,1.644-.519.647.647,0,0,1,.539.673l.272-.368.786.2-1.74,2.392a2.933,2.933,0,0,0-.2.29.258.258,0,0,0-.035.142.081.081,0,0,0,.061.064.842.842,0,0,0,.473-.11,2.861,2.861,0,0,0,.87-.58,3.294,3.294,0,0,0,.667-.87,2.031,2.031,0,0,0,.212-1.575,1.5,1.5,0,0,0-1.183-.951,2.789,2.789,0,0,0-1.566.041,3.585,3.585,0,0,0-1.406.87,5.382,5.382,0,0,0-1.038,1.389,3.074,3.074,0,0,0-.374,1.424,1.511,1.511,0,0,0,.435,1.108,2.508,2.508,0,0,0,1.16.609,3.3,3.3,0,0,0,1.346.075,2.854,2.854,0,0,0,1.16-.493Zm-2.482-2.247a1.2,1.2,0,0,0-.183.69.351.351,0,0,0,.273.307.673.673,0,0,0,.368-.017,1.32,1.32,0,0,0,.336-.165,2.866,2.866,0,0,0,.594-.554,3.9,3.9,0,0,0,.508-.734,1.058,1.058,0,0,0,.154-.644.362.362,0,0,0-.29-.313.838.838,0,0,0-.594.113,2.3,2.3,0,0,0-.667.58A4.25,4.25,0,0,0,324.359,206.651Z" transform="translate(666.745 1214.203)" fill="#fff"/>
    <path id="Trazado_1994" data-name="Trazado 1994" d="M331.5,164.45c-.345,1.7-1.238,4.709-2.775,5.3a5.92,5.92,0,0,0,3.048,3.5c1.842.844,2.047-.58,1.836-1.45-1.578-1.16-.989-2.43-.177-3.523Z" transform="translate(662.013 1241.652)" fill="#ff8b7b"/>
    <path id="Trazado_1995" data-name="Trazado 1995" d="M339.93,169.81l1.143,2.253a5.3,5.3,0,0,0-.51.806,2.35,2.35,0,0,1-1.024-2.227A2.564,2.564,0,0,1,339.93,169.81Z" transform="translate(654.364 1237.846)" opacity="0.2"/>
    <path id="Trazado_1996" data-name="Trazado 1996" d="M351.23,152.429c1.818.133,3.428-4.4.774-4.93-1.789-.357-1.772.713-1.96,1.885S350.079,152.345,351.23,152.429Z" transform="translate(646.915 1253.737)" fill="#263238"/>
    <path id="Trazado_1997" data-name="Trazado 1997" d="M337.741,150.511c-.467,2.262-.855,3.561-.043,5.011a3.069,3.069,0,0,0,5.382-.171c1.021-1.87,1.615-5.255-.322-6.734a3.152,3.152,0,0,0-5.017,1.894Z" transform="translate(655.973 1253.358)" fill="#ff8b7b"/>
    <path id="Trazado_1998" data-name="Trazado 1998" d="M333.921,151.03c1.818.133,3.036-4.014.383-4.544-1.789-.357-1.94.69-1.911,1.81C332.422,149.485,332.767,150.935,333.921,151.03Z" transform="translate(659.407 1254.457)" fill="#263238"/>
    <path id="Trazado_1999" data-name="Trazado 1999" d="M333.031,140.619c1.227.594,7.14,1.868,6.8-.676s-3.5-3.724-3.5-3.724,1.839,2.015.322,1.531a21.264,21.264,0,0,0-3.77-1.16s1.786,1.482-.29,1.064a4.93,4.93,0,0,0-3.526.563,3.506,3.506,0,0,1,1.531,3.268C330.459,143.722,333.031,140.619,333.031,140.619Z" transform="translate(661.764 1261.696)" fill="#263238"/>
    <path id="Trazado_2000" data-name="Trazado 2000" d="M333.974,159.912a2.03,2.03,0,0,0,.789,1.319c.557.409,1.064-.061,1.1-.739.032-.612-.218-1.563-.87-1.7A.91.91,0,0,0,333.974,159.912Z" transform="translate(658.29 1245.683)" fill="#ff8b7b"/>
    <path id="Trazado_2001" data-name="Trazado 2001" d="M296.486,249.81l-2.419,7.789,12.449,7.83c-2.149,3.584-13.067,7.151-13.067,7.151l1.74,3.532s15.2-1.16,18.287-7.882c2.967-6.455-9.483-15.288-9.483-15.288Z" transform="translate(687.055 1181.046)" fill="#263238"/>
    <path id="Trazado_2002" data-name="Trazado 2002" d="M304.172,272.576,302,271.216l2.674-3.886A22.608,22.608,0,0,1,304.172,272.576Z" transform="translate(680.984 1168.607)" opacity="0.2"/>
    <path id="Trazado_2003" data-name="Trazado 2003" d="M304.172,272.576,302,271.216l2.674-3.886A22.608,22.608,0,0,1,304.172,272.576Z" transform="translate(680.984 1168.607)" opacity="0.2"/>
    <path id="Trazado_2004" data-name="Trazado 2004" d="M237.352,247.744s-10.039,16.7-14.183,22.115c-4.538,5.933-16.289,17.11-16.289,17.11l-3.5-2.436s10.15-11.188,13.975-17.379c4.364-7.053,11.205-23.083,11.205-23.083Z" transform="translate(751.005 1185.121)" fill="#263238"/>
    <path id="Trazado_2005" data-name="Trazado 2005" d="M206.621,383.248l-4.121-2.865.855-1.232,4.663,3.123Z" transform="translate(751.63 1089.213)" fill="#407bff"/>
    <path id="Trazado_2006" data-name="Trazado 2006" d="M294.845,330.231l-2.085-4.208,1.36-.673,2.4,4.669Z" transform="translate(687.545 1127.412)" fill="#407bff"/>
    <path id="Trazado_2007" data-name="Trazado 2007" d="M350.024,161.387c-.049.18,0,.354.125.386s.255-.087.3-.27,0-.354-.128-.386S350.073,161.207,350.024,161.387Z" transform="translate(646.9 1244.022)" fill="#263238"/>
    <path id="Trazado_2008" data-name="Trazado 2008" d="M357.084,163.327c-.049.183,0,.354.125.386s.255-.087.3-.27,0-.354-.125-.386S357.133,163.141,357.084,163.327Z" transform="translate(641.887 1242.645)" fill="#263238"/>
    <path id="Trazado_2009" data-name="Trazado 2009" d="M353.657,163.68a6.751,6.751,0,0,0,.444,1.786,1.085,1.085,0,0,1-.911-.075Z" transform="translate(644.639 1242.199)" fill="#ff5652"/>
    <path id="Trazado_2010" data-name="Trazado 2010" d="M347.975,168.234a1.561,1.561,0,0,1-.87-.87.056.056,0,0,1,.107-.035,1.479,1.479,0,0,0,1.015.87.052.052,0,0,1,.035.024.053.053,0,0,1,.005.042.055.055,0,0,1-.07.038A1.646,1.646,0,0,1,347.975,168.234Z" transform="translate(648.96 1239.634)" fill="#263238"/>
    <path id="Trazado_2011" data-name="Trazado 2011" d="M348.346,158.127a.128.128,0,0,1-.044-.035.107.107,0,0,1,.02-.154,1.1,1.1,0,0,1,.986-.206.113.113,0,0,1,.067.142.11.11,0,0,1-.139.067h0a.87.87,0,0,0-.78.171A.116.116,0,0,1,348.346,158.127Z" transform="translate(648.126 1246.45)" fill="#263238"/>
    <path id="Trazado_2012" data-name="Trazado 2012" d="M359.337,160.079a.108.108,0,0,1-.064-.081.87.87,0,0,0-.47-.644.11.11,0,1,1,.084-.2,1.091,1.091,0,0,1,.6.806.107.107,0,0,1-.087.128A.1.1,0,0,1,359.337,160.079Z" transform="translate(640.707 1245.423)" fill="#263238"/>
    <path id="Trazado_2013" data-name="Trazado 2013" d="M204.679,400.435a2.68,2.68,0,0,1-.151-.6.058.058,0,0,1,.026-.058.049.049,0,0,1,.058,0c.081.055.78.563.757.855a.192.192,0,0,1-.107.154.321.321,0,0,1-.31,0A.676.676,0,0,1,204.679,400.435Zm-.014-.484c.073.4.2.676.345.751a.209.209,0,0,0,.209-.015c.041-.017.046-.041.046-.058C205.273,400.479,204.931,400.163,204.665,399.951Z" transform="translate(750.191 1074.574)" fill="#407bff"/>
    <path id="Trazado_2014" data-name="Trazado 2014" d="M204.531,399.5a.058.058,0,0,1,.035-.075c.026,0,.658-.232.963-.073a.29.29,0,0,1,.151.189h0a.188.188,0,0,1-.067.223c-.217.151-.87-.072-1.067-.241A.064.064,0,0,1,204.531,399.5Zm1.035.049a.193.193,0,0,0-.09-.1,1.269,1.269,0,0,0-.768.043c.255.148.716.264.847.174,0,0,.038-.026.02-.1h0Z" transform="translate(750.191 1074.909)" fill="#407bff"/>
    <path id="Trazado_2015" data-name="Trazado 2015" d="M288.113,342.289a.052.052,0,0,1,.023-.052.058.058,0,0,1,.064,0c.1.073.934.7.919,1.024a.174.174,0,0,1-.09.145h0a.29.29,0,0,1-.29.026c-.316-.128-.531-.766-.629-1.134Zm.9.943c-.023-.183-.423-.551-.745-.806.154.5.342.832.519.9a.2.2,0,0,0,.189-.017.061.061,0,0,0,.038-.058Z" transform="translate(690.846 1115.429)" fill="#407bff"/>
    <path id="Trazado_2016" data-name="Trazado 2016" d="M288.12,341.983v-.014a.049.049,0,0,1,.035-.044,1.633,1.633,0,0,1,.963-.073.394.394,0,0,1,.22.232h0a.2.2,0,0,1-.046.252c-.218.154-.916-.122-1.16-.319A.049.049,0,0,1,288.12,341.983Zm1.128.194a.173.173,0,0,0-.015-.055h0a.291.291,0,0,0-.162-.171,1.275,1.275,0,0,0-.777.043c.29.18.8.345.934.252a.064.064,0,0,0,.017-.07Zm.038-.075Z" transform="translate(690.839 1115.734)" fill="#407bff"/>
    <path id="Trazado_2017" data-name="Trazado 2017" d="M274.331,174.709l-.916-.612c-.316-.206-.638-.406-.96-.606-.647-.4-1.3-.774-1.963-1.137s-1.331-.693-2.007-.989c-.336-.154-.676-.29-1.015-.42l-.507-.18-.128-.044-.064-.023h0a.083.083,0,0,1-.046-.02,2.534,2.534,0,0,0-.728.044,8.01,8.01,0,0,0-.986.247,21.736,21.736,0,0,0-2.1.789c-1.406.606-2.839,1.3-4.231,2l-.983-1.45a31.252,31.252,0,0,1,4.011-2.9,20.216,20.216,0,0,1,2.271-1.192,11.062,11.062,0,0,1,1.3-.47,5.239,5.239,0,0,1,1.647-.229,3.926,3.926,0,0,1,.545.067l.136.032.081.02.16.041.638.165c.418.125.838.249,1.238.4a22.347,22.347,0,0,1,2.358,1c.763.365,1.5.771,2.224,1.2.357.22.713.444,1.064.676s.687.464,1.064.745Z" transform="translate(712.438 1239.475)" fill="#ff8b7b"/>
    <path id="Trazado_2018" data-name="Trazado 2018" d="M310.024,176.467c-.513-1.27-5.365-3.007-5.365-3.007l-1.569,4.095s1.7,1.122,3.1,1.963C308.864,181.127,311.027,178.967,310.024,176.467Z" transform="translate(680.21 1235.255)" fill="#407bff"/>
    <path id="Trazado_2019" data-name="Trazado 2019" d="M256.622,184.131l-.983,2.131-1.5-1.943s1.131-1.9,1.937-1.16Z" transform="translate(714.965 1228.491)" fill="#ff8b7b"/>
    <path id="Trazado_2020" data-name="Trazado 2020" d="M250.3,190.193l-.76-1.705,1.334-.908,1.5,1.943Z" transform="translate(718.231 1225.23)" fill="#ff8b7b"/>
  </g>
</svg>
